<?xml version="1.0" standalone="no"?>
<!DOCTYPE svg PUBLIC "-//W3C//DTD SVG 1.1//EN" "http://www.w3.org/Graphics/SVG/1.1/DTD/svg11.dtd" >
<svg>
<metadata>
Created by FontForge 20090622 at Mon Feb  6 16:57:38 2017
 By deploy user
Copyright (c) 2012 by Jos Buivenga. All rights reserved.
</metadata>
<defs>
<font id="MuseoSansCyrl-100" horiz-adv-x="376" >
  <font-face 
    font-family="Museo Sans Cyrl 100"
    font-weight="250"
    font-stretch="normal"
    units-per-em="1000"
    panose-1="2 0 0 0 0 0 0 0 0 0"
    ascent="750"
    descent="-250"
    x-height="500"
    cap-height="700"
    bbox="-114 -212 1088 874"
    underline-thickness="50"
    underline-position="-50"
    unicode-range="U+0020-U+FB04"
  />
<missing-glyph horiz-adv-x="510" 
d="M5 0v700h500v-700h-500zM255 395l170 255h-340zM285 350l170 -255v510zM55 95l170 255l-170 255v-510zM85 50h340l-170 255z" />
    <glyph glyph-name="f_f" unicode="ff" horiz-adv-x="612" 
d="M102 0v462h-63v38h63v20q0 58 17 98t44.5 57t50 23.5t46.5 6.5q17 0 26 -2v-39q-6 2 -23 2q-19 0 -36 -5t-37.5 -18.5t-33 -45t-12.5 -76.5v-21h263v20q0 58 17 98t44.5 57t50 23.5t46.5 6.5q17 0 26 -2v-39q-6 2 -23 2q-19 0 -36 -5t-37.5 -18.5t-33 -45t-12.5 -76.5
v-21h137v-38h-137v-462h-42v462h-263v-462h-42z" />
    <glyph glyph-name="fi" unicode="fi" horiz-adv-x="514" 
d="M102 0v462h-63v38h63v20q0 58 17 98t44.5 57t50 23.5t46.5 6.5q10 0 26 -2v-39q-8 2 -23 2q-19 0 -36 -5t-37.5 -18.5t-33 -45t-12.5 -76.5v-21h284v-500h-42v462h-242v-462h-42zM382 627v73h50v-73h-50z" />
    <glyph glyph-name="fl" unicode="fl" horiz-adv-x="521" 
d="M102 0v459h-63v38h63v23q0 58 17 98t44.5 57t50 23.5t46.5 6.5q10 0 26 -2v-39q-8 2 -23 2q-19 0 -36 -5t-37.5 -18.5t-33 -45t-12.5 -76.5v-24h137v-38h-137v-459h-42zM381 101v599h42v-586q0 -78 59 -78q9 0 15 1v-39q-8 -2 -18 -2q-14 0 -28 3.5t-31.5 13.5t-28 32.5
t-10.5 55.5z" />
    <glyph glyph-name="f_f_i" unicode="ffi" horiz-adv-x="819" 
d="M102 0v462h-63v38h63v20q0 58 17 98t44.5 57t50 23.5t46.5 6.5q10 0 26 -2v-39q-8 2 -23 2q-19 0 -36 -5t-37.5 -18.5t-33 -45t-12.5 -76.5v-21h263v20q0 58 17 98t44.5 57t50 23.5t46.5 6.5q10 0 26 -2v-39q-8 2 -23 2q-19 0 -36 -5t-37.5 -18.5t-33 -45t-12.5 -76.5
v-21h284v-500h-42v462h-242v-462h-42v462h-263v-462h-42zM687 627v73h50v-73h-50z" />
    <glyph glyph-name="f_f_l" unicode="ffl" horiz-adv-x="826" 
d="M102 0v462h-63v38h63v20q0 58 17 98t44.5 57t50 23.5t46.5 6.5q10 0 26 -2v-39q-8 2 -23 2q-19 0 -36 -5t-37.5 -18.5t-33 -45t-12.5 -76.5v-21h263v20q0 58 17 98t44.5 57t50 23.5t46.5 6.5q10 0 26 -2v-39q-8 2 -23 2q-19 0 -36 -5t-37.5 -18.5t-33 -45t-12.5 -76.5
v-21h137v-38h-137v-462h-42v462h-263v-462h-42zM686 101v599h42v-586q0 -78 59 -78q9 0 15 1v-39q-8 -2 -18 -2q-14 0 -28 3.5t-31.5 13.5t-28 32.5t-10.5 55.5z" />
    <glyph glyph-name="f_j" unicode="fj" horiz-adv-x="514" 
d="M102 0v462h-63v38h63v20q0 58 17 98t44.5 57t50 23.5t46.5 6.5q10 0 26 -2v-39q-8 2 -23 2q-19 0 -36 -5t-37.5 -18.5t-33 -45t-12.5 -76.5v-21h284v-520q0 -58 -17 -98t-44.5 -57.5t-50.5 -23.5t-47 -6q-7 0 -25 2v39q6 -2 22 -2q19 0 36.5 5t38 18.5t33 45t12.5 76.5
v483h-242v-462h-42zM382 627v73h50v-73h-50z" />
    <glyph glyph-name=".notdef" horiz-adv-x="510" 
d="M5 0v700h500v-700h-500zM255 395l170 255h-340zM285 350l170 -255v510zM55 95l170 255l-170 255v-510zM85 50h340l-170 255z" />
    <glyph glyph-name=".null" horiz-adv-x="0" 
 />
    <glyph glyph-name="nonmarkingreturn" horiz-adv-x="333" 
 />
    <glyph glyph-name="space" unicode=" " horiz-adv-x="250" 
 />
    <glyph glyph-name="exclam" unicode="!" horiz-adv-x="250" 
d="M103 175v525h43v-525h-43zM96 0v61h59v-61h-59z" />
    <glyph glyph-name="quotedbl" unicode="&#x22;" horiz-adv-x="313" 
d="M187 558v151h43v-151h-43zM83 558v151h43v-151h-43z" />
    <glyph glyph-name="numbersign" unicode="#" horiz-adv-x="731" 
d="M168 0l35 199h-152l7 40h152l39 221h-152l7 40h152l35 200h43l-35 -200h189l35 200h43l-35 -200h149l-7 -40h-149l-39 -221h149l-7 -40h-149l-35 -199h-43l35 199h-189l-35 -199h-43zM253 239h189l39 221h-189z" />
    <glyph glyph-name="dollar" unicode="$" horiz-adv-x="560" 
d="M72 75l29 33q33 -35 84 -56.5t103 -21.5q67 0 111.5 38t44.5 100q0 39 -20 69.5t-51.5 50t-70 37l-77.5 35.5t-70.5 39t-51.5 55t-20 77q0 67 50.5 118.5t131.5 60.5v95h43v-94q98 -5 163 -64l-24 -37q-29 27 -70 43.5t-83 16.5q-74 0 -120 -42t-46 -96q0 -49 37 -83.5
t90 -56.5l106.5 -46.5t90.5 -68.5t37 -107q0 -73 -49.5 -123.5t-131.5 -57.5v-93h-43v93q-118 7 -193 86z" />
    <glyph glyph-name="percent" unicode="%" horiz-adv-x="696" 
d="M190 451q-54 0 -92 38t-38 92t38 92.5t92 38.5t92.5 -38.5t38.5 -92.5t-38.5 -92t-92.5 -38zM58 0l531 700h52l-531 -700h-52zM190 491q37 0 62.5 26t25.5 64t-25.5 64.5t-62.5 26.5t-62 -26.5t-25 -64.5t25 -64t62 -26zM376 118q0 54 38 92.5t92 38.5t92.5 -38.5
t38.5 -92.5t-38.5 -92t-92.5 -38t-92 38t-38 92zM419 118q0 -38 25 -64t62 -26t62.5 26t25.5 64t-25.5 64.5t-62.5 26.5t-62 -26.5t-25 -64.5z" />
    <glyph glyph-name="ampersand" unicode="&#x26;" horiz-adv-x="656" 
d="M64 191q0 65 35 118t97 70v2q-101 40 -101 157q0 77 54.5 125.5t149.5 48.5q34 0 74 -10l-14 -38q-34 8 -63 8q-67 0 -111.5 -36.5t-44.5 -96.5q0 -23 6 -44t22 -44.5t52.5 -38t90.5 -14.5h163v102h43v-102h97v-40h-97v-112q0 -129 -59.5 -193.5t-163.5 -64.5
q-101 0 -165.5 57.5t-64.5 145.5zM109 193q0 -70 50 -116.5t135 -46.5q180 0 180 216v112h-161q-101 0 -152.5 -44.5t-51.5 -120.5z" />
    <glyph glyph-name="quotesingle" unicode="'" horiz-adv-x="209" 
d="M83 558v151h43v-151h-43z" />
    <glyph glyph-name="parenleft" unicode="(" horiz-adv-x="264" 
d="M172 -95q-110 192 -110 430q0 208 110 390h44q-113 -190 -113 -391q0 -231 113 -429h-44z" />
    <glyph glyph-name="parenright" unicode=")" horiz-adv-x="264" 
d="M48 -95q113 198 113 429q0 201 -113 391h44q110 -182 110 -390q0 -238 -110 -430h-44z" />
    <glyph glyph-name="asterisk" unicode="*" horiz-adv-x="496" 
d="M154 344l-36 25l99 130v2l-156 47l13 42l155 -54l-5 164h47l-5 -164l156 53l14 -41l-157 -47v-2l98 -130l-35 -26l-93 134h-2z" />
    <glyph glyph-name="plus" unicode="+" horiz-adv-x="560" 
d="M22 263v40h237v263h43v-263h236v-40h-236v-263h-43v263h-237z" />
    <glyph glyph-name="comma" unicode="," horiz-adv-x="253" 
d="M52 -94l53 155h56l-67 -155h-42z" />
    <glyph glyph-name="hyphen" unicode="-" horiz-adv-x="432" 
d="M78 263v40h276v-40h-276z" />
    <glyph glyph-name="period" unicode="." horiz-adv-x="217" 
d="M78 0v63h61v-63h-61z" />
    <glyph glyph-name="slash" unicode="/" horiz-adv-x="389" 
d="M46 -42l253 782h44l-253 -782h-44z" />
    <glyph glyph-name="zero" unicode="0" horiz-adv-x="612" 
d="M306 -12q-236 0 -236 362t236 362t236 -362t-236 -362zM306 30q54 0 92.5 24t59.5 69t30 100t9 127q0 320 -191 320t-191 -320q0 -72 9 -127t30 -100t59.5 -69t92.5 -24z" />
    <glyph glyph-name="one" unicode="1" horiz-adv-x="452" 
d="M58 0v40h159v570l1 35h-2q-7 -13 -37 -43l-83 -83l-30 29l151 152h43v-660h155v-40h-357z" />
    <glyph glyph-name="two" unicode="2" horiz-adv-x="555" 
d="M64 0q-3 20 -3 37q0 49 20.5 91.5t53.5 73.5t73 59.5l79.5 56t72.5 56t53.5 66t20.5 80.5q0 65 -44.5 107.5t-118.5 42.5q-51 0 -96.5 -27.5t-73.5 -72.5l-32 22q30 53 85 86.5t118 33.5q98 0 152.5 -56t54.5 -136q0 -56 -27.5 -104t-69 -80l-89.5 -66.5l-89.5 -64.5
t-69 -73t-27.5 -92h383v-40h-426z" />
    <glyph glyph-name="three" unicode="3" horiz-adv-x="557" 
d="M54 85l32 32q33 -37 83.5 -62t104.5 -25q70 0 122.5 48.5t52.5 123.5q0 78 -55.5 122.5t-131.5 44.5h-48l-12 30l196 229l31 32v2q-19 -2 -54 -2h-287v40h401v-30l-226 -261q36 0 72.5 -9.5t74 -31.5t61 -65t23.5 -101q0 -89 -65.5 -151.5t-156.5 -62.5q-60 0 -117.5 26
t-100.5 71z" />
    <glyph glyph-name="four" unicode="4" horiz-adv-x="593" 
d="M41 200v30l363 470h40v-460h104v-40h-104v-200h-43v200h-360zM101 240h300v328l3 63h-2q-17 -25 -35 -48l-266 -341v-2z" />
    <glyph glyph-name="five" unicode="5" horiz-adv-x="549" 
d="M58 89l35 27q56 -86 162 -86q82 0 138 52.5t56 130.5q0 79 -56 132t-138 53q-78 0 -136 -42l-32 11l40 333h325v-40h-287l-25 -209l-7 -43h2q49 32 120 32q100 0 169.5 -66t69.5 -161q0 -94 -70 -159.5t-169 -65.5q-60 0 -112.5 26.5t-84.5 74.5z" />
    <glyph glyph-name="six" unicode="6" horiz-adv-x="583" 
d="M66 314q0 68 17.5 135.5t51.5 127.5t94 97.5t137 37.5q66 0 123 -28l-21 -39q-44 25 -105 25q-76 0 -133.5 -49.5t-85.5 -120.5t-33 -152h2q29 44 82.5 70t115.5 26q94 0 154.5 -61t60.5 -165q0 -106 -62.5 -168t-152.5 -62q-112 0 -178.5 94t-66.5 232zM316 30
q74 0 119.5 53.5t45.5 136.5q0 84 -47.5 133t-124.5 49q-75 0 -134.5 -43t-59.5 -106q0 -28 12.5 -64.5t35.5 -72.5t63.5 -61t89.5 -25z" />
    <glyph glyph-name="seven" unicode="7" horiz-adv-x="518" 
d="M113 0l292 595l37 65v2q-20 -2 -55 -2h-340v40h443v-30l-332 -670h-45z" />
    <glyph glyph-name="eight" unicode="8" horiz-adv-x="589" 
d="M63 195q0 42 15 79.5t38 62.5t39.5 38t31.5 22q-90 55 -90 142q0 73 54.5 123t151.5 50q96 0 152 -49t56 -127q0 -45 -21 -91.5t-39 -69t-35 -38.5q104 -58 104 -150q0 -83 -65.5 -141t-159.5 -58q-92 0 -162 56.5t-70 150.5zM376 356q90 85 90 177q0 63 -45 100t-118 37
q-74 0 -117.5 -37t-43.5 -92q0 -30 12.5 -53.5t41 -43t50.5 -31t66.5 -30t63.5 -27.5zM108 198q0 -74 56 -121t129 -47q71 0 126.5 44.5t55.5 109.5q0 31 -14 56t-43 44t-54.5 31.5t-69 30.5t-66.5 29q-14 -7 -30.5 -19.5t-39 -34.5t-36.5 -54.5t-14 -68.5z" />
    <glyph glyph-name="nine" unicode="9" horiz-adv-x="583" 
d="M94 16l21 39q44 -25 103 -25q77 0 135 49.5t86 120t33 152.5h-2q-29 -44 -82.5 -70t-115.5 -26q-94 0 -154.5 61t-60.5 162q0 109 62 171t153 62q113 0 179 -94t66 -233q0 -68 -17.5 -135t-51.5 -127t-94.5 -97.5t-137.5 -37.5q-66 0 -122 28zM274 298q78 0 136 44.5
t58 94.5q0 81 -56 157t-139 76q-79 0 -125 -53t-46 -138q0 -83 47.5 -132t124.5 -49z" />
    <glyph glyph-name="colon" unicode=":" horiz-adv-x="213" 
d="M78 441v59h57v-59h-57zM78 0v59h57v-59h-57z" />
    <glyph glyph-name="semicolon" unicode=";" horiz-adv-x="275" 
d="M123 441v59h57v-59h-57zM78 -94l45 155h52l-56 -155h-41z" />
    <glyph glyph-name="less" unicode="&#x3c;" horiz-adv-x="560" 
d="M48 265v36l439 197v-48l-377 -166v-2l377 -166v-48z" />
    <glyph glyph-name="equal" unicode="=" horiz-adv-x="560" 
d="M52 343v40h456v-40h-456zM52 183v40h456v-40h-456z" />
    <glyph glyph-name="greater" unicode="&#x3e;" horiz-adv-x="560" 
d="M73 68v48l377 166v2l-377 166v48l439 -197v-36z" />
    <glyph glyph-name="question" unicode="?" horiz-adv-x="435" 
d="M162 175v44q0 45 18.5 81.5t45 61.5l52.5 49.5t44.5 57t18.5 72.5q0 55 -41 92t-105 37q-70 0 -127 -42l-23 34q27 22 68 36t81 14q85 0 138.5 -49t53.5 -123q0 -46 -18.5 -82.5t-45 -61.5l-53.5 -49t-45.5 -56.5t-18.5 -71.5v-44h-43zM154 0v61h59v-61h-59z" />
    <glyph glyph-name="at" unicode="@" horiz-adv-x="761" 
d="M63 243q0 151 102 258t244 107q120 0 176 -51t56 -126v-344h70v-40h-265q-80 0 -136.5 57t-56.5 137q0 81 56.5 138.5t136.5 57.5h150q-3 57 -46 94t-135 37q-129 0 -218 -94.5t-89 -230.5t88.5 -229.5t218.5 -93.5v-42q-146 0 -249 106.5t-103 258.5zM298 241
q0 -64 44.5 -109t108.5 -45h145v310h-143q-65 0 -110 -46t-45 -110z" />
    <glyph glyph-name="A" unicode="A" horiz-adv-x="624" 
d="M27 0l262 700h46l262 -700h-46l-91 242h-297l-90 -242h-46zM178 282h267l-106 284l-26 84h-2q-15 -54 -26 -84z" />
    <glyph glyph-name="B" unicode="B" horiz-adv-x="608" 
d="M107 0v700h235q78 0 127.5 -48t49.5 -127q0 -109 -91 -153v-2q53 -15 86 -63t33 -114q0 -87 -55 -140t-140 -53h-245zM150 388h191q59 0 96 37.5t37 99.5t-36.5 98.5t-97.5 36.5h-190v-272zM150 40h198q71 0 112.5 41t41.5 112q0 70 -43.5 112.5t-111.5 42.5h-197v-308z
" />
    <glyph glyph-name="C" unicode="C" horiz-adv-x="719" 
d="M60 355q0 153 98 255t249 102q156 0 250 -88l-26 -32q-42 37 -102 58t-121 21q-133 0 -218 -89.5t-85 -226.5q0 -139 85.5 -232.5t220.5 -93.5q140 0 237 95l27 -30q-110 -106 -264 -106q-155 0 -253 106t-98 261z" />
    <glyph glyph-name="D" unicode="D" horiz-adv-x="738" 
d="M107 0v700h220q158 0 253.5 -93t95.5 -257q0 -165 -95 -257.5t-254 -92.5h-220zM150 40h170q142 0 226.5 81t84.5 229q0 147 -84.5 228.5t-226.5 81.5h-170v-620z" />
    <glyph glyph-name="E" unicode="E" horiz-adv-x="556" 
d="M107 0v700h383v-40h-340v-287h279v-40h-279v-293h359v-40h-402z" />
    <glyph glyph-name="F" unicode="F" horiz-adv-x="498" 
d="M107 0v700h353v-40h-310v-292h268v-40h-268v-328h-43z" />
    <glyph glyph-name="G" unicode="G" horiz-adv-x="754" 
d="M60 350q0 152 100.5 257t248.5 105q146 0 244 -79l-26 -33q-39 32 -99 51.5t-119 19.5q-131 0 -217.5 -92t-86.5 -229t84.5 -229t213.5 -92q68 0 131.5 31t108.5 84v135h-125v40h168v-319h-43v61l1 30h-2q-41 -46 -104 -74.5t-135 -28.5q-146 0 -244.5 104.5t-98.5 257.5
z" />
    <glyph glyph-name="H" unicode="H" horiz-adv-x="744" 
d="M107 0v700h43v-329h444v329h43v-700h-43v331h-444v-331h-43z" />
    <glyph glyph-name="I" unicode="I" horiz-adv-x="257" 
d="M107 0v700h43v-700h-43z" />
    <glyph glyph-name="J" unicode="J" horiz-adv-x="509" 
d="M35 191v22h43v-23q0 -69 36.5 -115t106.5 -46q61 0 103 38.5t42 122.5v470h-167v40h210v-509q0 -104 -54.5 -153.5t-132.5 -49.5t-132.5 49.5t-54.5 153.5z" />
    <glyph glyph-name="K" unicode="K" horiz-adv-x="570" 
d="M107 0v700h43v-312h130l200 312h52l-215 -330v-2l229 -368h-52l-214 348h-130v-348h-43z" />
    <glyph glyph-name="L" unicode="L" horiz-adv-x="508" 
d="M107 0v700h43v-660h334v-40h-377z" />
    <glyph glyph-name="M" unicode="M" horiz-adv-x="834" 
d="M80 0l56 700h42l204 -440l34 -79h2q18 45 34 79l204 440h42l56 -700h-43l-43 534l-3 93h-2q-20 -59 -36 -93l-188 -399h-44l-187 399l-37 95h-2q0 -61 -3 -95l-43 -534h-43z" />
    <glyph glyph-name="N" unicode="N" horiz-adv-x="750" 
d="M107 0v700h40l399 -549l57 -88h2q-5 53 -5 88v549h43v-700h-40l-399 549l-57 88h-2q5 -53 5 -88v-549h-43z" />
    <glyph glyph-name="O" unicode="O" horiz-adv-x="826" 
d="M59 355q0 151 102 254t252 103t252 -103t102 -254q0 -155 -102 -261t-252 -106t-252 106t-102 261zM104 355q0 -138 88.5 -232t220.5 -94t220.5 94t88.5 232q0 135 -88.5 225.5t-220.5 90.5t-220.5 -90.5t-88.5 -225.5z" />
    <glyph glyph-name="P" unicode="P" horiz-adv-x="589" 
d="M107 0v700h230q93 0 153 -55.5t60 -148.5q0 -94 -60 -150t-153 -56h-187v-290h-43zM150 330h185q78 0 124 44t46 122t-46 121t-124 43h-185v-330z" />
    <glyph glyph-name="Q" unicode="Q" horiz-adv-x="827" 
d="M60 354q0 152 101.5 255t250.5 103q153 0 254.5 -103t101.5 -255q0 -149 -92 -249l90 -93l-28 -27l-89 92q-98 -89 -237 -89q-150 0 -251 106.5t-101 259.5zM105 354q0 -137 88.5 -231t218.5 -94q122 0 208 78l-90 93l28 27l89 -92q76 92 76 219q0 136 -89 226.5
t-222 90.5q-130 0 -218.5 -91t-88.5 -226z" />
    <glyph glyph-name="R" unicode="R" horiz-adv-x="607" 
d="M107 0v700h205q84 0 126 -21q45 -22 71 -66t26 -102q0 -74 -39 -126.5t-101 -66.5v-2q7 -8 16 -25l157 -291h-51l-166 310h-201v-310h-43zM150 350h190q68 0 109 44.5t41 116.5q0 46 -22 82t-60 53q-31 14 -98 14h-160v-310z" />
    <glyph glyph-name="S" unicode="S" horiz-adv-x="524" 
d="M52 75l29 33q78 -78 184 -78q70 0 114.5 38t44.5 100q0 54 -37 91.5t-89.5 60l-105 46t-89.5 65t-37 101.5q0 81 60.5 130.5t150.5 49.5q109 0 177 -65l-24 -37q-28 28 -70.5 44t-84.5 16q-68 0 -116 -37t-48 -98q0 -51 37 -86.5t89.5 -57t105 -45.5t89.5 -67t37 -106
q0 -81 -55.5 -133t-149.5 -52q-125 0 -212 87z" />
    <glyph glyph-name="T" unicode="T" horiz-adv-x="601" 
d="M279 0v660h-261v40h565v-40h-261v-660h-43z" />
    <glyph glyph-name="U" unicode="U" horiz-adv-x="721" 
d="M99 240v460h43v-458q0 -98 59 -155.5t159 -57.5t159.5 57.5t59.5 157.5v456h43v-460q0 -115 -72.5 -183.5t-188.5 -68.5q-117 0 -189.5 69t-72.5 183z" />
    <glyph glyph-name="V" unicode="V" horiz-adv-x="621" 
d="M287 0l-262 700h46l211 -566l27 -84h2q15 51 27 84l212 566h46l-262 -700h-47z" />
    <glyph glyph-name="W" unicode="W" horiz-adv-x="914" 
d="M225 0l-184 700h45l148 -570l17 -75h2q9 40 19 75l160 570h48l160 -570l19 -75h2q8 41 17 75l153 570h45l-189 -700h-54l-148 528l-27 111h-4q-14 -66 -27 -111l-148 -528h-54z" />
    <glyph glyph-name="X" unicode="X" horiz-adv-x="555" 
d="M21 0l226 370l-201 330h52l134 -223l46 -78h2q22 44 43 78l135 223h52l-203 -330l227 -370h-51l-162 266l-45 75h-2q-21 -41 -42 -76l-160 -265h-51z" />
    <glyph glyph-name="Y" unicode="Y" horiz-adv-x="567" 
d="M262 0v304l-238 396h49l166 -276l43 -79h2q22 45 43 79l166 276h49l-237 -396v-304h-43z" />
    <glyph glyph-name="Z" unicode="Z" horiz-adv-x="565" 
d="M35 0v34l385 562l48 64v2q-16 -2 -51 -2h-361v40h464v-34l-385 -562l-48 -64v-2q16 2 51 2h385v-40h-488z" />
    <glyph glyph-name="bracketleft" unicode="[" horiz-adv-x="265" 
d="M98 -95v820h108v-40h-65v-740h65v-40h-108z" />
    <glyph glyph-name="backslash" unicode="\" horiz-adv-x="389" 
d="M299 -42l-253 782h44l253 -782h-44z" />
    <glyph glyph-name="bracketright" unicode="]" horiz-adv-x="265" 
d="M59 -55h65v740h-65v40h108v-820h-108v40z" />
    <glyph glyph-name="asciicircum" unicode="^" horiz-adv-x="600" 
d="M77 252l197 448h32l197 -448h-46l-167 388l-167 -388h-46z" />
    <glyph glyph-name="underscore" unicode="_" horiz-adv-x="582" 
d="M43 0h496v-40h-496v40z" />
    <glyph glyph-name="grave" unicode="`" horiz-adv-x="509" 
d="M272 750l-79 111h56l67 -111h-44z" />
    <glyph glyph-name="a" unicode="a" horiz-adv-x="508" 
d="M41 133q0 35 13 63t32 45.5t49.5 30.5t55.5 19t60 9.5t54 4t46 0.5h33v17q0 149 -137 149q-80 0 -143 -48l-24 34q29 25 75 40t94 15q87 0 132 -48t45 -141v-323h-42v66l4 45h-2q-20 -52 -66.5 -87.5t-108.5 -35.5q-68 0 -119 37.5t-51 107.5zM85 136q0 -43 34 -76
t94 -33q77 0 124 65.5t47 146.5v27h-32q-31 0 -50.5 -0.5t-56 -4t-60 -12t-49 -22t-38.5 -37t-13 -54.5z" />
    <glyph glyph-name="b" unicode="b" horiz-adv-x="578" 
d="M87 0v700h42v-260l-4 -41h2q23 52 71 82.5t110 30.5q99 0 157.5 -72t58.5 -190t-62.5 -190t-161.5 -72q-56 0 -103 31t-70 82h-2q4 -18 4 -44v-57h-42zM128 249q0 -90 45.5 -155t128.5 -65q76 0 127 59.5t51 161.5q0 100 -48.5 160.5t-125.5 60.5q-76 0 -127 -55.5
t-51 -166.5z" />
    <glyph glyph-name="c" unicode="c" horiz-adv-x="540" 
d="M52 249q0 116 75.5 189.5t182.5 73.5q50 0 98.5 -18t80.5 -53l-26 -34q-27 29 -68.5 46.5t-84.5 17.5q-90 0 -152 -61.5t-62 -160.5q0 -98 62 -159t152 -61q47 0 92 19t75 53l22 -35q-32 -36 -82.5 -57t-106.5 -21q-109 0 -183.5 72.5t-74.5 188.5z" />
    <glyph glyph-name="d" unicode="d" horiz-adv-x="578" 
d="M54 250q0 118 62.5 190t161.5 72q57 0 103 -31t70 -82h2q-4 18 -4 41v260h42v-700h-42v63l4 38h-2q-22 -49 -68.5 -81t-112.5 -32q-99 0 -157.5 72t-58.5 190zM98 250q0 -100 48.5 -160.5t125.5 -60.5q76 0 127 55.5t51 166.5q0 90 -45.5 155t-128.5 65q-76 0 -127 -59.5
t-51 -161.5z" />
    <glyph glyph-name="e" unicode="e" horiz-adv-x="549" 
d="M52 249q0 122 71 192.5t172 70.5q97 0 150.5 -65.5t53.5 -162.5q0 -9 -2 -27h-401q0 -105 61.5 -166.5t152.5 -61.5q92 0 155 63l23 -35q-33 -31 -81.5 -50t-96.5 -19q-109 0 -183.5 72.5t-74.5 188.5zM99 296h356q-4 87 -49 132t-112 45q-73 0 -127.5 -46.5
t-67.5 -130.5z" />
    <glyph glyph-name="f" unicode="f" horiz-adv-x="307" 
d="M102 0v459h-63v38h63v23q0 58 17 98t44.5 57t50 23.5t46.5 6.5q10 0 26 -2v-39q-8 2 -23 2q-19 0 -36 -5t-37.5 -18.5t-33 -45t-12.5 -76.5v-24h137v-38h-137v-459h-42z" />
    <glyph glyph-name="g" unicode="g" horiz-adv-x="571" 
d="M118 -134q65 -35 134 -35q85 0 137.5 42.5t52.5 129.5v58l4 41h-2q-50 -102 -168 -102q-98 0 -160 71t-62 187q0 117 58.5 185.5t156.5 68.5q58 0 105.5 -24.5t68.5 -73.5h2q-3 7 -3 19v67h42v-497q0 -108 -65.5 -160.5t-163.5 -52.5q-81 0 -157 39zM98 258
q0 -100 50 -158.5t131 -58.5q73 0 118.5 51.5t45.5 165.5q0 213 -174 213q-81 0 -126 -56t-45 -157z" />
    <glyph glyph-name="h" unicode="h" horiz-adv-x="586" 
d="M87 0v700h42v-288l-4 -41h2q17 48 73 94.5t139 46.5q92 0 128.5 -49.5t36.5 -145.5v-317h-42v302q0 30 -2 51.5t-9 45t-20 38.5t-36.5 24.5t-55.5 9.5q-87 0 -148.5 -64t-61.5 -161v-246h-42z" />
    <glyph glyph-name="i" unicode="i" horiz-adv-x="216" 
d="M83 627v73h50v-73h-50zM87 0v500h42v-500h-42z" />
    <glyph glyph-name="j" unicode="j" horiz-adv-x="216" 
d="M83 627v73h50v-73h-50zM87 -21v521h42v-520q0 -58 -17 -98t-44.5 -57.5t-50.5 -23.5t-47 -6q-7 0 -25 2v39q6 -2 22 -2q19 0 36.5 5t38 18.5t33 45t12.5 76.5z" />
    <glyph glyph-name="k" unicode="k" horiz-adv-x="473" 
d="M87 0v700h42v-397h89l162 197h55l-181 -215v-2l198 -283h-53l-181 264h-89v-264h-42z" />
    <glyph glyph-name="l" unicode="l" horiz-adv-x="227" 
d="M87 101v599h42v-586q0 -78 59 -78q9 0 15 1v-39q-8 -2 -18 -2q-14 0 -28 3.5t-31.5 13.5t-28 32.5t-10.5 55.5z" />
    <glyph glyph-name="m" unicode="m" horiz-adv-x="918" 
d="M87 0v500h42v-88l-4 -41h2q19 56 76.5 98.5t115.5 42.5q74 0 112 -34t46 -102h2q22 55 75 95.5t115 40.5q92 0 129.5 -49.5t37.5 -145.5v-317h-42v302q0 82 -26 126.5t-99 44.5q-78 0 -132 -69t-54 -155v-249h-42v302q0 30 -2 51.5t-9.5 45.5t-20 39t-35.5 25t-55 10
q-79 0 -134.5 -69t-55.5 -155v-249h-42z" />
    <glyph glyph-name="n" unicode="n" horiz-adv-x="586" 
d="M87 0v500h42v-88l-4 -41h2q17 48 73 94.5t139 46.5q92 0 128.5 -49.5t36.5 -145.5v-317h-42v302q0 30 -2 51.5t-9 45t-20 38.5t-36.5 24.5t-55.5 9.5q-87 0 -148.5 -63.5t-61.5 -158.5v-249h-42z" />
    <glyph glyph-name="o" unicode="o" horiz-adv-x="620" 
d="M51 253q0 109 75.5 184t183.5 75t183.5 -75t75.5 -184q0 -111 -75.5 -188t-183.5 -77t-183.5 77t-75.5 188zM95 253q0 -95 62.5 -159.5t152.5 -64.5t152.5 64.5t62.5 159.5q0 92 -62.5 155t-152.5 63t-152.5 -63t-62.5 -155z" />
    <glyph glyph-name="p" unicode="p" horiz-adv-x="578" 
d="M87 -200v700h42v-60l-3 -40h2q22 52 70 82t110 30q99 0 157.5 -72t58.5 -190t-62 -190t-160 -72q-57 0 -104 30t-71 83h-2q4 -18 4 -44v-257h-42zM128 249q0 -89 47 -154.5t127 -65.5q76 0 127 59.5t51 161.5q0 100 -48.5 160.5t-125.5 60.5q-76 0 -127 -55.5t-51 -166.5
z" />
    <glyph glyph-name="q" unicode="q" horiz-adv-x="578" 
d="M54 250q0 118 62.5 190t161.5 72q57 0 103 -30.5t69 -81.5h2q-3 17 -3 40v60h42v-700h-42v257l4 44h-2q-21 -46 -66 -79.5t-115 -33.5q-99 0 -157.5 72t-58.5 190zM98 250q0 -100 48.5 -160.5t125.5 -60.5q76 0 127 55.5t51 166.5q0 90 -45.5 155t-128.5 65
q-76 0 -127 -59.5t-51 -161.5z" />
    <glyph glyph-name="r" unicode="r" horiz-adv-x="340" 
d="M87 0v500h42v-95l-4 -41h2q20 61 62 100.5t98 39.5q15 0 29 -3v-42q-6 2 -23 2q-55 0 -94 -41t-54.5 -94.5t-15.5 -109.5v-216h-42z" />
    <glyph glyph-name="s" unicode="s" horiz-adv-x="430" 
d="M41 60l27 32q60 -63 155 -63q49 0 82 25t33 69q0 35 -28.5 59t-69 39t-80.5 32t-68.5 48t-28.5 76q0 64 46 99.5t114 35.5q95 0 148 -54l-25 -34q-44 47 -126 47q-47 0 -80 -22.5t-33 -68.5q0 -36 28.5 -60t69 -39.5l80.5 -32t68.5 -48t28.5 -77.5q0 -60 -45 -97.5
t-115 -37.5q-115 0 -181 72z" />
    <glyph glyph-name="t" unicode="t" horiz-adv-x="304" 
d="M102 181v278h-66v38h66v142h42v-142h131v-38h-131v-275q0 -46 12.5 -78t32.5 -46.5t37.5 -19.5t36.5 -5q15 0 23 2v-39q-8 -2 -25 -2q-19 0 -37 3t-41 14.5t-40 30.5t-29 54.5t-12 82.5z" />
    <glyph glyph-name="u" unicode="u" horiz-adv-x="580" 
d="M81 183v317h42v-302q0 -30 2 -51.5t9 -45t20 -38.5t36.5 -24.5t55.5 -9.5q90 0 147.5 67.5t57.5 159.5v244h42v-500h-42v88l4 41h-2q-17 -48 -72 -94.5t-135 -46.5q-89 0 -127 48t-38 147z" />
    <glyph glyph-name="v" unicode="v" horiz-adv-x="496" 
d="M228 0l-197 500h45l154 -392l17 -54h2q8 30 17 54l154 392h44l-196 -500h-40z" />
    <glyph glyph-name="w" unicode="w" horiz-adv-x="823" 
d="M210 0l-176 500h45l136 -392l17 -54h2q9 30 17 54l137 390h47l137 -390l17 -54h2q8 29 17 54l136 392h45l-176 -500h-45l-139 388l-17 54h-2q-8 -30 -17 -54l-138 -388h-45z" />
    <glyph glyph-name="x" unicode="x" horiz-adv-x="462" 
d="M22 0l180 264l-161 236h51l121 -182l17 -28h2l17 28l121 182h51l-161 -236l180 -264h-52l-138 207l-18 29h-2q-8 -14 -18 -29l-138 -207h-52z" />
    <glyph glyph-name="y" unicode="y" horiz-adv-x="517" 
d="M41 -146q28 -24 62 -24q60 0 98 90l36 83l-207 497h45l165 -399l18 -47h2q7 23 17 47l165 399h45l-257 -617q-39 -93 -127 -93q-21 0 -41.5 7t-29.5 14l-10 7z" />
    <glyph glyph-name="z" unicode="z" horiz-adv-x="487" 
d="M38 0v34l303 381l39 46v2q-18 -2 -51 -2h-278v39h386v-34l-304 -381l-40 -46v-2q19 2 52 2h303v-39h-410z" />
    <glyph glyph-name="braceleft" unicode="{" horiz-adv-x="326" 
d="M132 88v94q0 46 -21.5 78t-63.5 41v40q41 9 63 40.5t22 78.5v81q0 59 16 99.5t41 56.5t43 21.5t36 5.5h9v-39h-6q-13 0 -25.5 -4t-30.5 -17t-29 -44.5t-11 -77.5v-93q0 -42 -20.5 -76t-58.5 -51v-2q79 -32 79 -127v-106q0 -46 11 -77.5t29 -44.5t30.5 -17t25.5 -4h6v-39
q-3 -1 -9 -1q-13 0 -26.5 2.5t-34.5 13.5t-36.5 29t-27 54.5t-11.5 84.5z" />
    <glyph glyph-name="bar" unicode="|" horiz-adv-x="235" 
d="M96 -155v940h43v-940h-43z" />
    <glyph glyph-name="braceright" unicode="}" horiz-adv-x="326" 
d="M49 -56h6q13 0 25.5 4t30.5 17t29 44.5t11 77.5v106q0 95 79 127v2q-34 14 -56.5 48t-22.5 79v93q0 46 -11 77.5t-29 44.5t-30.5 17t-25.5 4h-6v39h9q18 0 36 -5.5t43 -21.5t41 -56.5t16 -99.5v-81q0 -46 22 -78t63 -41v-40q-41 -8 -63 -40.5t-22 -78.5v-94
q0 -48 -11.5 -84.5t-27 -54.5t-36.5 -29t-34.5 -13.5t-26.5 -2.5l-9 1v39z" />
    <glyph glyph-name="asciitilde" unicode="~" horiz-adv-x="593" 
d="M79 213q0 74 31.5 109t83.5 35q31 0 55.5 -11.5t40 -27.5l30 -32t35 -27.5t45.5 -11.5q31 0 49 21t22 41.5t4 43.5h40q0 -74 -31.5 -109t-83.5 -35q-31 0 -55.5 11.5t-40 27.5l-30 32t-35 27.5t-45.5 11.5q-31 0 -49 -21t-22 -41.5t-4 -43.5h-40z" />
    <glyph glyph-name="uni00A0" unicode="&#xa0;" horiz-adv-x="250" 
 />
    <glyph glyph-name="exclamdown" unicode="&#xa1;" horiz-adv-x="227" 
d="M135 325v-525h-43v525h43zM142 500v-61h-59v61h59z" />
    <glyph glyph-name="cent" unicode="&#xa2;" horiz-adv-x="560" 
d="M269 -13v84q-102 9 -155.5 86.5t-53.5 192.5t53.5 192.5t155.5 86.5v83h43v-83q122 -11 185 -142l-41 -16q-55 116 -163 116q-95 0 -141.5 -66t-46.5 -171t46.5 -171t141.5 -66q108 0 163 116l41 -16q-64 -132 -185 -142v-84h-43z" />
    <glyph glyph-name="sterling" unicode="&#xa3;" horiz-adv-x="560" 
d="M50 0v40h65v293h-45v40h45v162q0 75 56 126t141 51q83 0 147 -51l-29 -33q-50 42 -119 42q-72 0 -112.5 -40t-40.5 -99v-158h198v-40h-198v-293h351v-40h-459z" />
    <glyph glyph-name="currency" unicode="&#xa4;" horiz-adv-x="585" 
d="M133 0v190h-74v40h74v80h-74v40h74v350h197q93 0 153 -52.5t60 -141.5t-60 -142.5t-153 -53.5h-154v-80h255v-40h-255v-190h-43zM176 350h152q78 0 124 41.5t46 114.5t-46 113.5t-124 40.5h-152v-310z" />
    <glyph glyph-name="yen" unicode="&#xa5;" horiz-adv-x="560" 
d="M96 222v40h163v42l-29 48h-134v40h110l-185 308h49l166 -276l43 -79h2q22 45 43 79l166 276h49l-185 -308h108v-40h-132l-28 -48v-42h160v-40h-160v-222h-43v222h-163z" />
    <glyph glyph-name="section" unicode="&#xa7;" horiz-adv-x="387" 
d="M142 62l-67 474q-2 16 -2 25q0 65 44.5 108t113.5 43q52 0 93 -33l-26 -32q-31 24 -68 24q-48 0 -80.5 -31t-32.5 -82q0 -7 2 -21l65 -475h-42zM63 -29l26 32q30 -24 68 -24q48 0 80 31t32 82q0 14 -1 21l-65 475h42l67 -474q2 -18 2 -25q0 -65 -45 -108t-113 -43
q-48 0 -93 33z" />
    <glyph glyph-name="dieresis" unicode="&#xa8;" horiz-adv-x="509" 
d="M300 788v73h46v-73h-46zM163 788v73h46v-73h-46z" />
    <glyph glyph-name="copyright" unicode="&#xa9;" horiz-adv-x="835" 
d="M64 350q0 151 103 256.5t249 105.5q149 0 252.5 -105.5t103.5 -256.5q0 -152 -103.5 -257t-252.5 -105q-147 0 -249.5 105t-102.5 257zM109 350q0 -136 88.5 -228t218.5 -92q132 0 221.5 92t89.5 228q0 135 -89.5 227.5t-221.5 92.5q-130 0 -218.5 -92.5t-88.5 -227.5z
M213 349q0 85 57 148t158 63q47 0 91 -24t72 -64l-33 -29q-21 32 -56 53t-73 21q-81 0 -126 -49.5t-45 -117.5t45 -117.5t126 -49.5q38 0 72.5 20.5t56.5 53.5l33 -29q-25 -38 -70.5 -63t-92.5 -25q-101 0 -158 62t-57 147z" />
    <glyph glyph-name="ordfeminine" unicode="&#xaa;" horiz-adv-x="423" 
d="M197 382q-45 0 -78 24t-33 69q0 111 194 111h14v4q0 83 -76 83q-45 0 -86 -29l-22 30q45 36 109 36q114 0 114 -120v-202h-39v51h-2q-12 -23 -37.5 -40t-57.5 -17zM198 419q43 0 69.5 37.5t26.5 83.5v10h-13q-154 0 -154 -71q0 -25 18.5 -42.5t52.5 -17.5zM83 263v37h253
v-37h-253z" />
    <glyph glyph-name="guillemotleft" unicode="&#xab;" horiz-adv-x="494" 
d="M215 282l164 206h53l-164 -206l164 -205h-53zM219 77l-164 205l164 206h53l-164 -206l164 -205h-53z" />
    <glyph glyph-name="logicalnot" unicode="&#xac;" horiz-adv-x="629" 
d="M90 343v40h456v-219h-42v179h-414z" />
    <glyph glyph-name="uni00AD" unicode="&#xad;" horiz-adv-x="432" 
d="M78 263v40h276v-40h-276z" />
    <glyph glyph-name="registered" unicode="&#xae;" horiz-adv-x="835" 
d="M64 350q0 151 103 256.5t249 105.5q149 0 252.5 -105.5t103.5 -256.5q0 -152 -103.5 -257t-252.5 -105q-147 0 -249.5 105t-102.5 257zM109 350q0 -136 88.5 -228t218.5 -92q132 0 221.5 92t89.5 228q0 135 -89.5 227.5t-221.5 92.5q-130 0 -218.5 -92.5t-88.5 -227.5z
M300 150v400h133q51 0 83.5 -32t32.5 -84q0 -42 -22 -70.5t-55 -36.5v-2q4 -5 13 -22l79 -153h-49l-85 167h-86v-167h-44zM344 355h84q35 0 55.5 21t20.5 58q0 36 -20.5 56t-55.5 20h-84v-155z" />
    <glyph glyph-name="macron" unicode="&#xaf;" horiz-adv-x="509" 
d="M135 786v40h239v-40h-239z" />
    <glyph glyph-name="degree" unicode="&#xb0;" horiz-adv-x="388" 
d="M194 449q-54 0 -92 38t-38 92t38 92.5t92 38.5t92.5 -38.5t38.5 -92.5t-38.5 -92t-92.5 -38zM194 489q37 0 62.5 26t25.5 64t-25.5 64.5t-62.5 26.5t-62 -26.5t-25 -64.5t25 -64t62 -26z" />
    <glyph glyph-name="plusminus" unicode="&#xb1;" horiz-adv-x="560" 
d="M22 263v40h237v263h43v-263h236v-40h-236v-263h-43v263h-237zM42 -113h476v-40h-476v40z" />
    <glyph glyph-name="twosuperior" unicode="&#xb2;" 
d="M54 423q-2 18 -2 27q0 38 16.5 69.5t41 51.5t53 40.5l53 37.5t41 41.5t16.5 53.5q0 36 -25.5 61.5t-65.5 25.5q-53 0 -94 -50l-24 26q18 25 50.5 42.5t67.5 17.5q62 0 96 -35.5t34 -87.5q0 -41 -22.5 -73.5t-54.5 -54.5l-64.5 -42.5t-55.5 -49.5t-24 -65h229v-36h-266z
" />
    <glyph glyph-name="threesuperior" unicode="&#xb3;" 
d="M179 413q-40 0 -77.5 16.5t-60.5 48.5l28 26q15 -22 45 -38.5t66 -16.5q39 0 71 29.5t32 71.5q0 43 -32.5 69.5t-74.5 26.5h-32l-11 24l108 127l25 25v2q-18 -3 -38 -3h-164v36h255v-26l-128 -150q51 -4 91 -35t40 -96q0 -57 -42.5 -97t-100.5 -40z" />
    <glyph glyph-name="acute" unicode="&#xb4;" horiz-adv-x="509" 
d="M193 750l67 111h56l-79 -111h-44z" />
    <glyph glyph-name="mu" unicode="&#xb5;" horiz-adv-x="578" 
d="M130 39q6 -51 6 -72v-167h-42v700h42v-302q0 -38 4 -63.5t15.5 -52t37 -40t65.5 -13.5q92 0 149 67.5t57 159.5v244h42v-500h-42v83l2 41h-2q-2 -6 -6.5 -15t-21.5 -32.5t-38.5 -41.5t-59 -32.5t-81.5 -14.5q-90 0 -125 51h-2z" />
    <glyph glyph-name="mu" unicode="&#x3bc;" horiz-adv-x="578" 
d="M130 39q6 -51 6 -72v-167h-42v700h42v-302q0 -38 4 -63.5t15.5 -52t37 -40t65.5 -13.5q92 0 149 67.5t57 159.5v244h42v-500h-42v83l2 41h-2q-2 -6 -6.5 -15t-21.5 -32.5t-38.5 -41.5t-59 -32.5t-81.5 -14.5q-90 0 -125 51h-2z" />
    <glyph glyph-name="paragraph" unicode="&#xb6;" horiz-adv-x="543" 
d="M282 -50v291q-98 0 -169 67t-71 163t70.5 162.5t168.5 66.5h210v-40h-167v-710h-42zM386 -50v647h42v-647h-42z" />
    <glyph glyph-name="periodcentered" unicode="&#xb7;" horiz-adv-x="217" 
d="M78 255v63h61v-63h-61z" />
    <glyph glyph-name="cedilla" unicode="&#xb8;" horiz-adv-x="509" 
d="M209 -93l24 111l32 -5v-8l-12 -65q31 -5 50 -23t19 -45q0 -39 -26 -57.5t-65 -18.5q-25 0 -44 4v38q17 -5 41 -5q54 0 54 37q0 38 -61 38z" />
    <glyph glyph-name="onesuperior" unicode="&#xb9;" 
d="M83 423v36h96v325l1 22h-1q-4 -8 -23 -27l-44 -43l-26 27l93 94h38v-398h93v-36h-227z" />
    <glyph glyph-name="ordmasculine" unicode="&#xba;" horiz-adv-x="488" 
d="M243 383q-68 0 -115.5 48t-47.5 118q0 68 47.5 115t115.5 47t115.5 -47t47.5 -115q0 -70 -47.5 -118t-115.5 -48zM243 420q52 0 88 37t36 92q0 54 -36 89.5t-88 35.5t-88 -35.5t-36 -89.5q0 -55 36 -92t88 -37zM98 263v37h294v-37h-294z" />
    <glyph glyph-name="guillemotright" unicode="&#xbb;" horiz-adv-x="494" 
d="M222 77l164 205l-164 206h53l164 -206l-164 -205h-53zM62 77l164 205l-164 206h53l164 -206l-164 -205h-53z" />
    <glyph glyph-name="onequarter" unicode="&#xbc;" horiz-adv-x="911" 
d="M761 0v121h-215v26l222 287h31v-277h68v-36h-68v-121h-38zM601 157h160v147l3 65h-2q-17 -27 -35 -50l-126 -160v-2zM63 266v36h96v325l1 22h-1q-4 -8 -23 -27l-44 -43l-26 27l93 94h38v-398h93v-36h-227zM295 0h-44l336 700h43z" />
    <glyph glyph-name="onehalf" unicode="&#xbd;" horiz-adv-x="899" 
d="M295 0h-44l336 700h43zM63 266v36h96v325l1 22h-1q-4 -8 -23 -27l-44 -43l-26 27l93 94h38v-398h93v-36h-227zM576 0q-2 18 -2 27q0 38 16.5 69.5t41 51.5t53 40.5l53 37.5t41 41.5t16.5 53.5q0 36 -25.5 61.5t-65.5 25.5q-53 0 -94 -50l-24 26q18 25 50.5 42.5
t67.5 17.5q62 0 96 -35.5t34 -87.5q0 -41 -22.5 -73.5t-54.5 -54.5l-64.5 -42.5t-55.5 -49.5t-24 -65h229v-36h-266z" />
    <glyph glyph-name="threequarters" unicode="&#xbe;" horiz-adv-x="934" 
d="M189 256q-40 0 -77.5 16.5t-60.5 48.5l28 26q15 -22 45 -38.5t66 -16.5q39 0 71 29.5t32 71.5q0 43 -32.5 69.5t-74.5 26.5h-32l-11 24l108 127l25 25v2q-18 -3 -38 -3h-164v36h255v-26l-128 -150q51 -4 91 -35t40 -96q0 -57 -42.5 -97t-100.5 -40zM318 0h-44l336 700h43
zM784 0v121h-215v26l222 287h31v-277h68v-36h-68v-121h-38zM624 157h160v147l3 65h-2q-17 -27 -35 -50l-126 -160v-2z" />
    <glyph glyph-name="questiondown" unicode="&#xbf;" horiz-adv-x="425" 
d="M267 325v-44q0 -45 -18.5 -81.5t-44.5 -61.5l-52.5 -49.5t-45 -57t-18.5 -72.5q0 -55 41 -92t105 -37q70 0 127 42l23 -34q-27 -22 -68 -36t-81 -14q-85 0 -138.5 49t-53.5 123q0 39 13.5 71.5t33.5 53.5l43.5 44l43.5 42t33.5 48t13.5 62v44h43zM275 500v-61h-59v61h59z
" />
    <glyph glyph-name="Agrave" unicode="&#xc0;" horiz-adv-x="624" 
d="M27 0l262 700h46l262 -700h-46l-91 242h-297l-90 -242h-46zM178 282h267l-106 284l-26 84h-2q-15 -54 -26 -84zM290 750l-79 111h56l67 -111h-44z" />
    <glyph glyph-name="Aacute" unicode="&#xc1;" horiz-adv-x="624" 
d="M27 0l262 700h46l262 -700h-46l-91 242h-297l-90 -242h-46zM178 282h267l-106 284l-26 84h-2q-15 -54 -26 -84zM289 750l67 111h56l-79 -111h-44z" />
    <glyph glyph-name="Acircumflex" unicode="&#xc2;" horiz-adv-x="624" 
d="M27 0l262 700h46l262 -700h-46l-91 242h-297l-90 -242h-46zM178 282h267l-106 284l-26 84h-2q-15 -54 -26 -84zM206 750l80 111h52l80 -111h-49l-56 80h-2l-56 -80h-49z" />
    <glyph glyph-name="Atilde" unicode="&#xc3;" horiz-adv-x="624" 
d="M27 0l262 700h46l262 -700h-46l-91 242h-297l-90 -242h-46zM178 282h267l-106 284l-26 84h-2q-15 -54 -26 -84zM168 753q0 108 83 108q23 0 41.5 -11.5t29 -25.5t25.5 -25.5t30 -11.5q40 0 40 71h40q0 -108 -83 -108q-23 0 -41.5 11.5t-29 25.5t-25.5 25.5t-30 11.5
q-40 0 -40 -71h-40z" />
    <glyph glyph-name="Adieresis" unicode="&#xc4;" horiz-adv-x="624" 
d="M27 0l262 700h46l262 -700h-46l-91 242h-297l-90 -242h-46zM178 282h267l-106 284l-26 84h-2q-15 -54 -26 -84zM358 788v73h46v-73h-46zM221 788v73h46v-73h-46z" />
    <glyph glyph-name="Aring" unicode="&#xc5;" horiz-adv-x="624" 
d="M27 0l262 700h46l262 -700h-46l-91 242h-297l-90 -242h-46zM178 282h267l-106 284l-26 84h-2q-15 -54 -26 -84zM312 740q-28 0 -47.5 19t-19.5 48t19.5 48t47.5 19t47.5 -19t19.5 -48t-19.5 -48t-47.5 -19zM312 775q14 0 23 9t9 23q0 15 -9 24t-23 9t-23 -9t-9 -24
q0 -14 9 -23t23 -9z" />
    <glyph glyph-name="AE" unicode="&#xc6;" horiz-adv-x="825" 
d="M23 0l287 700h449v-40h-340v-287h279v-40h-279v-293h359v-40h-402v333h-171l-136 -333h-46zM222 373h154v287h-36z" />
    <glyph glyph-name="Ccedilla" unicode="&#xc7;" horiz-adv-x="720" 
d="M366 -93l17 82q-143 10 -232.5 114t-89.5 252q0 153 98 255t249 102q156 0 250 -88l-26 -32q-42 37 -102 58t-121 21q-133 0 -218 -89.5t-85 -226.5q0 -139 85.5 -232.5t220.5 -93.5q140 0 237 95l27 -30q-107 -103 -257 -106l-9 -48q31 -5 50 -23t19 -45
q0 -39 -26 -57.5t-65 -18.5q-25 0 -44 4v38q17 -5 41 -5q54 0 54 37q0 38 -61 38z" />
    <glyph glyph-name="Egrave" unicode="&#xc8;" horiz-adv-x="556" 
d="M107 0v700h383v-40h-340v-287h279v-40h-279v-293h359v-40h-402zM289 750l-79 111h56l67 -111h-44z" />
    <glyph glyph-name="Eacute" unicode="&#xc9;" horiz-adv-x="556" 
d="M107 0v700h383v-40h-340v-287h279v-40h-279v-293h359v-40h-402zM288 750l67 111h56l-79 -111h-44z" />
    <glyph glyph-name="Ecircumflex" unicode="&#xca;" horiz-adv-x="556" 
d="M107 0v700h383v-40h-340v-287h279v-40h-279v-293h359v-40h-402zM205 750l80 111h52l80 -111h-49l-56 80h-2l-56 -80h-49z" />
    <glyph glyph-name="Edieresis" unicode="&#xcb;" horiz-adv-x="556" 
d="M107 0v700h383v-40h-340v-287h279v-40h-279v-293h359v-40h-402zM357 788v73h46v-73h-46zM220 788v73h46v-73h-46z" />
    <glyph glyph-name="Igrave" unicode="&#xcc;" horiz-adv-x="257" 
d="M107 0v700h43v-700h-43zM107 750l-79 111h56l67 -111h-44z" />
    <glyph glyph-name="Iacute" unicode="&#xcd;" horiz-adv-x="257" 
d="M107 0v700h43v-700h-43zM106 750l67 111h56l-79 -111h-44z" />
    <glyph glyph-name="Icircumflex" unicode="&#xce;" horiz-adv-x="257" 
d="M107 0v700h43v-700h-43zM23 750l80 111h52l80 -111h-49l-56 80h-2l-56 -80h-49z" />
    <glyph glyph-name="Idieresis" unicode="&#xcf;" horiz-adv-x="257" 
d="M107 0v700h43v-700h-43zM175 788v73h46v-73h-46zM38 788v73h46v-73h-46z" />
    <glyph glyph-name="Eth" unicode="&#xd0;" horiz-adv-x="744" 
d="M113 0v333h-60v40h60v327h220q158 0 253.5 -93t95.5 -257q0 -165 -95 -257.5t-254 -92.5h-220zM156 40h170q142 0 226.5 81t84.5 229q0 147 -84.5 228.5t-226.5 81.5h-170v-287h183v-40h-183v-293z" />
    <glyph glyph-name="Ntilde" unicode="&#xd1;" horiz-adv-x="750" 
d="M107 0v700h40l399 -549l57 -88h2q-5 53 -5 88v549h43v-700h-40l-399 549l-57 88h-2q5 -53 5 -88v-549h-43zM231 753q0 108 83 108q23 0 41.5 -11.5t29 -25.5t25.5 -25.5t30 -11.5q40 0 40 71h40q0 -108 -83 -108q-23 0 -41.5 11.5t-29 25.5t-25.5 25.5t-30 11.5
q-40 0 -40 -71h-40z" />
    <glyph glyph-name="Ograve" unicode="&#xd2;" horiz-adv-x="826" 
d="M59 355q0 151 102 254t252 103t252 -103t102 -254q0 -155 -102 -261t-252 -106t-252 106t-102 261zM104 355q0 -138 88.5 -232t220.5 -94t220.5 94t88.5 232q0 135 -88.5 225.5t-220.5 90.5t-220.5 -90.5t-88.5 -225.5zM391 750l-79 111h56l67 -111h-44z" />
    <glyph glyph-name="Oacute" unicode="&#xd3;" horiz-adv-x="826" 
d="M59 355q0 151 102 254t252 103t252 -103t102 -254q0 -155 -102 -261t-252 -106t-252 106t-102 261zM104 355q0 -138 88.5 -232t220.5 -94t220.5 94t88.5 232q0 135 -88.5 225.5t-220.5 90.5t-220.5 -90.5t-88.5 -225.5zM390 750l67 111h56l-79 -111h-44z" />
    <glyph glyph-name="Ocircumflex" unicode="&#xd4;" horiz-adv-x="826" 
d="M59 355q0 151 102 254t252 103t252 -103t102 -254q0 -155 -102 -261t-252 -106t-252 106t-102 261zM104 355q0 -138 88.5 -232t220.5 -94t220.5 94t88.5 232q0 135 -88.5 225.5t-220.5 90.5t-220.5 -90.5t-88.5 -225.5zM307 750l80 111h52l80 -111h-49l-56 80h-2l-56 -80
h-49z" />
    <glyph glyph-name="Otilde" unicode="&#xd5;" horiz-adv-x="826" 
d="M59 355q0 151 102 254t252 103t252 -103t102 -254q0 -155 -102 -261t-252 -106t-252 106t-102 261zM104 355q0 -138 88.5 -232t220.5 -94t220.5 94t88.5 232q0 135 -88.5 225.5t-220.5 90.5t-220.5 -90.5t-88.5 -225.5zM269 753q0 108 83 108q23 0 41.5 -11.5t29 -25.5
t25.5 -25.5t30 -11.5q40 0 40 71h40q0 -108 -83 -108q-23 0 -41.5 11.5t-29 25.5t-25.5 25.5t-30 11.5q-40 0 -40 -71h-40z" />
    <glyph glyph-name="Odieresis" unicode="&#xd6;" horiz-adv-x="826" 
d="M59 355q0 151 102 254t252 103t252 -103t102 -254q0 -155 -102 -261t-252 -106t-252 106t-102 261zM104 355q0 -138 88.5 -232t220.5 -94t220.5 94t88.5 232q0 135 -88.5 225.5t-220.5 90.5t-220.5 -90.5t-88.5 -225.5zM459 788v73h46v-73h-46zM322 788v73h46v-73h-46z
" />
    <glyph glyph-name="multiply" unicode="&#xd7;" horiz-adv-x="560" 
d="M28 28l224 255l-224 255l30 28l222 -252l222 252l30 -28l-225 -255l225 -255l-30 -28l-222 252l-222 -252z" />
    <glyph glyph-name="Oslash" unicode="&#xd8;" horiz-adv-x="825" 
d="M137 1l50 70q-60 51 -94 125t-34 158q0 151 103.5 254.5t250.5 103.5q103 0 192 -57l49 69l34 -25l-49 -69q128 -107 128 -276q0 -153 -103.5 -259.5t-250.5 -106.5q-104 0 -192 58l-49 -69zM212 106l368 515q-75 50 -167 50q-129 0 -219 -91.5t-90 -225.5q0 -74 29 -139
t79 -109zM245 80q74 -51 167 -51q129 0 219.5 94t90.5 230q0 150 -108 243z" />
    <glyph glyph-name="Ugrave" unicode="&#xd9;" horiz-adv-x="721" 
d="M99 240v460h43v-458q0 -98 59 -155.5t159 -57.5t159.5 57.5t59.5 157.5v456h43v-460q0 -115 -72.5 -183.5t-188.5 -68.5q-117 0 -189.5 69t-72.5 183zM338 750l-79 111h56l67 -111h-44z" />
    <glyph glyph-name="Uacute" unicode="&#xda;" horiz-adv-x="721" 
d="M99 240v460h43v-458q0 -98 59 -155.5t159 -57.5t159.5 57.5t59.5 157.5v456h43v-460q0 -115 -72.5 -183.5t-188.5 -68.5q-117 0 -189.5 69t-72.5 183zM337 750l67 111h56l-79 -111h-44z" />
    <glyph glyph-name="Ucircumflex" unicode="&#xdb;" horiz-adv-x="721" 
d="M99 240v460h43v-458q0 -98 59 -155.5t159 -57.5t159.5 57.5t59.5 157.5v456h43v-460q0 -115 -72.5 -183.5t-188.5 -68.5q-117 0 -189.5 69t-72.5 183zM254 750l80 111h52l80 -111h-49l-56 80h-2l-56 -80h-49z" />
    <glyph glyph-name="Udieresis" unicode="&#xdc;" horiz-adv-x="721" 
d="M99 240v460h43v-458q0 -98 59 -155.5t159 -57.5t159.5 57.5t59.5 157.5v456h43v-460q0 -115 -72.5 -183.5t-188.5 -68.5q-117 0 -189.5 69t-72.5 183zM406 788v73h46v-73h-46zM269 788v73h46v-73h-46z" />
    <glyph glyph-name="Yacute" unicode="&#xdd;" horiz-adv-x="567" 
d="M262 0v304l-238 396h49l166 -276l43 -79h2q22 45 43 79l166 276h49l-237 -396v-304h-43zM260 750l67 111h56l-79 -111h-44z" />
    <glyph glyph-name="Thorn" unicode="&#xde;" horiz-adv-x="593" 
d="M107 0v700h43v-130h187q93 0 153 -55.5t60 -148.5q0 -94 -60 -150t-155 -56h-185v-160h-43zM150 200h185q78 0 124 44t46 122t-46 121t-124 43h-185v-330z" />
    <glyph glyph-name="germandbls" unicode="&#xdf;" horiz-adv-x="562" 
d="M87 0v532q0 83 56.5 131.5t131.5 48.5q74 0 117.5 -41.5t43.5 -96.5q0 -37 -19 -69t-41.5 -50.5t-41.5 -42t-19 -44.5q0 -24 33 -50.5t72.5 -49t72.5 -60t33 -80.5q0 -65 -45 -100t-109 -35q-92 0 -154 35v46q65 -40 155 -40q46 0 77.5 24t31.5 70q0 29 -21.5 55
t-53 45.5l-62.5 39t-52.5 44.5t-21.5 54q0 30 19 58t41.5 46.5t41.5 46.5t19 57q0 38 -31.5 67.5t-87.5 29.5q-57 0 -100.5 -38.5t-43.5 -103.5v-529h-42z" />
    <glyph glyph-name="agrave" unicode="&#xe0;" horiz-adv-x="508" 
d="M41 133q0 35 13 63t32 45.5t49.5 30.5t55.5 19t60 9.5t54 4t46 0.5h33v17q0 149 -137 149q-80 0 -143 -48l-24 34q29 25 75 40t94 15q87 0 132 -48t45 -141v-323h-42v66l4 45h-2q-20 -52 -66.5 -87.5t-108.5 -35.5q-68 0 -119 37.5t-51 107.5zM85 136q0 -43 34 -76
t94 -33q77 0 124 65.5t47 146.5v27h-32q-31 0 -50.5 -0.5t-56 -4t-60 -12t-49 -22t-38.5 -37t-13 -54.5zM227 589l-79 111h56l67 -111h-44z" />
    <glyph glyph-name="aacute" unicode="&#xe1;" horiz-adv-x="508" 
d="M41 133q0 35 13 63t32 45.5t49.5 30.5t55.5 19t60 9.5t54 4t46 0.5h33v17q0 149 -137 149q-80 0 -143 -48l-24 34q29 25 75 40t94 15q87 0 132 -48t45 -141v-323h-42v66l4 45h-2q-20 -52 -66.5 -87.5t-108.5 -35.5q-68 0 -119 37.5t-51 107.5zM85 136q0 -43 34 -76
t94 -33q77 0 124 65.5t47 146.5v27h-32q-31 0 -50.5 -0.5t-56 -4t-60 -12t-49 -22t-38.5 -37t-13 -54.5zM225 589l67 111h56l-79 -111h-44z" />
    <glyph glyph-name="acircumflex" unicode="&#xe2;" horiz-adv-x="508" 
d="M41 133q0 35 13 63t32 45.5t49.5 30.5t55.5 19t60 9.5t54 4t46 0.5h33v17q0 149 -137 149q-80 0 -143 -48l-24 34q29 25 75 40t94 15q87 0 132 -48t45 -141v-323h-42v66l4 45h-2q-20 -52 -66.5 -87.5t-108.5 -35.5q-68 0 -119 37.5t-51 107.5zM85 136q0 -43 34 -76
t94 -33q77 0 124 65.5t47 146.5v27h-32q-31 0 -50.5 -0.5t-56 -4t-60 -12t-49 -22t-38.5 -37t-13 -54.5zM143 589l80 111h52l80 -111h-49l-56 80h-2l-56 -80h-49z" />
    <glyph glyph-name="atilde" unicode="&#xe3;" horiz-adv-x="508" 
d="M41 133q0 35 13 63t32 45.5t49.5 30.5t55.5 19t60 9.5t54 4t46 0.5h33v17q0 149 -137 149q-80 0 -143 -48l-24 34q29 25 75 40t94 15q87 0 132 -48t45 -141v-323h-42v66l4 45h-2q-20 -52 -66.5 -87.5t-108.5 -35.5q-68 0 -119 37.5t-51 107.5zM85 136q0 -43 34 -76
t94 -33q77 0 124 65.5t47 146.5v27h-32q-31 0 -50.5 -0.5t-56 -4t-60 -12t-49 -22t-38.5 -37t-13 -54.5zM105 592q0 108 83 108q23 0 41.5 -11.5t29 -25.5t25.5 -25.5t30 -11.5q40 0 40 71h40q0 -108 -83 -108q-23 0 -41.5 11.5t-29 25.5t-25.5 25.5t-30 11.5q-40 0 -40 -71
h-40z" />
    <glyph glyph-name="adieresis" unicode="&#xe4;" horiz-adv-x="508" 
d="M41 133q0 35 13 63t32 45.5t49.5 30.5t55.5 19t60 9.5t54 4t46 0.5h33v17q0 149 -137 149q-80 0 -143 -48l-24 34q29 25 75 40t94 15q87 0 132 -48t45 -141v-323h-42v66l4 45h-2q-20 -52 -66.5 -87.5t-108.5 -35.5q-68 0 -119 37.5t-51 107.5zM85 136q0 -43 34 -76
t94 -33q77 0 124 65.5t47 146.5v27h-32q-31 0 -50.5 -0.5t-56 -4t-60 -12t-49 -22t-38.5 -37t-13 -54.5zM295 627v73h46v-73h-46zM158 627v73h46v-73h-46z" />
    <glyph glyph-name="aring" unicode="&#xe5;" horiz-adv-x="508" 
d="M41 133q0 35 13 63t32 45.5t49.5 30.5t55.5 19t60 9.5t54 4t46 0.5h33v17q0 149 -137 149q-80 0 -143 -48l-24 34q29 25 75 40t94 15q87 0 132 -48t45 -141v-323h-42v66l4 45h-2q-20 -52 -66.5 -87.5t-108.5 -35.5q-68 0 -119 37.5t-51 107.5zM85 136q0 -43 34 -76
t94 -33q77 0 124 65.5t47 146.5v27h-32q-31 0 -50.5 -0.5t-56 -4t-60 -12t-49 -22t-38.5 -37t-13 -54.5zM249 579q-29 0 -48 19.5t-19 47.5t19 47.5t48 19.5t48 -19.5t19 -47.5t-19 -47.5t-48 -19.5zM249 614q14 0 23 9t9 23q0 15 -9 24t-23 9t-23 -9t-9 -24q0 -14 9 -23
t23 -9z" />
    <glyph glyph-name="ae" unicode="&#xe6;" horiz-adv-x="869" 
d="M42 133q0 34 11 61t27.5 44t43.5 29.5t50.5 18.5t58.5 9.5t56.5 4t54.5 0.5h40v22q0 149 -141 149q-77 0 -139 -48l-24 34q29 26 74 40.5t91 14.5q144 0 172 -117h2q30 58 81.5 87.5t116.5 29.5q96 0 149 -64t53 -159q0 -12 -2 -28h-391q0 -110 56.5 -171t147.5 -61
q92 0 155 63l23 -35q-33 -31 -81.5 -50t-96.5 -19q-78 0 -138 40.5t-87 112.5h-2q-3 -15 -13.5 -36t-31 -49.5t-58.5 -48t-86 -19.5q-73 0 -122.5 38t-49.5 107zM430 300h345q-4 86 -50 129t-111 43q-72 0 -122 -44t-62 -128zM86 136q0 -45 34 -77t94 -32q77 0 123.5 65.5
t46.5 146.5v22h-69q-34 0 -59.5 -1.5t-60 -8.5t-56 -19.5t-37.5 -37t-16 -58.5z" />
    <glyph glyph-name="ccedilla" unicode="&#xe7;" horiz-adv-x="542" 
d="M263 -93l18 83q-99 10 -163.5 80.5t-64.5 178.5q0 116 75.5 189.5t182.5 73.5q50 0 98.5 -18t80.5 -53l-26 -34q-27 29 -68.5 46.5t-84.5 17.5q-90 0 -152 -61.5t-62 -160.5q0 -98 62 -159t152 -61q47 0 92 19t75 53l22 -35q-31 -35 -80 -56t-104 -22l-9 -48
q31 -5 50 -23t19 -45q0 -39 -26 -57.5t-65 -18.5q-25 0 -44 4v38q17 -5 41 -5q54 0 54 37q0 38 -61 38z" />
    <glyph glyph-name="egrave" unicode="&#xe8;" horiz-adv-x="549" 
d="M52 249q0 122 71 192.5t172 70.5q97 0 150.5 -65.5t53.5 -162.5q0 -9 -2 -27h-401q0 -105 61.5 -166.5t152.5 -61.5q92 0 155 63l23 -35q-33 -31 -81.5 -50t-96.5 -19q-109 0 -183.5 72.5t-74.5 188.5zM99 296h356q-4 87 -49 132t-112 45q-73 0 -127.5 -46.5
t-67.5 -130.5zM276 589l-79 111h56l67 -111h-44z" />
    <glyph glyph-name="eacute" unicode="&#xe9;" horiz-adv-x="549" 
d="M52 249q0 122 71 192.5t172 70.5q97 0 150.5 -65.5t53.5 -162.5q0 -9 -2 -27h-401q0 -105 61.5 -166.5t152.5 -61.5q92 0 155 63l23 -35q-33 -31 -81.5 -50t-96.5 -19q-109 0 -183.5 72.5t-74.5 188.5zM99 296h356q-4 87 -49 132t-112 45q-73 0 -127.5 -46.5
t-67.5 -130.5zM274 589l67 111h56l-79 -111h-44z" />
    <glyph glyph-name="ecircumflex" unicode="&#xea;" horiz-adv-x="549" 
d="M52 249q0 122 71 192.5t172 70.5q97 0 150.5 -65.5t53.5 -162.5q0 -9 -2 -27h-401q0 -105 61.5 -166.5t152.5 -61.5q92 0 155 63l23 -35q-33 -31 -81.5 -50t-96.5 -19q-109 0 -183.5 72.5t-74.5 188.5zM99 296h356q-4 87 -49 132t-112 45q-73 0 -127.5 -46.5
t-67.5 -130.5zM191 589l80 111h52l80 -111h-49l-56 80h-2l-56 -80h-49z" />
    <glyph glyph-name="edieresis" unicode="&#xeb;" horiz-adv-x="549" 
d="M52 249q0 122 71 192.5t172 70.5q97 0 150.5 -65.5t53.5 -162.5q0 -9 -2 -27h-401q0 -105 61.5 -166.5t152.5 -61.5q92 0 155 63l23 -35q-33 -31 -81.5 -50t-96.5 -19q-109 0 -183.5 72.5t-74.5 188.5zM99 296h356q-4 87 -49 132t-112 45q-73 0 -127.5 -46.5
t-67.5 -130.5zM343 627v73h46v-73h-46zM206 627v73h46v-73h-46z" />
    <glyph glyph-name="igrave" unicode="&#xec;" horiz-adv-x="216" 
d="M87 0v500h42v-500h-42zM87 589l-79 111h56l67 -111h-44z" />
    <glyph glyph-name="iacute" unicode="&#xed;" horiz-adv-x="216" 
d="M87 0v500h42v-500h-42zM86 589l67 111h56l-79 -111h-44z" />
    <glyph glyph-name="icircumflex" unicode="&#xee;" horiz-adv-x="216" 
d="M87 0v500h42v-500h-42zM3 589l80 111h52l80 -111h-49l-56 80h-2l-56 -80h-49z" />
    <glyph glyph-name="idieresis" unicode="&#xef;" horiz-adv-x="216" 
d="M87 0v500h42v-500h-42zM155 627v73h46v-73h-46zM18 627v73h46v-73h-46z" />
    <glyph glyph-name="eth" unicode="&#xf0;" horiz-adv-x="577" 
d="M54 230q0 97 63.5 167.5t177.5 70.5q49 0 89.5 -16.5t56.5 -33.5l16 -16h2q-36 113 -137 183l-172 -80l-17 37l146 68q-66 35 -153 57l12 38q114 -29 188 -74l123 58l17 -37l-101 -47q156 -119 156 -335q0 -52 -14.5 -100.5t-43 -90t-76.5 -66.5t-108 -25
q-103 0 -164 72.5t-61 169.5zM98 230q0 -81 50 -141.5t133 -60.5q65 0 111 37.5t65.5 89t19.5 108.5q0 72 -50.5 118.5t-132.5 46.5q-94 0 -145 -58.5t-51 -139.5z" />
    <glyph glyph-name="ntilde" unicode="&#xf1;" horiz-adv-x="586" 
d="M87 0v500h42v-88l-4 -41h2q17 48 73 94.5t139 46.5q92 0 128.5 -49.5t36.5 -145.5v-317h-42v302q0 30 -2 51.5t-9 45t-20 38.5t-36.5 24.5t-55.5 9.5q-87 0 -148.5 -63.5t-61.5 -158.5v-249h-42zM163 592q0 108 83 108q23 0 41.5 -11.5t29 -25.5t25.5 -25.5t30 -11.5
q40 0 40 71h40q0 -108 -83 -108q-23 0 -41.5 11.5t-29 25.5t-25.5 25.5t-30 11.5q-40 0 -40 -71h-40z" />
    <glyph glyph-name="ograve" unicode="&#xf2;" horiz-adv-x="620" 
d="M51 253q0 109 75.5 184t183.5 75t183.5 -75t75.5 -184q0 -111 -75.5 -188t-183.5 -77t-183.5 77t-75.5 188zM95 253q0 -95 62.5 -159.5t152.5 -64.5t152.5 64.5t62.5 159.5q0 92 -62.5 155t-152.5 63t-152.5 -63t-62.5 -155zM288 589l-79 111h56l67 -111h-44z" />
    <glyph glyph-name="oacute" unicode="&#xf3;" horiz-adv-x="620" 
d="M51 253q0 109 75.5 184t183.5 75t183.5 -75t75.5 -184q0 -111 -75.5 -188t-183.5 -77t-183.5 77t-75.5 188zM95 253q0 -95 62.5 -159.5t152.5 -64.5t152.5 64.5t62.5 159.5q0 92 -62.5 155t-152.5 63t-152.5 -63t-62.5 -155zM287 589l67 111h56l-79 -111h-44z" />
    <glyph glyph-name="ocircumflex" unicode="&#xf4;" horiz-adv-x="620" 
d="M51 253q0 109 75.5 184t183.5 75t183.5 -75t75.5 -184q0 -111 -75.5 -188t-183.5 -77t-183.5 77t-75.5 188zM95 253q0 -95 62.5 -159.5t152.5 -64.5t152.5 64.5t62.5 159.5q0 92 -62.5 155t-152.5 63t-152.5 -63t-62.5 -155zM204 589l80 111h52l80 -111h-49l-56 80h-2
l-56 -80h-49z" />
    <glyph glyph-name="otilde" unicode="&#xf5;" horiz-adv-x="620" 
d="M51 253q0 109 75.5 184t183.5 75t183.5 -75t75.5 -184q0 -111 -75.5 -188t-183.5 -77t-183.5 77t-75.5 188zM95 253q0 -95 62.5 -159.5t152.5 -64.5t152.5 64.5t62.5 159.5q0 92 -62.5 155t-152.5 63t-152.5 -63t-62.5 -155zM166 592q0 108 83 108q23 0 41.5 -11.5
t29 -25.5t25.5 -25.5t30 -11.5q40 0 40 71h40q0 -108 -83 -108q-23 0 -41.5 11.5t-29 25.5t-25.5 25.5t-30 11.5q-40 0 -40 -71h-40z" />
    <glyph glyph-name="odieresis" unicode="&#xf6;" horiz-adv-x="620" 
d="M51 253q0 109 75.5 184t183.5 75t183.5 -75t75.5 -184q0 -111 -75.5 -188t-183.5 -77t-183.5 77t-75.5 188zM95 253q0 -95 62.5 -159.5t152.5 -64.5t152.5 64.5t62.5 159.5q0 92 -62.5 155t-152.5 63t-152.5 -63t-62.5 -155zM356 627v73h46v-73h-46zM219 627v73h46v-73
h-46z" />
    <glyph glyph-name="divide" unicode="&#xf7;" horiz-adv-x="560" 
d="M251 431v59h57v-59h-57zM42 263v40h476v-40h-476zM251 76v59h57v-59h-57z" />
    <glyph glyph-name="oslash" unicode="&#xf8;" horiz-adv-x="621" 
d="M110 -3l36 51q-94 78 -94 205q0 109 75.5 184t183.5 75q76 0 138 -39l38 53l34 -26l-38 -53q87 -77 87 -194q0 -111 -75.5 -188t-183.5 -77q-72 0 -130 35l-37 -52zM170 82l255 357q-53 32 -114 32q-90 0 -152.5 -63t-62.5 -155q0 -104 74 -171zM205 57q48 -28 106 -28
q90 0 152.5 64.5t62.5 159.5q0 96 -68 159z" />
    <glyph glyph-name="ugrave" unicode="&#xf9;" horiz-adv-x="580" 
d="M81 183v317h42v-302q0 -30 2 -51.5t9 -45t20 -38.5t36.5 -24.5t55.5 -9.5q90 0 147.5 67.5t57.5 159.5v244h42v-500h-42v88l4 41h-2q-17 -48 -72 -94.5t-135 -46.5q-89 0 -127 48t-38 147zM266 589l-79 111h56l67 -111h-44z" />
    <glyph glyph-name="uacute" unicode="&#xfa;" horiz-adv-x="580" 
d="M81 183v317h42v-302q0 -30 2 -51.5t9 -45t20 -38.5t36.5 -24.5t55.5 -9.5q90 0 147.5 67.5t57.5 159.5v244h42v-500h-42v88l4 41h-2q-17 -48 -72 -94.5t-135 -46.5q-89 0 -127 48t-38 147zM264 589l67 111h56l-79 -111h-44z" />
    <glyph glyph-name="ucircumflex" unicode="&#xfb;" horiz-adv-x="580" 
d="M81 183v317h42v-302q0 -30 2 -51.5t9 -45t20 -38.5t36.5 -24.5t55.5 -9.5q90 0 147.5 67.5t57.5 159.5v244h42v-500h-42v88l4 41h-2q-17 -48 -72 -94.5t-135 -46.5q-89 0 -127 48t-38 147zM181 589l80 111h52l80 -111h-49l-56 80h-2l-56 -80h-49z" />
    <glyph glyph-name="udieresis" unicode="&#xfc;" horiz-adv-x="580" 
d="M81 183v317h42v-302q0 -30 2 -51.5t9 -45t20 -38.5t36.5 -24.5t55.5 -9.5q90 0 147.5 67.5t57.5 159.5v244h42v-500h-42v88l4 41h-2q-17 -48 -72 -94.5t-135 -46.5q-89 0 -127 48t-38 147zM333 627v73h46v-73h-46zM196 627v73h46v-73h-46z" />
    <glyph glyph-name="yacute" unicode="&#xfd;" horiz-adv-x="517" 
d="M41 -146q28 -24 62 -24q60 0 98 90l36 83l-207 497h45l165 -399l18 -47h2q7 23 17 47l165 399h45l-257 -617q-39 -93 -127 -93q-21 0 -41.5 7t-29.5 14l-10 7zM236 589l67 111h56l-79 -111h-44z" />
    <glyph glyph-name="thorn" unicode="&#xfe;" horiz-adv-x="578" 
d="M87 -200v900h42v-255l-1 -40h2q19 46 67 76.5t111 30.5q99 0 157.5 -72t58.5 -190t-62 -190t-160 -72q-55 0 -103.5 29t-69.5 79h-2q2 -18 2 -44v-252h-42zM128 249q0 -89 47 -155t127 -66q76 0 127 60t51 162q0 100 -48.5 160.5t-125.5 60.5q-76 0 -127 -55.5
t-51 -166.5z" />
    <glyph glyph-name="ydieresis" unicode="&#xff;" horiz-adv-x="517" 
d="M41 -146q28 -24 62 -24q60 0 98 90l36 83l-207 497h45l165 -399l18 -47h2q7 23 17 47l165 399h45l-257 -617q-39 -93 -127 -93q-21 0 -41.5 7t-29.5 14l-10 7zM305 627v73h46v-73h-46zM168 627v73h46v-73h-46z" />
    <glyph glyph-name="Amacron" unicode="&#x100;" horiz-adv-x="624" 
d="M27 0l262 700h46l262 -700h-46l-91 242h-297l-90 -242h-46zM178 282h267l-106 284l-26 84h-2q-15 -54 -26 -84zM193 786v40h239v-40h-239z" />
    <glyph glyph-name="amacron" unicode="&#x101;" horiz-adv-x="508" 
d="M41 133q0 35 13 63t32 45.5t49.5 30.5t55.5 19t60 9.5t54 4t46 0.5h33v17q0 149 -137 149q-80 0 -143 -48l-24 34q29 25 75 40t94 15q87 0 132 -48t45 -141v-323h-42v66l4 45h-2q-20 -52 -66.5 -87.5t-108.5 -35.5q-68 0 -119 37.5t-51 107.5zM85 136q0 -43 34 -76
t94 -33q77 0 124 65.5t47 146.5v27h-32q-31 0 -50.5 -0.5t-56 -4t-60 -12t-49 -22t-38.5 -37t-13 -54.5zM130 625v40h239v-40h-239z" />
    <glyph glyph-name="Abreve" unicode="&#x102;" horiz-adv-x="624" 
d="M27 0l262 700h46l262 -700h-46l-91 242h-297l-90 -242h-46zM178 282h267l-106 284l-26 84h-2q-15 -54 -26 -84zM312 747q-41 0 -71 25.5t-30 72.5v16h40v-14q0 -31 17 -46.5t44 -15.5q26 0 43.5 15.5t17.5 47.5v13h40v-16q0 -47 -30 -72.5t-71 -25.5z" />
    <glyph glyph-name="abreve" unicode="&#x103;" horiz-adv-x="508" 
d="M41 133q0 35 13 63t32 45.5t49.5 30.5t55.5 19t60 9.5t54 4t46 0.5h33v17q0 149 -137 149q-80 0 -143 -48l-24 34q29 25 75 40t94 15q87 0 132 -48t45 -141v-323h-42v66l4 45h-2q-20 -52 -66.5 -87.5t-108.5 -35.5q-68 0 -119 37.5t-51 107.5zM85 136q0 -43 34 -76
t94 -33q77 0 124 65.5t47 146.5v27h-32q-31 0 -50.5 -0.5t-56 -4t-60 -12t-49 -22t-38.5 -37t-13 -54.5zM249 586q-41 0 -71 25.5t-30 72.5v16h40v-14q0 -31 17 -46.5t44 -15.5q26 0 43.5 15.5t17.5 47.5v13h40v-16q0 -47 -30 -72.5t-71 -25.5z" />
    <glyph glyph-name="Aogonek" unicode="&#x104;" horiz-adv-x="624" 
d="M27 0l262 700h46l262 -700q-80 -59 -80 -109q0 -22 17 -36t34 -17l17 -3l-9 -39q-4 0 -11 1t-25 6.5t-32 14.5t-25 27t-11 42q0 66 76 120l-88 235h-297l-90 -242h-46zM178 282h267l-106 284l-26 84h-2q-15 -54 -26 -84z" />
    <glyph glyph-name="aogonek" unicode="&#x105;" horiz-adv-x="508" 
d="M41 133q0 35 13 63t32 45.5t49.5 30.5t55.5 19t60 9.5t54 4t46 0.5h33v17q0 149 -137 149q-80 0 -143 -48l-24 34q29 25 75 40t94 15q87 0 132 -48t45 -141v-323q-80 -59 -80 -109q0 -22 17 -36t34 -17l17 -3l-9 -39q-4 0 -11 1t-25 6.5t-32 14.5t-25 27t-11 42
q0 63 83 120v59l4 45h-2q-20 -52 -66.5 -87.5t-108.5 -35.5q-68 0 -119 37.5t-51 107.5zM85 136q0 -43 34 -76t94 -33q77 0 124 65.5t47 146.5v27h-32q-31 0 -50.5 -0.5t-56 -4t-60 -12t-49 -22t-38.5 -37t-13 -54.5z" />
    <glyph glyph-name="Cacute" unicode="&#x106;" horiz-adv-x="719" 
d="M60 355q0 153 98 255t249 102q156 0 250 -88l-26 -32q-42 37 -102 58t-121 21q-133 0 -218 -89.5t-85 -226.5q0 -139 85.5 -232.5t220.5 -93.5q140 0 237 95l27 -30q-110 -106 -264 -106q-155 0 -253 106t-98 261zM379 750l67 111h56l-79 -111h-44z" />
    <glyph glyph-name="cacute" unicode="&#x107;" horiz-adv-x="540" 
d="M52 249q0 116 75.5 189.5t182.5 73.5q50 0 98.5 -18t80.5 -53l-26 -34q-27 29 -68.5 46.5t-84.5 17.5q-90 0 -152 -61.5t-62 -160.5q0 -98 62 -159t152 -61q47 0 92 19t75 53l22 -35q-32 -36 -82.5 -57t-106.5 -21q-109 0 -183.5 72.5t-74.5 188.5zM269 589l67 111h56
l-79 -111h-44z" />
    <glyph glyph-name="Ccircumflex" unicode="&#x108;" horiz-adv-x="719" 
d="M60 355q0 153 98 255t249 102q156 0 250 -88l-26 -32q-42 37 -102 58t-121 21q-133 0 -218 -89.5t-85 -226.5q0 -139 85.5 -232.5t220.5 -93.5q140 0 237 95l27 -30q-110 -106 -264 -106q-155 0 -253 106t-98 261zM296 750l80 111h52l80 -111h-49l-56 80h-2l-56 -80h-49z
" />
    <glyph glyph-name="ccircumflex" unicode="&#x109;" horiz-adv-x="540" 
d="M52 249q0 116 75.5 189.5t182.5 73.5q50 0 98.5 -18t80.5 -53l-26 -34q-27 29 -68.5 46.5t-84.5 17.5q-90 0 -152 -61.5t-62 -160.5q0 -98 62 -159t152 -61q47 0 92 19t75 53l22 -35q-32 -36 -82.5 -57t-106.5 -21q-109 0 -183.5 72.5t-74.5 188.5zM186 589l80 111h52
l80 -111h-49l-56 80h-2l-56 -80h-49z" />
    <glyph glyph-name="Cdotaccent" unicode="&#x10a;" horiz-adv-x="719" 
d="M60 355q0 153 98 255t249 102q156 0 250 -88l-26 -32q-42 37 -102 58t-121 21q-133 0 -218 -89.5t-85 -226.5q0 -139 85.5 -232.5t220.5 -93.5q140 0 237 95l27 -30q-110 -106 -264 -106q-155 0 -253 106t-98 261zM379 788v73h46v-73h-46z" />
    <glyph glyph-name="cdotaccent" unicode="&#x10b;" horiz-adv-x="540" 
d="M52 249q0 116 75.5 189.5t182.5 73.5q50 0 98.5 -18t80.5 -53l-26 -34q-27 29 -68.5 46.5t-84.5 17.5q-90 0 -152 -61.5t-62 -160.5q0 -98 62 -159t152 -61q47 0 92 19t75 53l22 -35q-32 -36 -82.5 -57t-106.5 -21q-109 0 -183.5 72.5t-74.5 188.5zM269 627v73h46v-73
h-46z" />
    <glyph glyph-name="Ccaron" unicode="&#x10c;" horiz-adv-x="719" 
d="M60 355q0 153 98 255t249 102q156 0 250 -88l-26 -32q-42 37 -102 58t-121 21q-133 0 -218 -89.5t-85 -226.5q0 -139 85.5 -232.5t220.5 -93.5q140 0 237 95l27 -30q-110 -106 -264 -106q-155 0 -253 106t-98 261zM376 750l-80 111h49l56 -80h2l56 80h49l-80 -111h-52z
" />
    <glyph glyph-name="ccaron" unicode="&#x10d;" horiz-adv-x="540" 
d="M52 249q0 116 75.5 189.5t182.5 73.5q50 0 98.5 -18t80.5 -53l-26 -34q-27 29 -68.5 46.5t-84.5 17.5q-90 0 -152 -61.5t-62 -160.5q0 -98 62 -159t152 -61q47 0 92 19t75 53l22 -35q-32 -36 -82.5 -57t-106.5 -21q-109 0 -183.5 72.5t-74.5 188.5zM266 589l-80 111h49
l56 -80h2l56 80h49l-80 -111h-52z" />
    <glyph glyph-name="Dcaron" unicode="&#x10e;" horiz-adv-x="738" 
d="M107 0v700h220q158 0 253.5 -93t95.5 -257q0 -165 -95 -257.5t-254 -92.5h-220zM150 40h170q142 0 226.5 81t84.5 229q0 147 -84.5 228.5t-226.5 81.5h-170v-620zM315 750l-80 111h49l56 -80h2l56 80h49l-80 -111h-52z" />
    <glyph glyph-name="dcaron" unicode="&#x10f;" horiz-adv-x="578" 
d="M54 250q0 118 62.5 190t161.5 72q57 0 103 -31t70 -82h2q-4 18 -4 41v260h42v-700h-42v63l4 38h-2q-22 -49 -68.5 -81t-112.5 -32q-99 0 -157.5 72t-58.5 190zM98 250q0 -100 48.5 -160.5t125.5 -60.5q76 0 127 55.5t51 166.5q0 90 -45.5 155t-128.5 65q-76 0 -127 -59.5
t-51 -161.5zM558 700h48q6 -26 6 -47q0 -37 -22 -87h-39q18 47 18 78q0 27 -11 56z" />
    <glyph glyph-name="Dcroat" unicode="&#x110;" horiz-adv-x="744" 
d="M113 0v333h-60v40h60v327h220q158 0 253.5 -93t95.5 -257q0 -165 -95 -257.5t-254 -92.5h-220zM156 40h170q142 0 226.5 81t84.5 229q0 147 -84.5 228.5t-226.5 81.5h-170v-287h183v-40h-183v-293z" />
    <glyph glyph-name="dcroat" unicode="&#x111;" horiz-adv-x="578" 
d="M54 250q0 118 62.5 190t161.5 72q56 0 102 -29t69 -79h2q-2 18 -2 41v124h-133v40h133v91h42v-91h83v-40h-83v-569h-42v58l2 38h-2q-19 -45 -66 -76.5t-113 -31.5q-99 0 -157.5 72t-58.5 190zM98 250q0 -100 48.5 -160.5t125.5 -60.5q76 0 127 55.5t51 166.5
q0 90 -45.5 155.5t-128.5 65.5q-76 0 -127 -60t-51 -162z" />
    <glyph glyph-name="Emacron" unicode="&#x112;" horiz-adv-x="556" 
d="M107 0v700h383v-40h-340v-287h279v-40h-279v-293h359v-40h-402zM192 786v40h239v-40h-239z" />
    <glyph glyph-name="emacron" unicode="&#x113;" horiz-adv-x="549" 
d="M52 249q0 122 71 192.5t172 70.5q97 0 150.5 -65.5t53.5 -162.5q0 -9 -2 -27h-401q0 -105 61.5 -166.5t152.5 -61.5q92 0 155 63l23 -35q-33 -31 -81.5 -50t-96.5 -19q-109 0 -183.5 72.5t-74.5 188.5zM99 296h356q-4 87 -49 132t-112 45q-73 0 -127.5 -46.5
t-67.5 -130.5zM178 625v40h239v-40h-239z" />
    <glyph glyph-name="Ebreve" unicode="&#x114;" horiz-adv-x="556" 
d="M107 0v700h383v-40h-340v-287h279v-40h-279v-293h359v-40h-402zM311 747q-41 0 -71 25.5t-30 72.5v16h40v-14q0 -31 17 -46.5t44 -15.5q26 0 43.5 15.5t17.5 47.5v13h40v-16q0 -47 -30 -72.5t-71 -25.5z" />
    <glyph glyph-name="ebreve" unicode="&#x115;" horiz-adv-x="549" 
d="M52 249q0 122 71 192.5t172 70.5q97 0 150.5 -65.5t53.5 -162.5q0 -9 -2 -27h-401q0 -105 61.5 -166.5t152.5 -61.5q92 0 155 63l23 -35q-33 -31 -81.5 -50t-96.5 -19q-109 0 -183.5 72.5t-74.5 188.5zM99 296h356q-4 87 -49 132t-112 45q-73 0 -127.5 -46.5
t-67.5 -130.5zM297 586q-41 0 -71 25.5t-30 72.5v16h40v-14q0 -31 17 -46.5t44 -15.5q26 0 43.5 15.5t17.5 47.5v13h40v-16q0 -47 -30 -72.5t-71 -25.5z" />
    <glyph glyph-name="Edotaccent" unicode="&#x116;" horiz-adv-x="556" 
d="M107 0v700h383v-40h-340v-287h279v-40h-279v-293h359v-40h-402zM288 788v73h46v-73h-46z" />
    <glyph glyph-name="edotaccent" unicode="&#x117;" horiz-adv-x="549" 
d="M52 249q0 122 71 192.5t172 70.5q97 0 150.5 -65.5t53.5 -162.5q0 -9 -2 -27h-401q0 -105 61.5 -166.5t152.5 -61.5q92 0 155 63l23 -35q-33 -31 -81.5 -50t-96.5 -19q-109 0 -183.5 72.5t-74.5 188.5zM99 296h356q-4 87 -49 132t-112 45q-73 0 -127.5 -46.5
t-67.5 -130.5zM274 627v73h46v-73h-46z" />
    <glyph glyph-name="Eogonek" unicode="&#x118;" horiz-adv-x="556" 
d="M107 0v700h383v-40h-340v-287h279v-40h-279v-293h359v-40q-80 -59 -80 -109q0 -22 17 -36t34 -17l17 -3l-9 -39q-4 0 -11 1t-25 6.5t-32 14.5t-25 27t-11 42q0 60 74 113h-351z" />
    <glyph glyph-name="eogonek" unicode="&#x119;" horiz-adv-x="550" 
d="M52 249q0 122 71 192.5t172 70.5q97 0 150.5 -65.5t53.5 -162.5l-2 -27h-401q0 -105 61.5 -166.5t152.5 -61.5q87 0 155 63l23 -35q-11 -10 -56 -41.5t-71.5 -61.5t-26.5 -63q0 -22 17 -36t34 -17l17 -3l-9 -39q-4 0 -11 1t-25 6.5t-32 14.5t-25 27t-11 42q0 53 56 105
q-20 -4 -35 -4q-109 0 -183.5 72.5t-74.5 188.5zM99 296h356q-4 87 -49 132t-112 45q-73 0 -127.5 -46.5t-67.5 -130.5z" />
    <glyph glyph-name="Ecaron" unicode="&#x11a;" horiz-adv-x="556" 
d="M107 0v700h383v-40h-340v-287h279v-40h-279v-293h359v-40h-402zM285 750l-80 111h49l56 -80h2l56 80h49l-80 -111h-52z" />
    <glyph glyph-name="ecaron" unicode="&#x11b;" horiz-adv-x="549" 
d="M52 249q0 122 71 192.5t172 70.5q97 0 150.5 -65.5t53.5 -162.5q0 -9 -2 -27h-401q0 -105 61.5 -166.5t152.5 -61.5q92 0 155 63l23 -35q-33 -31 -81.5 -50t-96.5 -19q-109 0 -183.5 72.5t-74.5 188.5zM99 296h356q-4 87 -49 132t-112 45q-73 0 -127.5 -46.5
t-67.5 -130.5zM271 589l-80 111h49l56 -80h2l56 80h49l-80 -111h-52z" />
    <glyph glyph-name="Gcircumflex" unicode="&#x11c;" horiz-adv-x="754" 
d="M60 350q0 152 100.5 257t248.5 105q146 0 244 -79l-26 -33q-39 32 -99 51.5t-119 19.5q-131 0 -217.5 -92t-86.5 -229t84.5 -229t213.5 -92q68 0 131.5 31t108.5 84v135h-125v40h168v-319h-43v61l1 30h-2q-41 -46 -104 -74.5t-135 -28.5q-146 0 -244.5 104.5t-98.5 257.5
zM292 750l80 111h52l80 -111h-49l-56 80h-2l-56 -80h-49z" />
    <glyph glyph-name="gcircumflex" unicode="&#x11d;" horiz-adv-x="571" 
d="M118 -134q65 -35 134 -35q85 0 137.5 42.5t52.5 129.5v58l4 41h-2q-50 -102 -168 -102q-98 0 -160 71t-62 187q0 117 58.5 185.5t156.5 68.5q58 0 105.5 -24.5t68.5 -73.5h2q-3 7 -3 19v67h42v-497q0 -108 -65.5 -160.5t-163.5 -52.5q-81 0 -157 39zM98 258
q0 -100 50 -158.5t131 -58.5q73 0 118.5 51.5t45.5 165.5q0 213 -174 213q-81 0 -126 -56t-45 -157zM173 589l80 111h52l80 -111h-49l-56 80h-2l-56 -80h-49z" />
    <glyph glyph-name="Gbreve" unicode="&#x11e;" horiz-adv-x="754" 
d="M60 350q0 152 100.5 257t248.5 105q146 0 244 -79l-26 -33q-39 32 -99 51.5t-119 19.5q-131 0 -217.5 -92t-86.5 -229t84.5 -229t213.5 -92q68 0 131.5 31t108.5 84v135h-125v40h168v-319h-43v61l1 30h-2q-41 -46 -104 -74.5t-135 -28.5q-146 0 -244.5 104.5t-98.5 257.5
zM398 747q-41 0 -71 25.5t-30 72.5v16h40v-14q0 -31 17 -46.5t44 -15.5q26 0 43.5 15.5t17.5 47.5v13h40v-16q0 -47 -30 -72.5t-71 -25.5z" />
    <glyph glyph-name="gbreve" unicode="&#x11f;" horiz-adv-x="571" 
d="M118 -134q65 -35 134 -35q85 0 137.5 42.5t52.5 129.5v58l4 41h-2q-50 -102 -168 -102q-98 0 -160 71t-62 187q0 117 58.5 185.5t156.5 68.5q58 0 105.5 -24.5t68.5 -73.5h2q-3 7 -3 19v67h42v-497q0 -108 -65.5 -160.5t-163.5 -52.5q-81 0 -157 39zM98 258
q0 -100 50 -158.5t131 -58.5q73 0 118.5 51.5t45.5 165.5q0 213 -174 213q-81 0 -126 -56t-45 -157zM279 586q-41 0 -71 25.5t-30 72.5v16h40v-14q0 -31 17 -46.5t44 -15.5q26 0 43.5 15.5t17.5 47.5v13h40v-16q0 -47 -30 -72.5t-71 -25.5z" />
    <glyph glyph-name="Gdotaccent" unicode="&#x120;" horiz-adv-x="754" 
d="M60 350q0 152 100.5 257t248.5 105q146 0 244 -79l-26 -33q-39 32 -99 51.5t-119 19.5q-131 0 -217.5 -92t-86.5 -229t84.5 -229t213.5 -92q68 0 131.5 31t108.5 84v135h-125v40h168v-319h-43v61l1 30h-2q-41 -46 -104 -74.5t-135 -28.5q-146 0 -244.5 104.5t-98.5 257.5
zM375 788v73h46v-73h-46z" />
    <glyph glyph-name="gdotaccent" unicode="&#x121;" horiz-adv-x="571" 
d="M118 -134q65 -35 134 -35q85 0 137.5 42.5t52.5 129.5v58l4 41h-2q-50 -102 -168 -102q-98 0 -160 71t-62 187q0 117 58.5 185.5t156.5 68.5q58 0 105.5 -24.5t68.5 -73.5h2q-3 7 -3 19v67h42v-497q0 -108 -65.5 -160.5t-163.5 -52.5q-81 0 -157 39zM98 258
q0 -100 50 -158.5t131 -58.5q73 0 118.5 51.5t45.5 165.5q0 213 -174 213q-81 0 -126 -56t-45 -157zM256 627v73h46v-73h-46z" />
    <glyph glyph-name="Gcommaaccent" unicode="&#x122;" horiz-adv-x="754" 
d="M60 350q0 152 100.5 257t248.5 105q146 0 244 -79l-26 -33q-39 32 -99 51.5t-119 19.5q-131 0 -217.5 -92t-86.5 -229t84.5 -229t213.5 -92q68 0 131.5 31t108.5 84v135h-125v40h168v-319h-43v61l1 30h-2q-41 -46 -104 -74.5t-135 -28.5q-146 0 -244.5 104.5t-98.5 257.5
zM379 -66h48q6 -26 6 -47q0 -37 -22 -87h-39q18 47 18 78q0 27 -11 56z" />
    <glyph glyph-name="gcommaaccent" unicode="&#x123;" horiz-adv-x="571" 
d="M118 -134q65 -35 134 -35q85 0 137.5 42.5t52.5 129.5v58l4 41h-2q-50 -102 -168 -102q-98 0 -160 71t-62 187q0 117 58.5 185.5t156.5 68.5q58 0 105.5 -24.5t68.5 -73.5h2q-3 7 -3 19v67h42v-497q0 -108 -65.5 -160.5t-163.5 -52.5q-81 0 -157 39zM98 258
q0 -100 50 -158.5t131 -58.5q73 0 118.5 51.5t45.5 165.5q0 213 -174 213q-81 0 -126 -56t-45 -157zM305 566h-48q-6 25 -6 47q0 37 22 87h39q-18 -47 -18 -78q0 -27 11 -56z" />
    <glyph glyph-name="Hcircumflex" unicode="&#x124;" horiz-adv-x="744" 
d="M107 0v700h43v-329h444v329h43v-700h-43v331h-444v-331h-43zM266 750l80 111h52l80 -111h-49l-56 80h-2l-56 -80h-49z" />
    <glyph glyph-name="hcircumflex" unicode="&#x125;" horiz-adv-x="586" 
d="M87 0v700h42v-288l-4 -41h2q17 48 73 94.5t139 46.5q92 0 128.5 -49.5t36.5 -145.5v-317h-42v302q0 30 -2 51.5t-9 45t-20 38.5t-36.5 24.5t-55.5 9.5q-87 0 -148.5 -64t-61.5 -161v-246h-42zM3 750l80 111h52l80 -111h-49l-56 80h-2l-56 -80h-49z" />
    <glyph glyph-name="Hbar" unicode="&#x126;" horiz-adv-x="756" 
d="M113 0v511h-65v40h65v149h43v-149h444v149h43v-149h65v-40h-65v-511h-43v331h-444v-331h-43zM156 371h444v140h-444v-140z" />
    <glyph glyph-name="hbar" unicode="&#x127;" horiz-adv-x="586" 
d="M87 0v569h-81v40h81v91h42v-91h133v-40h-133v-152l-2 -41h2q17 47 72 91.5t138 44.5q92 0 128.5 -49.5t36.5 -145.5v-317h-42v302q0 30 -2 51.5t-9 45t-20 38.5t-36.5 24.5t-55.5 9.5q-89 0 -149.5 -65t-60.5 -157v-249h-42z" />
    <glyph glyph-name="Itilde" unicode="&#x128;" horiz-adv-x="257" 
d="M107 0v700h43v-700h-43zM-15 753q0 108 83 108q23 0 41.5 -11.5t29 -25.5t25.5 -25.5t30 -11.5q40 0 40 71h40q0 -108 -83 -108q-23 0 -41.5 11.5t-29 25.5t-25.5 25.5t-30 11.5q-40 0 -40 -71h-40z" />
    <glyph glyph-name="itilde" unicode="&#x129;" horiz-adv-x="216" 
d="M87 0v500h42v-500h-42zM-35 592q0 108 83 108q23 0 41.5 -11.5t29 -25.5t25.5 -25.5t30 -11.5q40 0 40 71h40q0 -108 -83 -108q-23 0 -41.5 11.5t-29 25.5t-25.5 25.5t-30 11.5q-40 0 -40 -71h-40z" />
    <glyph glyph-name="Imacron" unicode="&#x12a;" horiz-adv-x="257" 
d="M107 0v700h43v-700h-43zM10 786v40h239v-40h-239z" />
    <glyph glyph-name="imacron" unicode="&#x12b;" horiz-adv-x="216" 
d="M87 0v500h42v-500h-42zM-11 625v40h239v-40h-239z" />
    <glyph glyph-name="Ibreve" unicode="&#x12c;" horiz-adv-x="257" 
d="M107 0v700h43v-700h-43zM129 747q-41 0 -71 25.5t-30 72.5v16h40v-14q0 -31 17 -46.5t44 -15.5q26 0 43.5 15.5t17.5 47.5v13h40v-16q0 -47 -30 -72.5t-71 -25.5z" />
    <glyph glyph-name="ibreve" unicode="&#x12d;" horiz-adv-x="216" 
d="M87 0v500h42v-500h-42zM109 586q-41 0 -71 25.5t-30 72.5v16h40v-14q0 -31 17 -46.5t44 -15.5q26 0 43.5 15.5t17.5 47.5v13h40v-16q0 -47 -30 -72.5t-71 -25.5z" />
    <glyph glyph-name="Iogonek" unicode="&#x12e;" horiz-adv-x="257" 
d="M25 -113q0 36 26 68.5t56 52.5v692h43v-700q-80 -59 -80 -109q0 -22 17 -36t34 -17l17 -3l-9 -39q-4 0 -11 1t-25 6.5t-32 14.5t-25 27t-11 42z" />
    <glyph glyph-name="iogonek" unicode="&#x12f;" horiz-adv-x="217" 
d="M5 -113q0 63 83 120v493h42v-500q-80 -59 -80 -109q0 -22 17 -36t34 -17l17 -3l-9 -39q-4 0 -11 1t-25 6.5t-32 14.5t-25 27t-11 42zM84 627v73h50v-73h-50z" />
    <glyph glyph-name="Idotaccent" unicode="&#x130;" horiz-adv-x="257" 
d="M107 0v700h43v-700h-43zM106 788v73h46v-73h-46z" />
    <glyph glyph-name="dotlessi" unicode="&#x131;" horiz-adv-x="216" 
d="M87 0v500h42v-500h-42z" />
    <glyph glyph-name="IJ" unicode="&#x132;" horiz-adv-x="556" 
d="M259 -5v42q23 0 42.5 3.5t41 15t36.5 30.5t24.5 53t9.5 79v482h43v-482q0 -223 -197 -223zM107 0v700h43v-700h-43z" />
    <glyph glyph-name="ij" unicode="&#x133;" horiz-adv-x="432" 
d="M83 627v73h50v-73h-50zM87 0v500h42v-500h-42zM299 627v73h50v-73h-50zM303 -21v521h42v-520q0 -58 -17 -98t-44.5 -57.5t-50.5 -23.5t-47 -6q-7 0 -25 2v39q6 -2 22 -2q19 0 36.5 5t38 18.5t33 45t12.5 76.5z" />
    <glyph glyph-name="Jcircumflex" unicode="&#x134;" horiz-adv-x="509" 
d="M35 191v22h43v-23q0 -69 36.5 -115t106.5 -46q61 0 103 38.5t42 122.5v470h-167v40h210v-509q0 -104 -54.5 -153.5t-132.5 -49.5t-132.5 49.5t-54.5 153.5zM198 750l80 111h52l80 -111h-49l-56 80h-2l-56 -80h-49z" />
    <glyph glyph-name="jcircumflex" unicode="&#x135;" horiz-adv-x="216" 
d="M-2 589l80 111h52l80 -111h-49l-56 80h-2l-56 -80h-49zM87 -21v521h42v-520q0 -58 -17 -98t-44.5 -57.5t-50.5 -23.5t-47 -6q-16 0 -25 2v39q14 -2 22 -2q19 0 36.5 5t38 18.5t33 45t12.5 76.5z" />
    <glyph glyph-name="Kcommaaccent" unicode="&#x136;" horiz-adv-x="570" 
d="M107 0v700h43v-312h130l200 312h52l-215 -330v-2l229 -368h-52l-214 348h-130v-348h-43zM276 -66h48q6 -26 6 -47q0 -37 -22 -87h-39q18 47 18 78q0 27 -11 56z" />
    <glyph glyph-name="kcommaaccent" unicode="&#x137;" horiz-adv-x="473" 
d="M87 0v700h42v-397h89l162 197h55l-181 -215v-2l198 -283h-53l-181 264h-89v-264h-42zM225 -66h48q6 -26 6 -47q0 -37 -22 -87h-39q18 47 18 78q0 27 -11 56z" />
    <glyph glyph-name="kgreenlandic" unicode="&#x138;" horiz-adv-x="471" 
d="M87 0v500h42v-213h86l173 213h57l-191 -230v-2l188 -268h-55l-172 250h-86v-250h-42z" />
    <glyph glyph-name="Lacute" unicode="&#x139;" horiz-adv-x="508" 
d="M107 0v700h43v-660h334v-40h-377zM106 750l67 111h56l-79 -111h-44z" />
    <glyph glyph-name="lacute" unicode="&#x13a;" horiz-adv-x="227" 
d="M87 101v599h42v-586q0 -78 59 -78q9 0 15 1v-39q-8 -2 -18 -2q-14 0 -28 3.5t-31.5 13.5t-28 32.5t-10.5 55.5zM87 750l67 111h56l-79 -111h-44z" />
    <glyph glyph-name="Lcommaaccent" unicode="&#x13b;" horiz-adv-x="508" 
d="M107 0v700h43v-660h334v-40h-377zM278 -66h48q6 -26 6 -47q0 -37 -22 -87h-39q18 47 18 78q0 27 -11 56z" />
    <glyph glyph-name="lcommaaccent" unicode="&#x13c;" horiz-adv-x="227" 
d="M87 101v599h42v-586q0 -78 59 -78q9 0 15 1v-39q-8 -2 -18 -2q-14 0 -28 3.5t-31.5 13.5t-28 32.5t-10.5 55.5zM116 -66h48q6 -26 6 -47q0 -37 -22 -87h-39q18 47 18 78q0 27 -11 56z" />
    <glyph glyph-name="Lcaron" unicode="&#x13d;" horiz-adv-x="508" 
d="M107 0v700h43v-660h334v-40h-377zM247 700h48q6 -26 6 -47q0 -37 -22 -87h-39q18 47 18 78q0 27 -11 56z" />
    <glyph glyph-name="lcaron" unicode="&#x13e;" horiz-adv-x="227" 
d="M87 101v599h42v-586q0 -78 59 -78q9 0 15 1v-39q-8 -2 -18 -2q-14 0 -28 3.5t-31.5 13.5t-28 32.5t-10.5 55.5zM197 700h48q6 -26 6 -47q0 -37 -22 -87h-39q18 47 18 78q0 27 -11 56z" />
    <glyph glyph-name="Ldot" unicode="&#x13f;" horiz-adv-x="508" 
d="M107 0v700h43v-660h334v-40h-377zM283 334v63h61v-63h-61z" />
    <glyph glyph-name="ldot" unicode="&#x140;" horiz-adv-x="233" 
d="M87 101v599h42v-586q0 -78 59 -78q9 0 15 1v-39q-8 -2 -18 -2q-14 0 -28 3.5t-31.5 13.5t-28 32.5t-10.5 55.5zM194 334v63h61v-63h-61z" />
    <glyph glyph-name="Lslash" unicode="&#x141;" horiz-adv-x="514" 
d="M113 0v370l-65 -37v47l65 37v283h43v-258l115 67v-48l-115 -66v-355h334v-40h-377z" />
    <glyph glyph-name="lslash" unicode="&#x142;" horiz-adv-x="251" 
d="M15 333v47l89 51v269h42v-244l92 53v-48l-92 -53v-294q0 -78 59 -78l15 1v-39q-9 -2 -18 -2q-14 0 -28 3.5t-31.5 13.5t-28 32.5t-10.5 55.5v283z" />
    <glyph glyph-name="Nacute" unicode="&#x143;" horiz-adv-x="750" 
d="M107 0v700h40l399 -549l57 -88h2q-5 53 -5 88v549h43v-700h-40l-399 549l-57 88h-2q5 -53 5 -88v-549h-43zM352 750l67 111h56l-79 -111h-44z" />
    <glyph glyph-name="nacute" unicode="&#x144;" horiz-adv-x="586" 
d="M87 0v500h42v-88l-4 -41h2q17 48 73 94.5t139 46.5q92 0 128.5 -49.5t36.5 -145.5v-317h-42v302q0 30 -2 51.5t-9 45t-20 38.5t-36.5 24.5t-55.5 9.5q-87 0 -148.5 -63.5t-61.5 -158.5v-249h-42zM284 589l67 111h56l-79 -111h-44z" />
    <glyph glyph-name="Ncommaaccent" unicode="&#x145;" horiz-adv-x="750" 
d="M107 0v700h40l399 -549l57 -88h2q-5 53 -5 88v549h43v-700h-40l-399 549l-57 88h-2q5 -53 5 -88v-549h-43zM350 -66h48q6 -26 6 -47q0 -37 -22 -87h-39q18 47 18 78q0 27 -11 56z" />
    <glyph glyph-name="ncommaaccent" unicode="&#x146;" horiz-adv-x="586" 
d="M87 0v500h42v-88l-4 -41h2q17 48 73 94.5t139 46.5q92 0 128.5 -49.5t36.5 -145.5v-317h-42v302q0 30 -2 51.5t-9 45t-20 38.5t-36.5 24.5t-55.5 9.5q-87 0 -148.5 -63.5t-61.5 -158.5v-249h-42zM271 -66h48q6 -26 6 -47q0 -37 -22 -87h-39q18 47 18 78q0 27 -11 56z" />
    <glyph glyph-name="Ncaron" unicode="&#x147;" horiz-adv-x="750" 
d="M107 0v700h40l399 -549l57 -88h2q-5 53 -5 88v549h43v-700h-40l-399 549l-57 88h-2q5 -53 5 -88v-549h-43zM349 750l-80 111h49l56 -80h2l56 80h49l-80 -111h-52z" />
    <glyph glyph-name="ncaron" unicode="&#x148;" horiz-adv-x="586" 
d="M87 0v500h42v-88l-4 -41h2q17 48 73 94.5t139 46.5q92 0 128.5 -49.5t36.5 -145.5v-317h-42v302q0 30 -2 51.5t-9 45t-20 38.5t-36.5 24.5t-55.5 9.5q-87 0 -148.5 -63.5t-61.5 -158.5v-249h-42zM281 589l-80 111h49l56 -80h2l56 80h49l-80 -111h-52z" />
    <glyph glyph-name="napostrophe" unicode="&#x149;" horiz-adv-x="586" 
d="M87 0v500h42v-88l-4 -41h2q17 48 73 94.5t139 46.5q92 0 128.5 -49.5t36.5 -145.5v-317h-42v302q0 30 -2 51.5t-9 45t-20 38.5t-36.5 24.5t-55.5 9.5q-87 0 -148.5 -63.5t-61.5 -158.5v-249h-42zM31 700h48q6 -26 6 -47q0 -37 -22 -87h-39q18 47 18 78q0 27 -11 56z" />
    <glyph glyph-name="Eng" unicode="&#x14a;" horiz-adv-x="750" 
d="M107 0v700h40l399 -549l57 -88h2q-5 53 -5 88v549h43v-702q0 -104 -54.5 -153.5t-132.5 -49.5v42q60 0 102 39.5t42 127.5l-396 545l-57 88h-2q5 -53 5 -88v-549h-43z" />
    <glyph glyph-name="eng" unicode="&#x14b;" horiz-adv-x="586" 
d="M87 0v500h42v-83l-2 -41h2q17 47 72 91.5t138 44.5q92 0 128.5 -49.5t36.5 -145.5v-342q0 -58 -17 -98t-44.5 -57.5t-50.5 -23.5t-47 -6l-25 2v39q9 -2 22 -2q19 0 36.5 5t38 18.5t33 45t12.5 76.5v328q0 30 -2 51.5t-9 45t-20 38.5t-36.5 24.5t-55.5 9.5
q-89 0 -149.5 -65t-60.5 -157v-249h-42z" />
    <glyph glyph-name="Omacron" unicode="&#x14c;" horiz-adv-x="826" 
d="M59 355q0 151 102 254t252 103t252 -103t102 -254q0 -155 -102 -261t-252 -106t-252 106t-102 261zM104 355q0 -138 88.5 -232t220.5 -94t220.5 94t88.5 232q0 135 -88.5 225.5t-220.5 90.5t-220.5 -90.5t-88.5 -225.5zM294 786v40h239v-40h-239z" />
    <glyph glyph-name="omacron" unicode="&#x14d;" horiz-adv-x="620" 
d="M51 253q0 109 75.5 184t183.5 75t183.5 -75t75.5 -184q0 -111 -75.5 -188t-183.5 -77t-183.5 77t-75.5 188zM95 253q0 -95 62.5 -159.5t152.5 -64.5t152.5 64.5t62.5 159.5q0 92 -62.5 155t-152.5 63t-152.5 -63t-62.5 -155zM191 625v40h239v-40h-239z" />
    <glyph glyph-name="Obreve" unicode="&#x14e;" horiz-adv-x="826" 
d="M59 355q0 151 102 254t252 103t252 -103t102 -254q0 -155 -102 -261t-252 -106t-252 106t-102 261zM104 355q0 -138 88.5 -232t220.5 -94t220.5 94t88.5 232q0 135 -88.5 225.5t-220.5 90.5t-220.5 -90.5t-88.5 -225.5zM413 747q-41 0 -71 25.5t-30 72.5v16h40v-14
q0 -31 17 -46.5t44 -15.5q26 0 43.5 15.5t17.5 47.5v13h40v-16q0 -47 -30 -72.5t-71 -25.5z" />
    <glyph glyph-name="obreve" unicode="&#x14f;" horiz-adv-x="620" 
d="M51 253q0 109 75.5 184t183.5 75t183.5 -75t75.5 -184q0 -111 -75.5 -188t-183.5 -77t-183.5 77t-75.5 188zM95 253q0 -95 62.5 -159.5t152.5 -64.5t152.5 64.5t62.5 159.5q0 92 -62.5 155t-152.5 63t-152.5 -63t-62.5 -155zM310 586q-41 0 -71 25.5t-30 72.5v16h40v-14
q0 -31 17 -46.5t44 -15.5q26 0 43.5 15.5t17.5 47.5v13h40v-16q0 -47 -30 -72.5t-71 -25.5z" />
    <glyph glyph-name="Ohungarumlaut" unicode="&#x150;" horiz-adv-x="826" 
d="M59 355q0 151 102 254t252 103t252 -103t102 -254q0 -155 -102 -261t-252 -106t-252 106t-102 261zM104 355q0 -138 88.5 -232t220.5 -94t220.5 94t88.5 232q0 135 -88.5 225.5t-220.5 90.5t-220.5 -90.5t-88.5 -225.5zM433 750l67 111h56l-79 -111h-44zM318 750l62 111
h50l-65 -111h-47z" />
    <glyph glyph-name="ohungarumlaut" unicode="&#x151;" horiz-adv-x="620" 
d="M51 253q0 109 75.5 184t183.5 75t183.5 -75t75.5 -184q0 -111 -75.5 -188t-183.5 -77t-183.5 77t-75.5 188zM95 253q0 -95 62.5 -159.5t152.5 -64.5t152.5 64.5t62.5 159.5q0 92 -62.5 155t-152.5 63t-152.5 -63t-62.5 -155zM330 589l67 111h56l-79 -111h-44zM215 589
l62 111h50l-65 -111h-47z" />
    <glyph glyph-name="OE" unicode="&#x152;" horiz-adv-x="931" 
d="M60 350q0 153 99 256.5t253 103.5q18 0 60 -5t56 -5h337v-40h-340v-287h279v-40h-279v-293h359v-40h-355q-13 0 -56 -5t-61 -5q-154 0 -253 103t-99 257zM105 350q0 -138 85 -228.5t222 -90.5q16 0 33.5 2t26.5 4l10 2v622q-33 8 -70 8q-137 0 -222 -91t-85 -228z" />
    <glyph glyph-name="oe" unicode="&#x153;" horiz-adv-x="1022" 
d="M52 249q0 116 75.5 189.5t182.5 73.5q77 0 140 -40t94 -109h2q29 71 88.5 110t133.5 39q97 0 150.5 -65.5t53.5 -162.5l-2 -27h-401q3 -108 64 -168t150 -60t155 63l23 -35q-33 -32 -81 -50.5t-97 -18.5q-79 0 -142.5 40t-93.5 110h-2q-31 -70 -94 -110t-141 -40
q-108 0 -183 72.5t-75 188.5zM572 296h356q-4 87 -49 132t-112 45q-73 0 -127.5 -46.5t-67.5 -130.5zM96 249q0 -98 62 -159t152 -61t152.5 62t62.5 163q0 96 -63 156.5t-152 60.5q-90 0 -152 -62t-62 -160z" />
    <glyph glyph-name="Racute" unicode="&#x154;" horiz-adv-x="607" 
d="M107 0v700h205q84 0 126 -21q45 -22 71 -66t26 -102q0 -74 -39 -126.5t-101 -66.5v-2q7 -8 16 -25l157 -291h-51l-166 310h-201v-310h-43zM150 350h190q68 0 109 44.5t41 116.5q0 46 -22 82t-60 53q-31 14 -98 14h-160v-310zM274 750l67 111h56l-79 -111h-44z" />
    <glyph glyph-name="racute" unicode="&#x155;" horiz-adv-x="340" 
d="M87 0v500h42v-95l-4 -41h2q20 61 62 100.5t98 39.5q15 0 29 -3v-42q-6 2 -23 2q-55 0 -94 -41t-54.5 -94.5t-15.5 -109.5v-216h-42zM182 589l67 111h56l-79 -111h-44z" />
    <glyph glyph-name="Rcommaaccent" unicode="&#x156;" horiz-adv-x="607" 
d="M107 0v700h205q84 0 126 -21q45 -22 71 -66t26 -102q0 -74 -39 -126.5t-101 -66.5v-2q7 -8 16 -25l157 -291h-51l-166 310h-201v-310h-43zM150 350h190q68 0 109 44.5t41 116.5q0 46 -22 82t-60 53q-31 14 -98 14h-160v-310zM292 -66h48q6 -26 6 -47q0 -37 -22 -87h-39
q18 47 18 78q0 27 -11 56z" />
    <glyph glyph-name="rcommaaccent" unicode="&#x157;" horiz-adv-x="340" 
d="M87 0v500h42v-95l-4 -41h2q20 61 62 100.5t98 39.5q15 0 29 -3v-42q-6 2 -23 2q-55 0 -94 -41t-54.5 -94.5t-15.5 -109.5v-216h-42zM85 -66h48q6 -26 6 -47q0 -37 -22 -87h-39q18 47 18 78q0 27 -11 56z" />
    <glyph glyph-name="Rcaron" unicode="&#x158;" horiz-adv-x="607" 
d="M107 0v700h205q84 0 126 -21q45 -22 71 -66t26 -102q0 -74 -39 -126.5t-101 -66.5v-2q7 -8 16 -25l157 -291h-51l-166 310h-201v-310h-43zM150 350h190q68 0 109 44.5t41 116.5q0 46 -22 82t-60 53q-31 14 -98 14h-160v-310zM271 750l-80 111h49l56 -80h2l56 80h49
l-80 -111h-52z" />
    <glyph glyph-name="rcaron" unicode="&#x159;" horiz-adv-x="340" 
d="M87 0v500h42v-95l-4 -41h2q20 61 62 100.5t98 39.5q15 0 29 -3v-42q-6 2 -23 2q-55 0 -94 -41t-54.5 -94.5t-15.5 -109.5v-216h-42zM179 589l-80 111h49l56 -80h2l56 80h49l-80 -111h-52z" />
    <glyph glyph-name="Sacute" unicode="&#x15a;" horiz-adv-x="524" 
d="M52 75l29 33q78 -78 184 -78q70 0 114.5 38t44.5 100q0 54 -37 91.5t-89.5 60l-105 46t-89.5 65t-37 101.5q0 81 60.5 130.5t150.5 49.5q109 0 177 -65l-24 -37q-28 28 -70.5 44t-84.5 16q-68 0 -116 -37t-48 -98q0 -51 37 -86.5t89.5 -57t105 -45.5t89.5 -67t37 -106
q0 -81 -55.5 -133t-149.5 -52q-125 0 -212 87zM241 750l67 111h56l-79 -111h-44z" />
    <glyph glyph-name="sacute" unicode="&#x15b;" horiz-adv-x="430" 
d="M41 60l27 32q60 -63 155 -63q49 0 82 25t33 69q0 35 -28.5 59t-69 39t-80.5 32t-68.5 48t-28.5 76q0 64 46 99.5t114 35.5q95 0 148 -54l-25 -34q-44 47 -126 47q-47 0 -80 -22.5t-33 -68.5q0 -36 28.5 -60t69 -39.5l80.5 -32t68.5 -48t28.5 -77.5q0 -60 -45 -97.5
t-115 -37.5q-115 0 -181 72zM197 589l67 111h56l-79 -111h-44z" />
    <glyph glyph-name="Scircumflex" unicode="&#x15c;" horiz-adv-x="524" 
d="M52 75l29 33q78 -78 184 -78q70 0 114.5 38t44.5 100q0 54 -37 91.5t-89.5 60l-105 46t-89.5 65t-37 101.5q0 81 60.5 130.5t150.5 49.5q109 0 177 -65l-24 -37q-28 28 -70.5 44t-84.5 16q-68 0 -116 -37t-48 -98q0 -51 37 -86.5t89.5 -57t105 -45.5t89.5 -67t37 -106
q0 -81 -55.5 -133t-149.5 -52q-125 0 -212 87zM159 750l80 111h52l80 -111h-49l-56 80h-2l-56 -80h-49z" />
    <glyph glyph-name="scircumflex" unicode="&#x15d;" horiz-adv-x="430" 
d="M41 60l27 32q60 -63 155 -63q49 0 82 25t33 69q0 35 -28.5 59t-69 39t-80.5 32t-68.5 48t-28.5 76q0 64 46 99.5t114 35.5q95 0 148 -54l-25 -34q-44 47 -126 47q-47 0 -80 -22.5t-33 -68.5q0 -36 28.5 -60t69 -39.5l80.5 -32t68.5 -48t28.5 -77.5q0 -60 -45 -97.5
t-115 -37.5q-115 0 -181 72zM115 589l80 111h52l80 -111h-49l-56 80h-2l-56 -80h-49z" />
    <glyph glyph-name="Scedilla" unicode="&#x15e;" horiz-adv-x="525" 
d="M228 -93l17 82q-115 6 -193 86l29 33q78 -78 184 -78q70 0 114.5 38t44.5 100q0 54 -37 91.5t-89.5 60l-105 46t-89.5 65t-37 101.5q0 81 60.5 130.5t150.5 49.5q109 0 177 -65l-24 -37q-28 28 -70.5 44t-84.5 16q-68 0 -116 -37t-48 -98q0 -51 37 -86.5t89.5 -57
t105 -45.5t89.5 -67t37 -106q0 -77 -50.5 -128.5t-137.5 -55.5l-9 -49q31 -5 50 -23t19 -45q0 -39 -26 -57.5t-65 -18.5q-25 0 -44 4v38q17 -5 41 -5q54 0 54 37q0 38 -61 38z" />
    <glyph glyph-name="scedilla" unicode="&#x15f;" horiz-adv-x="432" 
d="M183 -93l17 82q-102 9 -158 71l27 32q60 -63 155 -63q49 0 82 25t33 69q0 35 -28.5 59t-68.5 39t-80.5 32t-69 48t-28.5 76q0 64 46 99.5t114 35.5q95 0 148 -54l-25 -34q-44 47 -126 47q-47 0 -80 -22.5t-33 -68.5q0 -36 28.5 -60t69 -39.5l80.5 -32t68.5 -48
t28.5 -77.5q0 -56 -41.5 -93t-105.5 -41l-9 -49q31 -5 50 -23t19 -45q0 -39 -26 -57.5t-65 -18.5q-25 0 -44 4v38q17 -5 41 -5q54 0 54 37q0 38 -61 38z" />
    <glyph glyph-name="Scaron" unicode="&#x160;" horiz-adv-x="524" 
d="M52 75l29 33q78 -78 184 -78q70 0 114.5 38t44.5 100q0 54 -37 91.5t-89.5 60l-105 46t-89.5 65t-37 101.5q0 81 60.5 130.5t150.5 49.5q109 0 177 -65l-24 -37q-28 28 -70.5 44t-84.5 16q-68 0 -116 -37t-48 -98q0 -51 37 -86.5t89.5 -57t105 -45.5t89.5 -67t37 -106
q0 -81 -55.5 -133t-149.5 -52q-125 0 -212 87zM239 750l-80 111h49l56 -80h2l56 80h49l-80 -111h-52z" />
    <glyph glyph-name="scaron" unicode="&#x161;" horiz-adv-x="430" 
d="M41 60l27 32q60 -63 155 -63q49 0 82 25t33 69q0 35 -28.5 59t-69 39t-80.5 32t-68.5 48t-28.5 76q0 64 46 99.5t114 35.5q95 0 148 -54l-25 -34q-44 47 -126 47q-47 0 -80 -22.5t-33 -68.5q0 -36 28.5 -60t69 -39.5l80.5 -32t68.5 -48t28.5 -77.5q0 -60 -45 -97.5
t-115 -37.5q-115 0 -181 72zM195 589l-80 111h49l56 -80h2l56 80h49l-80 -111h-52z" />
    <glyph glyph-name="Tcommaaccent" unicode="&#x162;" horiz-adv-x="601" 
d="M279 0v660h-261v40h565v-40h-261v-660h-5l-11 -60q31 -5 50 -23t19 -45q0 -39 -26 -57.5t-65 -18.5q-25 0 -44 4v38q17 -5 41 -5q54 0 54 37q0 38 -61 38l-12 -1l20 93h-3z" />
    <glyph glyph-name="tcommaaccent" unicode="&#x163;" horiz-adv-x="304" 
d="M152 -93l24 110q-74 43 -74 164v278h-66v38h66v142h42v-142h131v-38h-131v-275q0 -46 12.5 -78t32.5 -46.5t37.5 -19.5t36.5 -5q15 0 23 2v-39q-8 -2 -25 -2q-26 0 -54 7l-11 -63q31 -5 50 -23t19 -45q0 -39 -26 -57.5t-65 -18.5q-25 0 -44 4v38q17 -5 41 -5q54 0 54 37
q0 38 -61 38z" />
    <glyph glyph-name="Tcaron" unicode="&#x164;" horiz-adv-x="601" 
d="M279 0v660h-261v40h565v-40h-261v-660h-43zM274 750l-80 111h49l56 -80h2l56 80h49l-80 -111h-52z" />
    <glyph glyph-name="tcaron" unicode="&#x165;" horiz-adv-x="304" 
d="M102 181v278h-66v38h66v142h42v-142h131v-38h-131v-275q0 -46 12.5 -78t32.5 -46.5t37.5 -19.5t36.5 -5q15 0 23 2v-39q-8 -2 -25 -2q-19 0 -37 3t-41 14.5t-40 30.5t-29 54.5t-12 82.5zM217 700h48q6 -26 6 -47q0 -37 -22 -87h-39q18 47 18 78q0 27 -11 56z" />
    <glyph glyph-name="Tbar" unicode="&#x166;" horiz-adv-x="611" 
d="M284 0v337h-166v40h166v283h-261v40h565v-40h-261v-283h170v-40h-170v-337h-43z" />
    <glyph glyph-name="tbar" unicode="&#x167;" horiz-adv-x="309" 
d="M38 295v40h66v124h-66v38h66v142h42v-142h131v-38h-131v-124h131v-40h-131v-111q0 -46 12.5 -78t32.5 -46.5t37.5 -19.5t36.5 -5l23 2v-39q-10 -2 -25 -2q-19 0 -37 3t-41 14.5t-40 30.5t-29 54.5t-12 82.5v114h-66z" />
    <glyph glyph-name="Utilde" unicode="&#x168;" horiz-adv-x="721" 
d="M99 240v460h43v-458q0 -98 59 -155.5t159 -57.5t159.5 57.5t59.5 157.5v456h43v-460q0 -115 -72.5 -183.5t-188.5 -68.5q-117 0 -189.5 69t-72.5 183zM216 753q0 108 83 108q23 0 41.5 -11.5t29 -25.5t25.5 -25.5t30 -11.5q40 0 40 71h40q0 -108 -83 -108
q-23 0 -41.5 11.5t-29 25.5t-25.5 25.5t-30 11.5q-40 0 -40 -71h-40z" />
    <glyph glyph-name="utilde" unicode="&#x169;" horiz-adv-x="580" 
d="M81 183v317h42v-302q0 -30 2 -51.5t9 -45t20 -38.5t36.5 -24.5t55.5 -9.5q90 0 147.5 67.5t57.5 159.5v244h42v-500h-42v88l4 41h-2q-17 -48 -72 -94.5t-135 -46.5q-89 0 -127 48t-38 147zM143 592q0 108 83 108q23 0 41.5 -11.5t29 -25.5t25.5 -25.5t30 -11.5
q40 0 40 71h40q0 -108 -83 -108q-23 0 -41.5 11.5t-29 25.5t-25.5 25.5t-30 11.5q-40 0 -40 -71h-40z" />
    <glyph glyph-name="Umacron" unicode="&#x16a;" horiz-adv-x="721" 
d="M99 240v460h43v-458q0 -98 59 -155.5t159 -57.5t159.5 57.5t59.5 157.5v456h43v-460q0 -115 -72.5 -183.5t-188.5 -68.5q-117 0 -189.5 69t-72.5 183zM241 786v40h239v-40h-239z" />
    <glyph glyph-name="umacron" unicode="&#x16b;" horiz-adv-x="580" 
d="M81 183v317h42v-302q0 -30 2 -51.5t9 -45t20 -38.5t36.5 -24.5t55.5 -9.5q90 0 147.5 67.5t57.5 159.5v244h42v-500h-42v88l4 41h-2q-17 -48 -72 -94.5t-135 -46.5q-89 0 -127 48t-38 147zM168 625v40h239v-40h-239z" />
    <glyph glyph-name="Ubreve" unicode="&#x16c;" horiz-adv-x="721" 
d="M99 240v460h43v-458q0 -98 59 -155.5t159 -57.5t159.5 57.5t59.5 157.5v456h43v-460q0 -115 -72.5 -183.5t-188.5 -68.5q-117 0 -189.5 69t-72.5 183zM360 747q-41 0 -71 25.5t-30 72.5v16h40v-14q0 -31 17 -46.5t44 -15.5q26 0 43.5 15.5t17.5 47.5v13h40v-16
q0 -47 -30 -72.5t-71 -25.5z" />
    <glyph glyph-name="ubreve" unicode="&#x16d;" horiz-adv-x="580" 
d="M81 183v317h42v-302q0 -30 2 -51.5t9 -45t20 -38.5t36.5 -24.5t55.5 -9.5q90 0 147.5 67.5t57.5 159.5v244h42v-500h-42v88l4 41h-2q-17 -48 -72 -94.5t-135 -46.5q-89 0 -127 48t-38 147zM287 586q-41 0 -71 25.5t-30 72.5v16h40v-14q0 -31 17 -46.5t44 -15.5
q26 0 43.5 15.5t17.5 47.5v13h40v-16q0 -47 -30 -72.5t-71 -25.5z" />
    <glyph glyph-name="Uring" unicode="&#x16e;" horiz-adv-x="721" 
d="M99 240v460h43v-458q0 -98 59 -155.5t159 -57.5t159.5 57.5t59.5 157.5v456h43v-460q0 -115 -72.5 -183.5t-188.5 -68.5q-117 0 -189.5 69t-72.5 183zM360 740q-28 0 -47.5 19t-19.5 48t19.5 48t47.5 19t47.5 -19t19.5 -48t-19.5 -48t-47.5 -19zM360 775q14 0 23 9t9 23
q0 15 -9 24t-23 9t-23 -9t-9 -24q0 -14 9 -23t23 -9z" />
    <glyph glyph-name="uring" unicode="&#x16f;" horiz-adv-x="580" 
d="M81 183v317h42v-302q0 -30 2 -51.5t9 -45t20 -38.5t36.5 -24.5t55.5 -9.5q90 0 147.5 67.5t57.5 159.5v244h42v-500h-42v88l4 41h-2q-17 -48 -72 -94.5t-135 -46.5q-89 0 -127 48t-38 147zM287 579q-29 0 -48 19.5t-19 47.5t19 47.5t48 19.5t48 -19.5t19 -47.5t-19 -47.5
t-48 -19.5zM287 614q14 0 23 9t9 23q0 15 -9 24t-23 9t-23 -9t-9 -24q0 -14 9 -23t23 -9z" />
    <glyph glyph-name="Uhungarumlaut" unicode="&#x170;" horiz-adv-x="721" 
d="M99 240v460h43v-458q0 -98 59 -155.5t159 -57.5t159.5 57.5t59.5 157.5v456h43v-460q0 -115 -72.5 -183.5t-188.5 -68.5q-117 0 -189.5 69t-72.5 183zM380 750l67 111h56l-79 -111h-44zM265 750l62 111h50l-65 -111h-47z" />
    <glyph glyph-name="uhungarumlaut" unicode="&#x171;" horiz-adv-x="580" 
d="M81 183v317h42v-302q0 -30 2 -51.5t9 -45t20 -38.5t36.5 -24.5t55.5 -9.5q90 0 147.5 67.5t57.5 159.5v244h42v-500h-42v88l4 41h-2q-17 -48 -72 -94.5t-135 -46.5q-89 0 -127 48t-38 147zM307 589l67 111h56l-79 -111h-44zM192 589l62 111h50l-65 -111h-47z" />
    <glyph glyph-name="Uogonek" unicode="&#x172;" horiz-adv-x="721" 
d="M99 240v460h43v-458q0 -98 59 -155.5t159 -57.5t159.5 57.5t59.5 157.5v456h43v-460q0 -85 -35.5 -136t-95.5 -89q-37 -23 -56 -37t-37 -38t-18 -49q0 -22 17 -36t34 -17l17 -3l-9 -39q-4 0 -11 1t-25 6.5t-32 14.5t-25 27t-11 42q0 51 53 102q-18 -1 -27 -1
q-117 0 -189.5 69t-72.5 183z" />
    <glyph glyph-name="uogonek" unicode="&#x173;" horiz-adv-x="580" 
d="M81 183v317h42v-302q0 -30 2 -51.5t9 -45t20 -38.5t36.5 -24.5t55.5 -9.5q90 0 147.5 67.5t57.5 159.5v244h42v-500q-80 -59 -80 -109q0 -22 17 -36t34 -17l17 -3l-9 -39q-4 0 -11 1t-25 6.5t-32 14.5t-25 27t-11 42q0 63 83 120v81l4 41h-2q-17 -48 -72 -94.5
t-135 -46.5q-89 0 -127 48t-38 147z" />
    <glyph glyph-name="Wcircumflex" unicode="&#x174;" horiz-adv-x="914" 
d="M225 0l-184 700h45l148 -570l17 -75h2q9 40 19 75l160 570h48l160 -570l19 -75h2q8 41 17 75l153 570h45l-189 -700h-54l-148 528l-27 111h-4q-14 -66 -27 -111l-148 -528h-54zM361 750l80 111h52l80 -111h-49l-56 80h-2l-56 -80h-49z" />
    <glyph glyph-name="wcircumflex" unicode="&#x175;" horiz-adv-x="823" 
d="M210 0l-176 500h45l136 -392l17 -54h2q9 30 17 54l137 390h47l137 -390l17 -54h2q8 29 17 54l136 392h45l-176 -500h-45l-139 388l-17 54h-2q-8 -30 -17 -54l-138 -388h-45zM305 589l80 111h52l80 -111h-49l-56 80h-2l-56 -80h-49z" />
    <glyph glyph-name="Ycircumflex" unicode="&#x176;" horiz-adv-x="567" 
d="M262 0v304l-238 396h49l166 -276l43 -79h2q22 45 43 79l166 276h49l-237 -396v-304h-43zM177 750l80 111h52l80 -111h-49l-56 80h-2l-56 -80h-49z" />
    <glyph glyph-name="ycircumflex" unicode="&#x177;" horiz-adv-x="517" 
d="M41 -146q28 -24 62 -24q60 0 98 90l36 83l-207 497h45l165 -399l18 -47h2q7 23 17 47l165 399h45l-257 -617q-39 -93 -127 -93q-21 0 -41.5 7t-29.5 14l-10 7zM154 589l80 111h52l80 -111h-49l-56 80h-2l-56 -80h-49z" />
    <glyph glyph-name="Ydieresis" unicode="&#x178;" horiz-adv-x="567" 
d="M262 0v304l-238 396h49l166 -276l43 -79h2q22 45 43 79l166 276h49l-237 -396v-304h-43zM323 788v73h46v-73h-46zM186 788v73h46v-73h-46z" />
    <glyph glyph-name="Zacute" unicode="&#x179;" horiz-adv-x="565" 
d="M35 0v34l385 562l48 64v2q-16 -2 -51 -2h-361v40h464v-34l-385 -562l-48 -64v-2q16 2 51 2h385v-40h-488zM271 750l67 111h56l-79 -111h-44z" />
    <glyph glyph-name="zacute" unicode="&#x17a;" horiz-adv-x="487" 
d="M38 0v34l303 381l39 46v2q-18 -2 -51 -2h-278v39h386v-34l-304 -381l-40 -46v-2q19 2 52 2h303v-39h-410zM219 589l67 111h56l-79 -111h-44z" />
    <glyph glyph-name="Zdotaccent" unicode="&#x17b;" horiz-adv-x="565" 
d="M35 0v34l385 562l48 64v2q-16 -2 -51 -2h-361v40h464v-34l-385 -562l-48 -64v-2q16 2 51 2h385v-40h-488zM271 788v73h46v-73h-46z" />
    <glyph glyph-name="zdotaccent" unicode="&#x17c;" horiz-adv-x="487" 
d="M38 0v34l303 381l39 46v2q-18 -2 -51 -2h-278v39h386v-34l-304 -381l-40 -46v-2q19 2 52 2h303v-39h-410zM220 627v73h46v-73h-46z" />
    <glyph glyph-name="Zcaron" unicode="&#x17d;" horiz-adv-x="565" 
d="M35 0v34l385 562l48 64v2q-16 -2 -51 -2h-361v40h464v-34l-385 -562l-48 -64v-2q16 2 51 2h385v-40h-488zM268 750l-80 111h49l56 -80h2l56 80h49l-80 -111h-52z" />
    <glyph glyph-name="zcaron" unicode="&#x17e;" horiz-adv-x="487" 
d="M38 0v34l303 381l39 46v2q-18 -2 -51 -2h-278v39h386v-34l-304 -381l-40 -46v-2q19 2 52 2h303v-39h-410zM217 589l-80 111h49l56 -80h2l56 80h49l-80 -111h-52z" />
    <glyph glyph-name="longs" unicode="&#x17f;" horiz-adv-x="251" 
d="M102 0v459h-63v38h63v23q0 58 17 98t44.5 57t50 23.5t46.5 6.5l26 -2v-39q-9 2 -23 2q-19 0 -36 -5t-37.5 -18.5t-33 -45t-12.5 -76.5v-521h-42z" />
    <glyph glyph-name="florin" unicode="&#x192;" horiz-adv-x="560" 
d="M36 -57q27 -5 62 -5q14 0 28 2.5t32 11.5t31.5 24t24.5 42.5t14 64.5l26 295h-96v38h99l10 111q4 47 19 82.5t34 54.5t43.5 30.5t43 14.5t36.5 3q19 0 39 -2t31 -4l11 -1v-39q-42 7 -82 7q-19 0 -36.5 -5t-39 -18.5t-36.5 -45t-19 -76.5l-11 -112h133v-38h-136l-26 -294
q-5 -58 -25.5 -98t-49.5 -57.5t-52 -23.5t-47 -6l-61 5v39z" />
    <glyph glyph-name="Scommaaccent" unicode="&#x218;" horiz-adv-x="524" 
d="M52 75l29 33q78 -78 184 -78q70 0 114.5 38t44.5 100q0 54 -37 91.5t-89.5 60l-105 46t-89.5 65t-37 101.5q0 81 60.5 130.5t150.5 49.5q109 0 177 -65l-24 -37q-28 28 -70.5 44t-84.5 16q-68 0 -116 -37t-48 -98q0 -51 37 -86.5t89.5 -57t105 -45.5t89.5 -67t37 -106
q0 -81 -55.5 -133t-149.5 -52q-125 0 -212 87zM238 -66h48q6 -26 6 -47q0 -37 -22 -87h-39q18 47 18 78q0 27 -11 56z" />
    <glyph glyph-name="scommaaccent" unicode="&#x219;" horiz-adv-x="430" 
d="M41 60l27 32q60 -63 155 -63q49 0 82 25t33 69q0 35 -28.5 59t-69 39t-80.5 32t-68.5 48t-28.5 76q0 64 46 99.5t114 35.5q95 0 148 -54l-25 -34q-44 47 -126 47q-47 0 -80 -22.5t-33 -68.5q0 -36 28.5 -60t69 -39.5l80.5 -32t68.5 -48t28.5 -77.5q0 -60 -45 -97.5
t-115 -37.5q-115 0 -181 72zM195 -66h48q6 -26 6 -47q0 -37 -22 -87h-39q18 47 18 78q0 27 -11 56z" />
    <glyph glyph-name="uni021A" unicode="&#x21a;" horiz-adv-x="601" 
d="M279 0v660h-261v40h565v-40h-261v-660h-43zM277 -66h48q6 -26 6 -47q0 -37 -22 -87h-39q18 47 18 78q0 27 -11 56z" />
    <glyph glyph-name="uni021B" unicode="&#x21b;" horiz-adv-x="304" 
d="M102 181v278h-66v38h66v142h42v-142h131v-38h-131v-275q0 -46 12.5 -78t32.5 -46.5t37.5 -19.5t36.5 -5q15 0 23 2v-39q-8 -2 -25 -2q-19 0 -37 3t-41 14.5t-40 30.5t-29 54.5t-12 82.5zM172 -66h48q6 -26 6 -47q0 -37 -22 -87h-39q18 47 18 78q0 27 -11 56z" />
    <glyph glyph-name="circumflex" unicode="&#x2c6;" horiz-adv-x="508" 
d="M148 750l80 111h52l80 -111h-49l-56 80h-2l-56 -80h-49z" />
    <glyph glyph-name="caron" unicode="&#x2c7;" horiz-adv-x="508" 
d="M228 750l-80 111h49l56 -80h2l56 80h49l-80 -111h-52z" />
    <glyph glyph-name="breve" unicode="&#x2d8;" horiz-adv-x="510" 
d="M255 747q-41 0 -71 25.5t-30 72.5v16h40v-14q0 -31 17 -46.5t44 -15.5q26 0 43.5 15.5t17.5 47.5v13h40v-16q0 -47 -30 -72.5t-71 -25.5z" />
    <glyph glyph-name="dotaccent" unicode="&#x2d9;" horiz-adv-x="510" 
d="M232 788v73h46v-73h-46z" />
    <glyph glyph-name="ring" unicode="&#x2da;" horiz-adv-x="510" 
d="M255 740q-29 0 -48 19t-19 48t19 48t48 19t48 -19t19 -48t-19 -48t-48 -19zM255 775q14 0 23 9t9 23q0 15 -9 24t-23 9t-23 -9t-9 -24q0 -14 9 -23t23 -9z" />
    <glyph glyph-name="ogonek" unicode="&#x2db;" horiz-adv-x="509" 
d="M187 -113q0 22 10 44t24 37.5t28 27.5t24 18l10 6l39 -13l-25 -18t-40 -41.5t-25 -56.5q0 -22 17 -36t34 -17l17 -3l-9 -39q-4 0 -11 1t-25 6.5t-32 14.5t-25 27t-11 42z" />
    <glyph glyph-name="tilde" unicode="&#x2dc;" horiz-adv-x="509" 
d="M110 753q0 108 83 108q23 0 41.5 -11.5t29 -25.5t25.5 -25.5t30 -11.5q40 0 40 71h40q0 -108 -83 -108q-23 0 -41.5 11.5t-29 25.5t-25.5 25.5t-30 11.5q-40 0 -40 -71h-40z" />
    <glyph glyph-name="hungarumlaut" unicode="&#x2dd;" horiz-adv-x="509" 
d="M251 750l67 111h56l-79 -111h-44zM136 750l62 111h50l-65 -111h-47z" />
    <glyph glyph-name="uni0400" unicode="&#x400;" horiz-adv-x="556" 
d="M107 0v700h383v-40h-340v-287h279v-40h-279v-293h359v-40h-402zM302 750l-79 111h56l67 -111h-44z" />
    <glyph glyph-name="uni0401" unicode="&#x401;" horiz-adv-x="556" 
d="M107 0v700h383v-40h-340v-287h279v-40h-279v-293h359v-40h-402zM352 788v73h46v-73h-46zM215 788v73h46v-73h-46z" />
    <glyph glyph-name="uni0402" unicode="&#x402;" horiz-adv-x="718" 
d="M223 0v660h-206v40h493v-40h-244v-259l-1 -30h2q96 46 188 46q107 0 164 -57t57 -151q0 -113 -63.5 -167t-154.5 -54q-19 0 -47 2v39q18 -2 44 -2q75 0 126.5 43t51.5 139q0 76 -44 121.5t-134 45.5q-47 0 -94 -13t-71 -25l-24 -13v-325h-43z" />
    <glyph glyph-name="uni0403" unicode="&#x403;" horiz-adv-x="476" 
d="M107 0v700h353v-40h-310v-660h-43zM252 750l67 111h56l-79 -111h-44z" />
    <glyph glyph-name="uni0404" unicode="&#x404;" horiz-adv-x="717" 
d="M60 355q0 152 99.5 254.5t247.5 102.5q46 0 89 -9t71 -22t49.5 -26t31.5 -22l9 -9l-26 -32q-3 3 -9.5 8.5t-28.5 19t-46 24t-62 19t-77 8.5q-125 0 -211.5 -85t-91.5 -215h422v-40h-421q8 -129 94 -215.5t211 -86.5q42 0 82 10t66.5 23.5t47.5 27.5t31 24l10 10l27 -30
l-11.5 -11.5t-32.5 -25.5t-53.5 -32t-73.5 -25.5t-93 -11.5q-151 0 -251 106.5t-100 260.5z" />
    <glyph glyph-name="uni0405" unicode="&#x405;" horiz-adv-x="524" 
d="M52 75l29 33q78 -78 184 -78q70 0 114.5 38t44.5 100q0 54 -37 91.5t-89.5 60l-105 46t-89.5 65t-37 101.5q0 81 60.5 130.5t150.5 49.5q109 0 177 -65l-24 -37q-28 28 -70.5 44t-84.5 16q-68 0 -116 -37t-48 -98q0 -51 37 -86.5t89.5 -57t105 -45.5t89.5 -67t37 -106
q0 -81 -55.5 -133t-149.5 -52q-125 0 -212 87z" />
    <glyph glyph-name="uni0406" unicode="&#x406;" horiz-adv-x="257" 
d="M107 0v700h43v-700h-43z" />
    <glyph glyph-name="uni0407" unicode="&#x407;" horiz-adv-x="257" 
d="M107 0v700h43v-700h-43zM175 788v73h46v-73h-46zM38 788v73h46v-73h-46z" />
    <glyph glyph-name="uni0408" unicode="&#x408;" horiz-adv-x="509" 
d="M35 191v22h43v-23q0 -69 36.5 -115t106.5 -46q61 0 103 38.5t42 122.5v470h-167v40h210v-509q0 -104 -54.5 -153.5t-132.5 -49.5t-132.5 49.5t-54.5 153.5z" />
    <glyph glyph-name="uni0409" unicode="&#x409;" horiz-adv-x="923" 
d="M22 -8v42q52 7 87.5 48.5t54 118t25.5 166t7 214.5v119h329v-310h148q95 0 153.5 -51.5t58.5 -143.5q0 -89 -59.5 -142t-146.5 -53h-197v660h-244v-79q0 -90 -3 -157.5t-11 -136.5t-23 -117.5t-38.5 -88.5t-58.5 -62t-82 -27zM525 40h150q73 0 119 40.5t46 114.5
q0 72 -46.5 113.5t-118.5 41.5h-150v-310z" />
    <glyph glyph-name="uni040A" unicode="&#x40a;" horiz-adv-x="988" 
d="M107 0v700h43v-311h394v311h43v-310h158q90 0 147.5 -52t57.5 -143q0 -89 -59.5 -142t-146.5 -53h-200v349h-394v-349h-43zM587 40h153q73 0 119 40.5t46 114.5q0 72 -46.5 113.5t-118.5 41.5h-153v-310z" />
    <glyph glyph-name="uni040B" unicode="&#x40b;" horiz-adv-x="712" 
d="M223 0v660h-206v40h492v-40h-243v-264l-2 -33h2q92 54 201 54q189 0 189 -193v-224h-43v217q0 80 -35 119.5t-111 39.5q-59 0 -114.5 -19.5t-86.5 -41.5v-315h-43z" />
    <glyph glyph-name="uni040C" unicode="&#x40c;" horiz-adv-x="571" 
d="M107 0v700h43v-312h130l200 312h52l-215 -330v-2l229 -368h-52l-214 348h-130v-348h-43zM272 750l67 111h56l-79 -111h-44z" />
    <glyph glyph-name="uni040D" unicode="&#x40d;" horiz-adv-x="750" 
d="M107 0v700h43v-549l-5 -88h2q38 59 61 91l395 546h40v-700h-43v549l5 88h-2q-35 -56 -58 -88l-398 -549h-40zM360 750l-79 111h56l67 -111h-44z" />
    <glyph glyph-name="uni040E" unicode="&#x40e;" horiz-adv-x="576" 
d="M90 28l23 34q49 -34 82 -34q35 0 54.5 26t41.5 84l-280 562h48l212 -426l40 -90h2q17 50 32 90l160 426h47l-235 -606q-42 -106 -122 -106q-48 0 -105 40zM285 734q-48 0 -83 29.5t-35 79.5v18h42v-15q0 -34 22 -53t54 -19q31 0 54 19.5t23 53.5v14h41v-18
q0 -50 -35 -79.5t-83 -29.5z" />
    <glyph glyph-name="uni040F" unicode="&#x40f;" horiz-adv-x="717" 
d="M107 0v700h43v-660h417v660h43v-700h-230v-140h-43v140h-230z" />
    <glyph glyph-name="uni0410" unicode="&#x410;" horiz-adv-x="624" 
d="M27 0l262 700h46l262 -700h-46l-91 242h-297l-90 -242h-46zM178 282h267l-106 284l-26 84h-2q-15 -54 -26 -84z" />
    <glyph glyph-name="uni0411" unicode="&#x411;" horiz-adv-x="584" 
d="M107 0v700h382v-40h-339v-260h180q89 0 145.5 -51t56.5 -150q0 -91 -54.5 -145t-140.5 -54h-230zM150 40h183q71 0 112.5 42t41.5 117q0 74 -43 117.5t-112 43.5h-182v-320z" />
    <glyph glyph-name="uni0412" unicode="&#x412;" horiz-adv-x="608" 
d="M107 0v700h235q78 0 127.5 -48t49.5 -127q0 -109 -91 -153v-2q53 -15 86 -63t33 -114q0 -87 -55 -140t-140 -53h-245zM150 388h191q59 0 96 37.5t37 99.5t-36.5 98.5t-97.5 36.5h-190v-272zM150 40h198q71 0 112.5 41t41.5 112q0 70 -43.5 112.5t-111.5 42.5h-197v-308z
" />
    <glyph glyph-name="uni0413" unicode="&#x413;" horiz-adv-x="476" 
d="M107 0v700h353v-40h-310v-660h-43z" />
    <glyph glyph-name="uni0414" unicode="&#x414;" horiz-adv-x="682" 
d="M123 40h394v620h-277v-88q0 -168 -24 -302.5t-93 -229.5zM4 40h70q41 52 67.5 117.5t38 141t15 135t3.5 137.5v129h362v-660h78v-180h-42v140h-549v-140h-43v180z" />
    <glyph glyph-name="uni0415" unicode="&#x415;" horiz-adv-x="556" 
d="M107 0v700h383v-40h-340v-287h279v-40h-279v-293h359v-40h-402z" />
    <glyph glyph-name="uni0416" unicode="&#x416;" horiz-adv-x="819" 
d="M26 0l215 368v2l-201 330h50l188 -312h110v312h43v-312h110l188 312h50l-201 -330v-2l215 -368h-50l-202 348h-110v-348h-43v348h-110l-202 -348h-50z" />
    <glyph glyph-name="uni0417" unicode="&#x417;" horiz-adv-x="530" 
d="M36 74l29 34q29 -34 77 -56t99 -22q80 0 132.5 45t52.5 119q0 70 -47.5 110.5t-118.5 40.5h-89v40h71q65 0 112 40.5t47 104.5q0 61 -38.5 100.5t-116.5 39.5q-95 0 -165 -60l-24 37q80 65 189 65q97 0 148.5 -49t51.5 -130q0 -61 -31.5 -100.5t-77.5 -59.5v-2
q61 -15 97.5 -61.5t36.5 -115.5q0 -92 -65.5 -149t-165.5 -57q-58 0 -114.5 23t-89.5 63z" />
    <glyph glyph-name="uni0418" unicode="&#x418;" horiz-adv-x="750" 
d="M107 0v700h43v-549l-5 -88h2q38 59 61 91l395 546h40v-700h-43v549l5 88h-2q-35 -56 -58 -88l-398 -549h-40z" />
    <glyph glyph-name="uni0419" unicode="&#x419;" horiz-adv-x="750" 
d="M376 734q-48 0 -83 29.5t-35 79.5v18h42v-15q0 -34 22 -53t54 -19q31 0 54 19.5t23 53.5v14h41v-18q0 -50 -35 -79.5t-83 -29.5zM107 0v700h43v-549l-5 -88h2q38 59 61 91l395 546h40v-700h-43v549l5 88h-2q-35 -56 -58 -88l-398 -549h-40z" />
    <glyph glyph-name="uni041A" unicode="&#x41a;" horiz-adv-x="571" 
d="M107 0v700h43v-312h130l200 312h52l-215 -330v-2l229 -368h-52l-214 348h-130v-348h-43z" />
    <glyph glyph-name="uni041B" unicode="&#x41b;" horiz-adv-x="652" 
d="M9 34q52 7 87.5 48.5t54 118t25.5 166t7 214.5v119h362v-700h-43v660h-277v-79q0 -90 -3 -157.5t-11 -136.5t-23 -117.5t-38.5 -88.5t-58.5 -62t-82 -27v42z" />
    <glyph glyph-name="uni041C" unicode="&#x41c;" horiz-adv-x="834" 
d="M80 0l56 700h42l204 -440l34 -79h2q18 45 34 79l204 440h42l56 -700h-43l-43 534l-3 93h-2q-20 -59 -36 -93l-188 -399h-44l-187 399l-37 95h-2q0 -61 -3 -95l-43 -534h-43z" />
    <glyph glyph-name="uni041D" unicode="&#x41d;" horiz-adv-x="744" 
d="M107 0v700h43v-329h444v329h43v-700h-43v331h-444v-331h-43z" />
    <glyph glyph-name="uni041E" unicode="&#x41e;" horiz-adv-x="826" 
d="M59 355q0 150 103.5 253.5t250.5 103.5t250.5 -103.5t103.5 -253.5q0 -154 -103.5 -260.5t-250.5 -106.5t-250.5 106.5t-103.5 260.5zM104 355q0 -137 90 -231.5t219 -94.5t219 94.5t90 231.5q0 134 -90 225t-219 91t-219 -91t-90 -225z" />
    <glyph glyph-name="uni041F" unicode="&#x41f;" horiz-adv-x="734" 
d="M107 0v700h520v-700h-43v660h-434v-660h-43z" />
    <glyph glyph-name="uni0420" unicode="&#x420;" horiz-adv-x="589" 
d="M107 0v700h230q93 0 153 -55.5t60 -148.5q0 -94 -60 -150t-153 -56h-187v-290h-43zM150 330h185q78 0 124 44t46 122t-46 121t-124 43h-185v-330z" />
    <glyph glyph-name="uni0421" unicode="&#x421;" horiz-adv-x="719" 
d="M60 355q0 153 98 255t249 102q156 0 250 -88l-26 -32q-42 37 -102 58t-121 21q-133 0 -218 -89.5t-85 -226.5q0 -139 85.5 -232.5t220.5 -93.5q140 0 237 95l27 -30q-110 -106 -264 -106q-155 0 -253 106t-98 261z" />
    <glyph glyph-name="uni0422" unicode="&#x422;" horiz-adv-x="601" 
d="M279 0v660h-261v40h565v-40h-261v-660h-43z" />
    <glyph glyph-name="uni0423" unicode="&#x423;" horiz-adv-x="576" 
d="M90 28l23 34q49 -34 82 -34q35 0 54.5 26t41.5 84l-280 562h48l212 -426l40 -90h2q17 50 32 90l160 426h47l-235 -606q-42 -106 -122 -106q-48 0 -105 40z" />
    <glyph glyph-name="uni0424" unicode="&#x424;" horiz-adv-x="809" 
d="M49 371q0 136 91.5 214t242.5 78v87h43v-87q151 0 242.5 -78.5t91.5 -213.5q0 -136 -91.5 -214t-242.5 -78v-91h-43v91q-151 0 -242.5 78t-91.5 214zM426 117q135 0 212 66.5t77 187.5t-77 187.5t-212 66.5v-508zM94 371q0 -121 77 -187.5t212 -66.5v508
q-135 0 -212 -66.5t-77 -187.5z" />
    <glyph glyph-name="uni0425" unicode="&#x425;" horiz-adv-x="555" 
d="M21 0l226 370l-201 330h52l134 -223l45 -76h2q23 42 44 76l135 223h52l-203 -330l227 -370h-51l-162 266l-44 74h-2l-43 -75l-160 -265h-51z" />
    <glyph glyph-name="uni0426" unicode="&#x426;" horiz-adv-x="732" 
d="M107 0v700h43v-660h417v660h43v-660h78v-180h-42v140h-539z" />
    <glyph glyph-name="uni0427" unicode="&#x427;" horiz-adv-x="600" 
d="M266 283q-206 0 -206 193v224h43v-217q0 -80 38.5 -119.5t124.5 -39.5q51 0 102 18.5t82 40.5v317h43v-700h-43v305l2 33h-2q-94 -55 -184 -55z" />
    <glyph glyph-name="uni0428" unicode="&#x428;" horiz-adv-x="983" 
d="M107 0v700h43v-660h320v660h43v-660h320v660h43v-700h-769z" />
    <glyph glyph-name="uni0429" unicode="&#x429;" horiz-adv-x="1004" 
d="M107 0v700h43v-660h320v660h43v-660h320v660h43v-660h86v-180h-43v140h-812z" />
    <glyph glyph-name="uni042A" unicode="&#x42a;" horiz-adv-x="652" 
d="M197 0v660h-186v40h229v-300h170q89 0 145.5 -51t56.5 -150q0 -91 -54.5 -145t-140.5 -54h-220zM240 40h173q71 0 112.5 42t41.5 117q0 74 -43 117.5t-112 43.5h-172v-320z" />
    <glyph glyph-name="uni042B" unicode="&#x42b;" horiz-adv-x="785" 
d="M635 0v700h43v-700h-43zM107 0v700h43v-300h170q89 0 145.5 -51t56.5 -150q0 -91 -54.5 -145t-140.5 -54h-220zM150 40h173q71 0 112.5 42t41.5 117q0 74 -43 117.5t-112 43.5h-172v-320z" />
    <glyph glyph-name="uni042C" unicode="&#x42c;" horiz-adv-x="562" 
d="M107 0v700h43v-300h170q89 0 145.5 -51t56.5 -150q0 -91 -54.5 -145t-140.5 -54h-220zM150 40h173q71 0 112.5 42t41.5 117q0 74 -43 117.5t-112 43.5h-172v-320z" />
    <glyph glyph-name="uni042D" unicode="&#x42d;" horiz-adv-x="717" 
d="M42 94l27 30q37 -41 103 -68t135 -27q124 0 210 86.5t94 215.5h-421v40h422q-6 130 -92 215t-212 85q-129 0 -222 -79l-26 32q44 42 111 65t136 23q150 0 250 -102t100 -255q0 -154 -100 -260.5t-250 -106.5q-73 0 -144.5 27.5t-120.5 78.5z" />
    <glyph glyph-name="uni042E" unicode="&#x42e;" horiz-adv-x="1036" 
d="M107 0v700h43v-329h138q6 144 106 242.5t238 98.5q143 0 243.5 -103.5t100.5 -253.5q0 -154 -101 -260.5t-243 -106.5q-137 0 -236 98.5t-107 244.5h-139v-331h-43zM333 355q0 -137 87.5 -231t211.5 -94t211.5 94t87.5 231q0 133 -87.5 224t-211.5 91t-211.5 -91
t-87.5 -224z" />
    <glyph glyph-name="uni042F" unicode="&#x42f;" horiz-adv-x="601" 
d="M33 0l175 288l16 25v2q-73 18 -110.5 69t-37.5 127q0 58 26 102t71 66q42 21 126 21h195v-700h-43v310h-179l-188 -310h-51zM271 350h180v310h-150q-67 0 -98 -14q-38 -17 -60 -53t-22 -82q0 -72 41 -116.5t109 -44.5z" />
    <glyph glyph-name="uni0430" unicode="&#x430;" horiz-adv-x="508" 
d="M41 133q0 35 13 63t32 45.5t49.5 30.5t55.5 19t60 9.5t54 4t46 0.5h33v17q0 149 -137 149q-80 0 -143 -48l-24 34q29 25 75 40t94 15q87 0 132 -48t45 -141v-323h-42v66l4 45h-2q-20 -52 -66.5 -87.5t-108.5 -35.5q-68 0 -119 37.5t-51 107.5zM85 136q0 -43 34 -76
t94 -33q77 0 124 65.5t47 146.5v27h-32q-31 0 -50.5 -0.5t-56 -4t-60 -12t-49 -22t-38.5 -37t-13 -54.5z" />
    <glyph glyph-name="uni0431" unicode="&#x431;" horiz-adv-x="567" 
d="M65 279q0 65 7 112t26.5 92.5t57.5 80.5t96 64l191 95l19 -37l-194 -96q-89 -44 -124.5 -104.5t-42.5 -154.5h2q59 121 198 121q92 0 151 -62t59 -169q0 -103 -61.5 -168t-158.5 -65q-114 0 -170 80t-56 211zM115 223q0 -90 50.5 -142.5t125.5 -52.5t125.5 52t50.5 140
t-49.5 140t-121.5 52q-80 0 -130.5 -54.5t-50.5 -134.5z" />
    <glyph glyph-name="uni0432" unicode="&#x432;" horiz-adv-x="487" 
d="M87 0v500h157q77 0 120.5 -32.5t43.5 -94.5q0 -83 -80 -110v-2q49 -9 78 -42.5t29 -80.5q0 -62 -47 -100t-131 -38h-170zM129 278h117q117 0 117 95q0 89 -121 89h-113v-184zM129 39h124q138 0 138 99q0 50 -36 75.5t-103 25.5h-123v-200z" />
    <glyph glyph-name="uni0433" unicode="&#x433;" horiz-adv-x="396" 
d="M87 0v500h284v-38h-242v-462h-42z" />
    <glyph glyph-name="uni0434" unicode="&#x434;" horiz-adv-x="553" 
d="M121 39h288v423h-198v-33q0 -258 -90 -390zM10 39h61q98 124 98 390v71h282v-461h70v-159h-42v120h-427v-120h-42v159z" />
    <glyph glyph-name="uni0435" unicode="&#x435;" horiz-adv-x="549" 
d="M52 249q0 122 71 192.5t172 70.5q97 0 150.5 -65.5t53.5 -162.5q0 -9 -2 -27h-401q0 -105 61.5 -166.5t152.5 -61.5q92 0 155 63l23 -35q-33 -31 -81.5 -50t-96.5 -19q-109 0 -183.5 72.5t-74.5 188.5zM99 296h356q-4 87 -49 132t-112 45q-73 0 -127.5 -46.5
t-67.5 -130.5z" />
    <glyph glyph-name="uni0436" unicode="&#x436;" horiz-adv-x="692" 
d="M23 0l176 255v2l-159 243h49l146 -224h90v224h42v-224h90l146 224h49l-159 -243v-2l176 -255h-53l-161 237h-88v-237h-42v237h-88l-161 -237h-53z" />
    <glyph glyph-name="uni0437" unicode="&#x437;" horiz-adv-x="431" 
d="M34 60l27 32q57 -64 138 -64q54 0 95 28.5t41 82.5q0 49 -36 75t-103 26h-60v39h54q60 0 93 24.5t33 71.5q0 48 -32 72t-84 24q-72 0 -123 -47l-25 34q62 54 152 54q70 0 113.5 -34t43.5 -99q0 -86 -81 -115v-2q46 -10 72.5 -41t26.5 -81q0 -72 -53 -112t-127 -40
q-95 0 -165 72z" />
    <glyph glyph-name="uni0438" unicode="&#x438;" horiz-adv-x="584" 
d="M87 0v500h42v-356l-3 -81h2l57 81l273 356h39v-500h-42v357l3 78h-2l-57 -78l-273 -357h-39z" />
    <glyph glyph-name="uni0439" unicode="&#x439;" horiz-adv-x="584" 
d="M292 573q-48 0 -83 29.5t-35 79.5v18h42v-15q0 -34 22 -53t54 -19q31 0 54 19.5t23 53.5v14h41v-18q0 -50 -35 -79.5t-83 -29.5zM87 0v500h42v-356l-3 -81h2l57 81l273 356h39v-500h-42v357l3 78h-2l-57 -78l-273 -357h-39z" />
    <glyph glyph-name="uni043A" unicode="&#x43a;" horiz-adv-x="471" 
d="M87 0v500h42v-221h87l164 221h53l-181 -238v-2l201 -260h-55l-182 240h-87v-240h-42z" />
    <glyph glyph-name="uni043B" unicode="&#x43b;" horiz-adv-x="513" 
d="M20 -4v39q68 11 97 89.5t29 226.5v149h280v-500h-42v461h-196v-110q0 -179 -41 -262t-127 -93z" />
    <glyph glyph-name="uni043C" unicode="&#x43c;" horiz-adv-x="705" 
d="M68 0l40 500h40l169 -331l34 -73h2q17 40 34 73l170 331h40l40 -500h-42l-28 347l-1 86h-2q-10 -28 -33 -72l-157 -306h-43l-157 304l-33 74h-2q1 -62 -1 -86l-28 -347h-42z" />
    <glyph glyph-name="uni043D" unicode="&#x43d;" horiz-adv-x="585" 
d="M87 0v500h42v-223h327v223h42v-500h-42v238h-327v-238h-42z" />
    <glyph glyph-name="uni043E" unicode="&#x43e;" horiz-adv-x="620" 
d="M51 253q0 109 75.5 184t183.5 75t183.5 -75t75.5 -184q0 -111 -75.5 -188t-183.5 -77t-183.5 77t-75.5 188zM95 253q0 -95 62.5 -159.5t152.5 -64.5t152.5 64.5t62.5 159.5q0 92 -62.5 155t-152.5 63t-152.5 -63t-62.5 -155z" />
    <glyph glyph-name="uni043F" unicode="&#x43f;" horiz-adv-x="575" 
d="M87 0v500h401v-500h-42v461h-317v-461h-42z" />
    <glyph glyph-name="uni0440" unicode="&#x440;" horiz-adv-x="578" 
d="M87 -200v700h42v-60l-3 -40h2q22 52 70 82t110 30q99 0 157.5 -72t58.5 -190t-62 -190t-160 -72q-57 0 -104 30t-71 83h-2q4 -18 4 -44v-257h-42zM128 249q0 -89 47 -154.5t127 -65.5q76 0 127 59.5t51 161.5q0 100 -48.5 160.5t-125.5 60.5q-76 0 -127 -55.5t-51 -166.5
z" />
    <glyph glyph-name="uni0441" unicode="&#x441;" horiz-adv-x="540" 
d="M52 249q0 116 75.5 189.5t182.5 73.5q50 0 98.5 -18t80.5 -53l-26 -34q-27 29 -68.5 46.5t-84.5 17.5q-90 0 -152 -61.5t-62 -160.5q0 -98 62 -159t152 -61q47 0 92 19t75 53l22 -35q-32 -36 -82.5 -57t-106.5 -21q-109 0 -183.5 72.5t-74.5 188.5z" />
    <glyph glyph-name="uni0442" unicode="&#x442;" horiz-adv-x="472" 
d="M215 0v461h-190v39h422v-39h-190v-461h-42z" />
    <glyph glyph-name="uni0443" unicode="&#x443;" horiz-adv-x="517" 
d="M41 -146q28 -24 62 -24q60 0 98 90l36 83l-207 497h45l165 -399l18 -47h2q7 23 17 47l165 399h45l-257 -617q-39 -93 -127 -93q-21 0 -41.5 7t-29.5 14l-10 7z" />
    <glyph glyph-name="uni0444" unicode="&#x444;" horiz-adv-x="684" 
d="M53 253q0 112 74 182t194 76v189h42v-189q120 -6 194 -76t74 -182q0 -115 -74.5 -186.5t-193.5 -77.5v-189h-42v189q-119 6 -193.5 77.5t-74.5 186.5zM363 29q101 6 162.5 66t61.5 158q0 96 -61.5 154t-162.5 63v-441zM97 253q0 -98 61.5 -158t162.5 -66v441
q-101 -5 -162.5 -63t-61.5 -154z" />
    <glyph glyph-name="uni0445" unicode="&#x445;" horiz-adv-x="462" 
d="M22 0l180 264l-161 236h51l121 -182l17 -28h2l17 28l121 182h51l-161 -236l180 -264h-52l-138 207l-18 29h-2q-8 -14 -18 -29l-138 -207h-52z" />
    <glyph glyph-name="uni0446" unicode="&#x446;" horiz-adv-x="584" 
d="M87 0v500h42v-461h311v461h42v-461h70v-159h-42v120h-423z" />
    <glyph glyph-name="uni0447" unicode="&#x447;" horiz-adv-x="484" 
d="M218 190q-167 0 -167 155v155h42v-155q0 -51 25 -82.5t100 -31.5q76 0 137 45v224h42v-500h-42v199l2 34h-2q-26 -18 -66 -30.5t-71 -12.5z" />
    <glyph glyph-name="uni0448" unicode="&#x448;" horiz-adv-x="780" 
d="M87 0v500h42v-461h240v461h42v-461h240v461h42v-500h-606z" />
    <glyph glyph-name="uni0449" unicode="&#x449;" horiz-adv-x="795" 
d="M87 0v500h42v-461h240v461h42v-461h240v461h42v-461h70v-159h-42v120h-634z" />
    <glyph glyph-name="uni044A" unicode="&#x44a;" horiz-adv-x="518" 
d="M154 0v462h-141v38h183v-200h115q32 0 59.5 -7t53.5 -22.5t41 -46.5t15 -75q0 -68 -43.5 -108.5t-127.5 -40.5h-155zM196 39h113q127 0 127 110q0 112 -125 112h-115v-222z" />
    <glyph glyph-name="uni044B" unicode="&#x44b;" horiz-adv-x="634" 
d="M505 0v500h42v-500h-42zM87 0v500h42v-200h115q32 0 59.5 -7t53.5 -22.5t41 -46.5t15 -75q0 -68 -43.5 -108.5t-127.5 -40.5h-155zM129 39h113q127 0 127 110q0 112 -125 112h-115v-222z" />
    <glyph glyph-name="uni044C" unicode="&#x44c;" horiz-adv-x="451" 
d="M87 0v500h42v-200h115q32 0 59.5 -7t53.5 -22.5t41 -46.5t15 -75q0 -68 -43.5 -108.5t-127.5 -40.5h-155zM129 39h113q127 0 127 110q0 112 -125 112h-115v-222z" />
    <glyph glyph-name="uni044D" unicode="&#x44d;" horiz-adv-x="539" 
d="M40 66l22 35q62 -72 169 -72q84 0 144 55.5t67 145.5h-275v39h275q-7 90 -67.5 146t-143.5 56q-89 0 -155 -64l-26 34q30 34 79 52.5t101 18.5q107 0 182 -73.5t75 -189.5t-74.5 -188.5t-183.5 -72.5q-117 0 -189 78z" />
    <glyph glyph-name="uni044E" unicode="&#x44e;" horiz-adv-x="785" 
d="M87 0v500h42v-231h107q6 103 78 173t171 70q103 0 176 -75t73 -184q0 -111 -73 -188t-176 -77q-98 0 -169 69.5t-79 172.5h-108v-230h-42zM280 253q0 -95 60 -159.5t145 -64.5t145 64.5t60 159.5q0 92 -60 155t-145 63t-145 -63t-60 -155z" />
    <glyph glyph-name="uni044F" unicode="&#x44f;" horiz-adv-x="479" 
d="M35 0l125 177l23 30v2q-49 7 -85.5 44.5t-36.5 98.5q0 72 48.5 110t128.5 38h154v-500h-42v202h-122l-140 -202h-53zM234 240h116v222h-110q-134 0 -134 -110q0 -52 36 -82t92 -30z" />
    <glyph glyph-name="uni0450" unicode="&#x450;" horiz-adv-x="549" 
d="M52 249q0 122 71 192.5t172 70.5q97 0 150.5 -65.5t53.5 -162.5q0 -9 -2 -27h-401q0 -105 61.5 -166.5t152.5 -61.5q92 0 155 63l23 -35q-33 -31 -81.5 -50t-96.5 -19q-109 0 -183.5 72.5t-74.5 188.5zM99 296h356q-4 87 -49 132t-112 45q-73 0 -127.5 -46.5
t-67.5 -130.5zM286 589l-79 111h56l67 -111h-44z" />
    <glyph glyph-name="uni0451" unicode="&#x451;" horiz-adv-x="549" 
d="M52 249q0 122 71 192.5t172 70.5q97 0 150.5 -65.5t53.5 -162.5q0 -9 -2 -27h-401q0 -105 61.5 -166.5t152.5 -61.5q92 0 155 63l23 -35q-33 -31 -81.5 -50t-96.5 -19q-109 0 -183.5 72.5t-74.5 188.5zM99 296h356q-4 87 -49 132t-112 45q-73 0 -127.5 -46.5
t-67.5 -130.5zM334 627v73h46v-73h-46zM197 627v73h46v-73h-46z" />
    <glyph glyph-name="uni0452" unicode="&#x452;" horiz-adv-x="586" 
d="M87 0v576h-66v38h66v86h42v-86h238v-38h-238v-209l-2 -41h2q17 47 72 91.5t138 44.5q92 0 128.5 -49.5t36.5 -145.5v-293q0 -58 -17 -98t-44.5 -57.5t-50.5 -23.5t-47 -6l-25 2v39q9 -2 22 -2q19 0 36.5 5t38 18.5t33 45t12.5 76.5v279q0 30 -2 51.5t-9 45t-20 38.5
t-36.5 24.5t-55.5 9.5q-70 0 -126.5 -44.5t-75.5 -114.5q-8 -28 -8 -68v-194h-42z" />
    <glyph glyph-name="uni0453" unicode="&#x453;" horiz-adv-x="396" 
d="M87 0v500h284v-38h-242v-462h-42zM190 589l67 111h56l-79 -111h-44z" />
    <glyph glyph-name="uni0454" unicode="&#x454;" horiz-adv-x="539" 
d="M52 249q0 116 75.5 189.5t182.5 73.5q53 0 97.5 -18t62.5 -36l19 -17l-26 -34q-6 7 -18.5 17.5t-52 28.5t-82.5 18q-84 0 -144.5 -54t-68.5 -142h275v-39h-276q4 -93 65.5 -150t148.5 -57q49 0 90.5 18t59.5 36l17 18l22 -35q-3 -3 -8 -8.5t-23 -19t-38 -23.5
t-52.5 -18.5t-67.5 -8.5q-109 0 -183.5 72.5t-74.5 188.5z" />
    <glyph glyph-name="uni0455" unicode="&#x455;" horiz-adv-x="430" 
d="M41 60l27 32q60 -63 155 -63q49 0 82 25t33 69q0 35 -28.5 59t-69 39t-80.5 32t-68.5 48t-28.5 76q0 64 46 99.5t114 35.5q95 0 148 -54l-25 -34q-44 47 -126 47q-47 0 -80 -22.5t-33 -68.5q0 -36 28.5 -60t69 -39.5l80.5 -32t68.5 -48t28.5 -77.5q0 -60 -45 -97.5
t-115 -37.5q-115 0 -181 72z" />
    <glyph glyph-name="uni0456" unicode="&#x456;" horiz-adv-x="216" 
d="M83 627v73h50v-73h-50zM87 0v500h42v-500h-42z" />
    <glyph glyph-name="uni0457" unicode="&#x457;" horiz-adv-x="216" 
d="M87 0v500h42v-500h-42zM154 627v73h46v-73h-46zM17 627v73h46v-73h-46z" />
    <glyph glyph-name="uni0458" unicode="&#x458;" horiz-adv-x="216" 
d="M83 627v73h50v-73h-50zM87 -21v521h42v-520q0 -58 -17 -98t-44.5 -57.5t-50.5 -23.5t-47 -6q-7 0 -25 2v39q6 -2 22 -2q19 0 36.5 5t38 18.5t33 45t12.5 76.5z" />
    <glyph glyph-name="uni0459" unicode="&#x459;" horiz-adv-x="705" 
d="M31 -4v39q68 11 97 89.5t29 226.5v149h226v-200h115q32 0 59.5 -7t53.5 -22.5t41 -46.5t15 -75q0 -68 -43.5 -108.5t-127.5 -40.5h-155v461h-142v-110q0 -179 -41 -262t-127 -93zM383 39h113q127 0 127 110q0 112 -125 112h-115v-222z" />
    <glyph glyph-name="uni045A" unicode="&#x45a;" horiz-adv-x="779" 
d="M87 0v500h42v-206h287v206h42v-206h109q25 0 48 -4t46.5 -14t41 -25.5t28.5 -41t11 -58.5q0 -69 -43.5 -110t-127.5 -41h-155v255h-287v-255h-42zM458 39h113q127 0 127 112q0 104 -131 104h-109v-216z" />
    <glyph glyph-name="uni045B" unicode="&#x45b;" horiz-adv-x="586" 
d="M87 0v576h-66v38h66v86h42v-86h238v-38h-238v-209l-2 -41h2q17 47 72 91.5t138 44.5q92 0 128.5 -49.5t36.5 -145.5v-267h-42v252q0 30 -2 51.5t-9 45t-20 38.5t-36.5 24.5t-55.5 9.5q-70 0 -126.5 -44.5t-75.5 -114.5q-8 -28 -8 -68v-194h-42z" />
    <glyph glyph-name="uni045C" unicode="&#x45c;" horiz-adv-x="471" 
d="M87 0v500h42v-221h87l164 221h53l-181 -238v-2l201 -260h-55l-182 240h-87v-240h-42zM214 589l67 111h56l-79 -111h-44z" />
    <glyph glyph-name="uni045D" unicode="&#x45d;" horiz-adv-x="584" 
d="M297 589l-79 111h56l67 -111h-44zM87 0v500h42v-356l-3 -81h2l57 81l273 356h39v-500h-42v357l3 78h-2l-57 -78l-273 -357h-39z" />
    <glyph glyph-name="uni045E" unicode="&#x45e;" horiz-adv-x="517" 
d="M41 -146q28 -24 62 -24q60 0 98 90l36 83l-207 497h45l165 -399l18 -47h2q7 23 17 47l165 399h45l-257 -617q-39 -93 -127 -93q-21 0 -41.5 7t-29.5 14l-10 7zM259 573q-48 0 -83 29.5t-35 79.5v18h42v-15q0 -34 22 -53t54 -19q31 0 54 19.5t23 53.5v14h41v-18
q0 -50 -35 -79.5t-83 -29.5z" />
    <glyph glyph-name="uni045F" unicode="&#x45f;" horiz-adv-x="550" 
d="M87 0v500h42v-461h292v461h42v-500h-167v-120h-42v120h-167z" />
    <glyph glyph-name="uni0462" unicode="&#x462;" horiz-adv-x="668" 
d="M206 0v540h-190v40h190v120h43v-120h203v-40h-203v-140h173q90 0 148.5 -52t58.5 -143q0 -94 -59.5 -149.5t-146.5 -55.5h-217zM249 40h170q73 0 119 43.5t46 121.5q0 72 -46.5 113.5t-118.5 41.5h-170v-320z" />
    <glyph glyph-name="uni0463" unicode="&#x463;" horiz-adv-x="489" 
d="M123 0v462h-121v38h121v200h42v-200h170v-38h-170v-162h115q32 0 59.5 -7t53.5 -22.5t41 -46.5t15 -75q0 -68 -43.5 -108.5t-127.5 -40.5h-155zM165 39h113q127 0 127 110q0 112 -125 112h-115v-222z" />
    <glyph glyph-name="uni0472" unicode="&#x472;" horiz-adv-x="826" 
d="M59 355q0 151 102 254t252 103t252 -103t102 -254q0 -155 -102 -261t-252 -106t-252 106t-102 261zM413 29q127 0 214 87.5t94 218.5h-617q7 -131 94.5 -218.5t214.5 -87.5zM413 671q-127 0 -214 -84t-95 -212h617q-7 127 -94 211.5t-214 84.5z" />
    <glyph glyph-name="uni0473" unicode="&#x473;" horiz-adv-x="620" 
d="M51 253q0 109 75.5 184t183.5 75t183.5 -75t75.5 -184q0 -111 -75.5 -188t-183.5 -77t-183.5 77t-75.5 188zM310 29q84 0 145.5 58.5t68.5 145.5h-429q7 -88 68.5 -146t146.5 -58zM310 471q-85 0 -146.5 -57t-68.5 -142h429q-7 85 -68 142t-146 57z" />
    <glyph glyph-name="uni0474" unicode="&#x474;" horiz-adv-x="680" 
d="M287 0l-262 700h47l210 -566l27 -84h2l27 84l163 471q23 64 49.5 79.5t93.5 15.5h24v-41h-21h-17.5h-16t-13 -0.5t-12 -2.5t-9.5 -5t-10.5 -8l-8.5 -12t-9 -16.5t-8 -21.5l-209 -593h-47z" />
    <glyph glyph-name="uni0475" unicode="&#x475;" horiz-adv-x="539" 
d="M228 0l-197 500h45l154 -392l17 -54h2q9 30 17 54l107 305q17 49 44 68t79 19h21v-41h-21q-37 0 -54 -11.5t-31 -49.5l-143 -398h-40z" />
    <glyph glyph-name="uni048A" unicode="&#x48a;" horiz-adv-x="767" 
d="M107 0v700h43v-549l-5 -88h2q38 59 61 91l395 546h40v-660h90v-33l-60 -147h-40l49 140h-82v549l5 88h-2q-35 -56 -58 -88l-398 -549h-40zM377 734q-48 0 -83 29.5t-35 79.5v18h42v-15q0 -34 22 -53t54 -19q31 0 54 19.5t23 53.5v14h41v-18q0 -50 -35 -79.5t-83 -29.5z
" />
    <glyph glyph-name="uni048B" unicode="&#x48b;" horiz-adv-x="599" 
d="M87 0v500h42v-356l-3 -81h2l57 81l273 356h39v-462h70v-33l-51 -125h-38l42 120h-65v357l3 78h-2l-57 -78l-273 -357h-39zM295 573q-48 0 -83 29.5t-35 79.5v18h42v-15q0 -34 22 -53t54 -19q31 0 54 19.5t23 53.5v14h41v-18q0 -50 -35 -79.5t-83 -29.5z" />
    <glyph glyph-name="uni048C" unicode="&#x48c;" horiz-adv-x="649" 
d="M178 0v586h-164v40h164v124h43v-124h170v-40h-170v-176h183q89 0 148 -55t59 -150q0 -94 -59.5 -149.5t-146.5 -55.5h-227zM221 40h180q73 0 119 43.5t46 121.5q0 77 -46.5 121t-118.5 44h-180v-330z" />
    <glyph glyph-name="uni048D" unicode="&#x48d;" horiz-adv-x="499" 
d="M133 0v462h-121v38h121v200h42v-200h170v-38h-170v-162h115q32 0 59.5 -7t53.5 -22.5t41 -46.5t15 -75q0 -68 -43.5 -108.5t-127.5 -40.5h-155zM175 39h113q127 0 127 110q0 112 -125 112h-115v-222z" />
    <glyph glyph-name="uni048E" unicode="&#x48e;" horiz-adv-x="609" 
d="M107 0v700h230q93 0 153 -55.5t60 -148.5q0 -100 -69 -158l63 -90l-32 -23l-63 91q-49 -26 -112 -26h-187v-290h-43zM354 454l32 23l72 -104q47 44 47 123q0 78 -46 121t-124 43h-185v-330h185q54 0 90 20z" />
    <glyph glyph-name="uni048F" unicode="&#x48f;" horiz-adv-x="588" 
d="M87 -200v700h42v-60l-3 -40h2q2 5 5.5 12.5t18 26.5t33 34t51.5 27t72 12q99 0 157.5 -72t58.5 -190t-63 -191l57 -69l-30 -26l-56 67q-55 -43 -130 -43q-36 0 -67.5 11.5t-50.5 28t-32.5 33.5t-19.5 29l-5 11h-2q4 -18 4 -44v-257h-42zM333 150l30 26l69 -83
q48 59 48 157q0 100 -48.5 160.5t-125.5 60.5q-76 0 -127 -55.5t-51 -166.5q0 -89 47 -154.5t127 -65.5q58 0 102 35z" />
    <glyph glyph-name="uni0490" unicode="&#x490;" horiz-adv-x="477" 
d="M107 0v700h312v80h42v-120h-311v-660h-43z" />
    <glyph glyph-name="uni0491" unicode="&#x491;" horiz-adv-x="386" 
d="M87 0v500h234v70h40v-108h-232v-462h-42z" />
    <glyph glyph-name="uni0492" unicode="&#x492;" horiz-adv-x="488" 
d="M113 0v328h-65v40h65v332h353v-40h-310v-292h163v-40h-163v-328h-43z" />
    <glyph glyph-name="uni0493" unicode="&#x493;" horiz-adv-x="400" 
d="M87 0v231h-64v38h64v231h284v-38h-242v-193h135v-38h-135v-231h-42z" />
    <glyph glyph-name="uni0494" unicode="&#x494;" horiz-adv-x="582" 
d="M107 0v700h353v-40h-310v-282q23 13 67.5 26t83.5 13q37 0 65.5 -5t60.5 -22t53 -46t35 -81.5t14 -123.5q0 -160 -64 -234.5t-164 -74.5v39q36 0 66.5 12.5t58.5 40.5t44 83.5t16 133.5q0 131 -45.5 184.5t-139.5 53.5q-73 0 -151 -39v-338h-43z" />
    <glyph glyph-name="uni0495" unicode="&#x495;" horiz-adv-x="473" 
d="M87 0v500h283v-39h-241v-214q64 33 125 33q51 0 88 -19t55 -51t26 -66.5t8 -73.5q0 -181 -136 -275l-23 34q117 78 117 241q0 75 -31.5 122t-103.5 47q-68 0 -125 -35v-204h-42z" />
    <glyph glyph-name="uni0496" unicode="&#x496;" horiz-adv-x="863" 
d="M26 0l215 368v2l-201 330h50l188 -312h110v312h43v-312h110l188 312h50l-201 -330v-2l191 -328h81v-180h-42v140h-65l-202 348h-110v-348h-43v348h-110l-202 -348h-50z" />
    <glyph glyph-name="uni0497" unicode="&#x497;" horiz-adv-x="724" 
d="M23 0l176 255v2l-159 243h49l146 -224h90v224h42v-224h90l146 224h49l-159 -243v-2l149 -216h62v-159h-42v120h-46l-161 237h-88v-237h-42v237h-88l-161 -237h-53z" />
    <glyph glyph-name="uni0498" unicode="&#x498;" horiz-adv-x="532" 
d="M36 74l29 34q29 -34 77 -56t99 -22q80 0 132.5 45t52.5 119q0 70 -47.5 110.5t-118.5 40.5h-89v40h71q65 0 112 40.5t47 104.5q0 61 -38.5 100.5t-116.5 39.5q-95 0 -165 -60l-24 37q80 65 189 65q97 0 148.5 -49t51.5 -130q0 -61 -31.5 -100.5t-77.5 -59.5v-2
q61 -15 97.5 -61.5t36.5 -115.5q0 -86 -57.5 -141.5t-147.5 -63.5v-129h-42v129q-55 3 -106 25.5t-82 59.5z" />
    <glyph glyph-name="uni0499" unicode="&#x499;" horiz-adv-x="433" 
d="M35 60l27 32q57 -64 138 -64q54 0 95 28.5t41 82.5q0 49 -36 75t-103 26h-60v39h54q60 0 93 24.5t33 71.5q0 48 -32 72t-84 24q-72 0 -123 -47l-25 34q62 54 152 54q70 0 113.5 -34t43.5 -99q0 -86 -81 -115v-2q46 -10 72.5 -41t26.5 -81q0 -64 -42.5 -103t-106.5 -47
v-110h-42v108q-91 5 -154 72z" />
    <glyph glyph-name="uni049A" unicode="&#x49a;" horiz-adv-x="616" 
d="M107 0v700h43v-312h130l200 312h52l-215 -330v-2l204 -328h82v-180h-42v140h-67l-214 348h-130v-348h-43z" />
    <glyph glyph-name="uni049B" unicode="&#x49b;" horiz-adv-x="501" 
d="M87 0v500h42v-221h87l164 221h53l-181 -238v-2l171 -221h60v-159h-42v120h-43l-182 240h-87v-240h-42z" />
    <glyph glyph-name="uni049C" unicode="&#x49c;" horiz-adv-x="629" 
d="M107 0v700h43v-312h86v130h41v-130h61l200 312h52l-215 -330v-2l229 -368h-52l-214 348h-61v-130h-41v130h-86v-348h-43z" />
    <glyph glyph-name="uni049D" unicode="&#x49d;" horiz-adv-x="531" 
d="M87 0v500h42v-221h70v109h39v-109h38l164 221h53l-181 -238v-2l201 -260h-55l-182 240h-38v-111h-39v111h-70v-240h-42z" />
    <glyph glyph-name="uni049E" unicode="&#x49e;" horiz-adv-x="576" 
d="M6 533v40h106v127h43v-127h112v-40h-112v-145h130l200 312h52l-215 -330v-2l229 -368h-52l-214 348h-130v-348h-43v533h-106z" />
    <glyph glyph-name="uni049F" unicode="&#x49f;" horiz-adv-x="472" 
d="M87 0v530h-63v38h63v132h42v-132h136v-38h-136v-227h89l162 197h55l-181 -215v-2l198 -283h-53l-181 264h-89v-264h-42z" />
    <glyph glyph-name="uni04A0" unicode="&#x4a0;" horiz-adv-x="714" 
d="M250 0v660h-231v40h274v-312h130l200 312h52l-215 -330v-2l229 -368h-52l-214 348h-130v-348h-43z" />
    <glyph glyph-name="uni04A1" unicode="&#x4a1;" horiz-adv-x="538" 
d="M154 0v462h-141v38h183v-221h87l164 221h53l-181 -238v-2l201 -260h-55l-182 240h-87v-240h-42z" />
    <glyph glyph-name="uni04A2" unicode="&#x4a2;" horiz-adv-x="765" 
d="M107 0v700h43v-329h444v329h43v-660h86v-180h-42v140h-87v331h-444v-331h-43z" />
    <glyph glyph-name="uni04A3" unicode="&#x4a3;" horiz-adv-x="601" 
d="M87 0v500h42v-223h327v223h42v-461h75v-159h-42v120h-75v238h-327v-238h-42z" />
    <glyph glyph-name="uni04A4" unicode="&#x4a4;" horiz-adv-x="913" 
d="M107 0v700h43v-329h394v329h353v-40h-310v-660h-43v331h-394v-331h-43z" />
    <glyph glyph-name="uni04A5" unicode="&#x4a5;" horiz-adv-x="705" 
d="M87 0v500h42v-223h287v223h264v-38h-222v-462h-42v238h-287v-238h-42z" />
    <glyph glyph-name="uni04A6" unicode="&#x4a6;" horiz-adv-x="991" 
d="M107 0v700h457v-312q23 13 67.5 26t83.5 13q37 0 65.5 -5t60.5 -23t53 -48t35 -84t14 -128q0 -160 -64 -234.5t-164 -74.5v39q36 0 66.5 12.5t58.5 40.5t44 83.5t16 133.5q0 136 -45.5 192t-139.5 56q-67 0 -151 -39v-348h-43v660h-371v-660h-43z" />
    <glyph glyph-name="uni04A7" unicode="&#x4a7;" horiz-adv-x="781" 
d="M87 0v500h341v-233q64 33 125 33q44 0 77.5 -13.5t54 -35t33.5 -51t17.5 -58.5t4.5 -62q0 -187 -136 -285l-23 34q117 82 117 251q0 79 -33.5 129t-111.5 50q-68 0 -125 -35v-224h-42v461h-257v-461h-42z" />
    <glyph glyph-name="uni04A8" unicode="&#x4a8;" horiz-adv-x="929" 
d="M61 358q0 77 25 141.5t66 107.5t89.5 69.5t99.5 35.5v-41q-96 -23 -165.5 -103.5t-69.5 -209.5q0 -141 79 -234.5t214 -93.5q78 0 160 33q-91 54 -141.5 143t-50.5 199q0 75 24 134.5t62.5 93t81.5 50.5t85 17q103 0 174 -73.5t71 -221.5q0 -103 -58 -192.5t-153 -147.5
q75 -25 162 -25h39v-40h-39q-118 0 -208 39q-104 -51 -208 -51q-153 0 -246 101.5t-93 268.5zM412 405q0 -103 50.5 -188t143.5 -132q94 52 154 137t60 183q0 132 -58.5 193t-141.5 61q-27 0 -54.5 -9t-55.5 -29t-49.5 -48.5t-35 -72t-13.5 -95.5z" />
    <glyph glyph-name="uni04A9" unicode="&#x4a9;" horiz-adv-x="756" 
d="M53 255q0 101 56.5 167.5t130.5 89.5l13 -38q-60 -19 -108 -75.5t-48 -143.5q0 -100 57.5 -163t173.5 -63q66 0 128 24q-71 40 -112.5 105t-41.5 147q0 85 58.5 146t143.5 61q86 0 140 -56t54 -151q0 -75 -41 -139.5t-109 -109.5q51 -15 108 -15h42v-41h-42
q-82 0 -154 30q-86 -42 -174 -42q-137 0 -206 76t-69 191zM346 305q0 -76 42.5 -136.5t113.5 -94.5q69 38 110.5 98t41.5 133q0 79 -42 122.5t-108 43.5q-64 0 -111 -47t-47 -119z" />
    <glyph glyph-name="uni04AA" unicode="&#x4aa;" horiz-adv-x="720" 
d="M61 355q0 153 98 255t249 102q156 0 250 -88l-26 -32q-42 37 -102 58t-121 21q-133 0 -218 -89.5t-85 -226.5q0 -139 85.5 -232.5t220.5 -93.5q140 0 237 95l27 -30q-104 -100 -246 -105v-129h-42v129q-146 9 -236.5 113t-90.5 253z" />
    <glyph glyph-name="uni04AB" unicode="&#x4ab;" horiz-adv-x="542" 
d="M53 249q0 116 75.5 189.5t182.5 73.5q50 0 98.5 -18t80.5 -53l-26 -34q-27 29 -68.5 46.5t-84.5 17.5q-90 0 -152 -61.5t-62 -160.5q0 -98 62 -159t152 -61q47 0 92 19t75 53l22 -35q-65 -73 -177 -78v-108h-42v110q-99 10 -163.5 80.5t-64.5 178.5z" />
    <glyph glyph-name="uni04AC" unicode="&#x4ac;" horiz-adv-x="600" 
d="M277 0v660h-261v40h565v-40h-261v-620h86v-180h-42v140h-87z" />
    <glyph glyph-name="uni04AD" unicode="&#x4ad;" horiz-adv-x="475" 
d="M215 0v461h-190v39h422v-39h-190v-422h75v-159h-42v120h-75z" />
    <glyph glyph-name="uni04AE" unicode="&#x4ae;" horiz-adv-x="555" 
d="M256 0v304l-238 396h49l166 -276l43 -79h2q22 45 43 79l166 276h49l-237 -396v-304h-43z" />
    <glyph glyph-name="uni04AF" unicode="&#x4af;" horiz-adv-x="498" 
d="M229 39l-199 461h45l154 -359l19 -51h2q8 26 19 51l154 359h44l-198 -461v-239h-40v239z" />
    <glyph glyph-name="uni04B0" unicode="&#x4b0;" horiz-adv-x="555" 
d="M121 265v39h135l-238 396h49l166 -276l43 -79h2q22 45 43 79l166 276h49l-237 -396h130v-39h-130v-265h-43v265h-135z" />
    <glyph glyph-name="uni04B1" unicode="&#x4b1;" horiz-adv-x="497" 
d="M115 0v39h114l-197 461h45l152 -359l19 -51h2q8 26 19 51l152 359h44l-196 -461h114v-39h-114v-200h-40v200h-114z" />
    <glyph glyph-name="uni04B2" unicode="&#x4b2;" horiz-adv-x="601" 
d="M21 0l226 370l-201 330h52l134 -223l46 -78h2q22 44 43 78l135 223h52l-203 -330l202 -330h81v-180h-42v140h-65l-162 266l-45 75h-2q-21 -41 -42 -76l-160 -265h-51z" />
    <glyph glyph-name="uni04B3" unicode="&#x4b3;" horiz-adv-x="493" 
d="M22 0l180 264l-161 236h51l121 -182l17 -28h2l17 28l121 182h51l-161 -236l153 -225h60v-159h-42v120h-43l-138 207l-18 29h-2q-8 -14 -18 -29l-138 -207h-52z" />
    <glyph glyph-name="uni04B4" unicode="&#x4b4;" horiz-adv-x="881" 
d="M250 0v660h-231v40h505v-40h-231v-620h417v660h43v-660h86v-180h-42v140h-547z" />
    <glyph glyph-name="uni04B5" unicode="&#x4b5;" horiz-adv-x="708" 
d="M211 0v461h-186v39h414v-39h-186v-422h311v461h42v-461h70v-159h-42v120h-423z" />
    <glyph glyph-name="uni04B6" unicode="&#x4b6;" horiz-adv-x="621" 
d="M266 283q-206 0 -206 193v224h43v-217q0 -80 38.5 -119.5t124.5 -39.5q51 0 102 18.5t82 40.5v317h43v-660h86v-180h-42v140h-87v305l2 33h-2q-94 -55 -184 -55z" />
    <glyph glyph-name="uni04B7" unicode="&#x4b7;" horiz-adv-x="505" 
d="M218 190q-167 0 -167 155v155h42v-155q0 -51 25 -82.5t100 -31.5q76 0 137 45v224h42v-461h83v-159h-42v120h-83v199l2 34h-2q-26 -18 -66 -30.5t-71 -12.5z" />
    <glyph glyph-name="uni04B8" unicode="&#x4b8;" horiz-adv-x="599" 
d="M260 170v113q-201 1 -201 193v224h43v-217q0 -79 37.5 -118.5t120.5 -40.5v146h41v-144q85 12 148 57v317h43v-700h-43v305l2 33h-2q-68 -41 -148 -53v-115h-41z" />
    <glyph glyph-name="uni04B9" unicode="&#x4b9;" horiz-adv-x="484" 
d="M214 109v81q-163 1 -163 155v155h42v-155q0 -51 24.5 -82t96.5 -32v127h39v-124q57 9 102 42v224h42v-500h-42v199l2 34h-2q-41 -28 -102 -40v-84h-39z" />
    <glyph glyph-name="uni04BA" unicode="&#x4ba;" horiz-adv-x="605" 
d="M107 0v700h43v-261l-2 -33h2q92 54 201 54q189 0 189 -193v-267h-43v260q0 80 -35 119.5t-111 39.5q-59 0 -114.5 -19.5t-86.5 -41.5v-358h-43z" />
    <glyph glyph-name="uni04BB" unicode="&#x4bb;" horiz-adv-x="586" 
d="M87 0v700h42v-288l-4 -41h2q17 48 73 94.5t139 46.5q92 0 128.5 -49.5t36.5 -145.5v-317h-42v302q0 30 -2 51.5t-9 45t-20 38.5t-36.5 24.5t-55.5 9.5q-87 0 -148.5 -64t-61.5 -161v-246h-42z" />
    <glyph glyph-name="uni04BC" unicode="&#x4bc;" horiz-adv-x="846" 
d="M50 505q0 45 6 77l9 45h44l-9 -45q-7 -35 -7 -77q0 -43 22.5 -70.5t64.5 -27.5h15q17 131 101 218t213 87q123 0 198.5 -83t75.5 -234v-28h-547q-3 -81 20.5 -146.5t64 -106.5t92 -63t106.5 -22q41 0 80 9.5t66.5 22.5t48.5 26.5t32 22.5l10 10l24 -37l-11 -10.5
t-32 -22.5t-53 -28.5t-73 -23t-93 -10.5q-143 0 -235 98t-92 259v22h-12q-61 0 -95 38t-34 100zM240 407h497q0 70 -22.5 127.5t-75.5 97t-130 39.5q-109 0 -180.5 -74.5t-88.5 -189.5z" />
    <glyph glyph-name="uni04BD" unicode="&#x4bd;" horiz-adv-x="652" 
d="M45 376q0 39 14 79h42q-15 -35 -15 -76q0 -82 62 -82h10q15 100 82.5 157.5t157.5 57.5q97 0 150.5 -65.5t53.5 -162.5l-2 -27h-401q0 -105 61.5 -166.5t152.5 -61.5q43 0 81.5 15.5t55.5 31.5l18 16l23 -35q-8 -8 -22.5 -19.5t-61 -30.5t-94.5 -19q-109 0 -183.5 72.5
t-74.5 188.5v8h-9q-101 0 -101 119zM202 296h356q-4 87 -49 132t-112 45q-73 0 -127.5 -46.5t-67.5 -130.5z" />
    <glyph glyph-name="uni04BE" unicode="&#x4be;" horiz-adv-x="846" 
d="M50 505q0 45 6 77l9 45h44l-9 -45q-7 -35 -7 -77q0 -43 22.5 -70.5t64.5 -27.5h15q17 131 101 218t213 87q123 0 198.5 -83t75.5 -234v-28h-547q-3 -81 20.5 -146.5t64 -106.5t92 -63t106.5 -22q41 0 80 9.5t66.5 22.5t48.5 26.5t32 22.5l10 10l24 -37l-10.5 -10
t-30.5 -21.5t-50.5 -28t-69.5 -23.5t-88 -12v-128h-42v129q-132 10 -215 107t-83 249v22h-12q-61 0 -95 38t-34 100zM240 407h497q0 70 -22.5 127.5t-75.5 97t-130 39.5q-109 0 -180.5 -74.5t-88.5 -189.5z" />
    <glyph glyph-name="uni04BF" unicode="&#x4bf;" horiz-adv-x="653" 
d="M46 376q0 39 14 79h42q-15 -35 -15 -76q0 -82 62 -82h10q15 100 82.5 157.5t157.5 57.5q97 0 150.5 -65.5t53.5 -162.5l-2 -27h-401q0 -105 61.5 -166.5t152.5 -61.5q43 0 81.5 15.5t56.5 31.5l17 16l23 -35q-8 -8 -22.5 -19.5t-61 -30.5t-94.5 -19h-2v-108h-42v112
q-93 14 -153.5 83.5t-60.5 173.5v8h-9q-101 0 -101 119zM203 296h356q-4 87 -49 132t-112 45q-73 0 -127.5 -46.5t-67.5 -130.5z" />
    <glyph glyph-name="uni04C0" unicode="&#x4c0;" horiz-adv-x="257" 
d="M107 0v700h43v-700h-43z" />
    <glyph glyph-name="uni04C1" unicode="&#x4c1;" horiz-adv-x="819" 
d="M26 0l215 368v2l-201 330h50l188 -312h110v312h43v-312h110l188 312h50l-201 -330v-2l215 -368h-50l-202 348h-110v-348h-43v348h-110l-202 -348h-50zM409 734q-48 0 -83 29.5t-35 79.5v18h42v-15q0 -34 22 -53t54 -19q31 0 54 19.5t23 53.5v14h41v-18q0 -50 -35 -79.5
t-83 -29.5z" />
    <glyph glyph-name="uni04C2" unicode="&#x4c2;" horiz-adv-x="692" 
d="M23 0l176 255v2l-159 243h49l146 -224h90v224h42v-224h90l146 224h49l-159 -243v-2l176 -255h-53l-161 237h-88v-237h-42v237h-88l-161 -237h-53zM346 573q-48 0 -83 29.5t-35 79.5v18h42v-15q0 -34 22 -53t54 -19q31 0 54 19.5t23 53.5v14h41v-18q0 -50 -35 -79.5
t-83 -29.5z" />
    <glyph glyph-name="uni04C3" unicode="&#x4c3;" horiz-adv-x="596" 
d="M107 0v700h43v-312h130l200 312h52l-207 -323q56 -13 97.5 -39t63 -53.5t35 -62t16.5 -58t3 -47.5q0 -140 -65.5 -213.5t-162.5 -73.5v39q77 0 131 59t54 189q0 122 -76.5 176.5t-194.5 54.5h-76v-348h-43z" />
    <glyph glyph-name="uni04C4" unicode="&#x4c4;" horiz-adv-x="482" 
d="M87 0v500h42v-223h85l166 223h53l-173 -227v-2q172 -42 172 -228q0 -167 -139 -248l-22 36q117 61 117 212q0 101 -56 148t-153 47h-50v-238h-42z" />
    <glyph glyph-name="uni04C5" unicode="&#x4c5;" horiz-adv-x="669" 
d="M9 34q52 7 87.5 48.5t54 118t25.5 166t7 214.5v119h362v-660h90v-33l-60 -147h-40l49 140h-82v660h-277v-79q0 -90 -3 -157.5t-11 -136.5t-23 -117.5t-38.5 -88.5t-58.5 -62t-82 -27v42z" />
    <glyph glyph-name="uni04C6" unicode="&#x4c6;" horiz-adv-x="528" 
d="M20 -4v39q68 11 97 89.5t29 226.5v149h280v-462h70v-33l-51 -125h-38l42 120h-65v461h-196v-110q0 -179 -41 -262t-127 -93z" />
    <glyph glyph-name="uni04C7" unicode="&#x4c7;" horiz-adv-x="744" 
d="M107 0v700h43v-329h444v329h43v-685q0 -47 -12.5 -82.5t-29.5 -54.5t-41 -30.5t-42 -14.5t-37 -3v39q19 0 36 5t37.5 18.5t33 45t12.5 76.5v317h-444v-331h-43z" />
    <glyph glyph-name="uni04C8" unicode="&#x4c8;" horiz-adv-x="586" 
d="M87 0v500h42v-223h327v223h43v-467q0 -99 -37.5 -151t-101.5 -87l-22 36q118 55 118 202v205h-327v-238h-42z" />
    <glyph glyph-name="uni04C9" unicode="&#x4c9;" horiz-adv-x="761" 
d="M107 0v700h43v-329h444v329h43v-660h90v-33l-60 -147h-40l49 140h-82v331h-444v-331h-43z" />
    <glyph glyph-name="uni04CA" unicode="&#x4ca;" horiz-adv-x="600" 
d="M87 0v500h42v-223h327v223h42v-462h70v-33l-51 -125h-38l42 120h-65v238h-327v-238h-42z" />
    <glyph glyph-name="uni04CB" unicode="&#x4cb;" horiz-adv-x="600" 
d="M266 283q-206 0 -206 193v224h43v-217q0 -80 38.5 -119.5t124.5 -39.5q51 0 102 18.5t82 40.5v317h43v-700h-87v-140h-42v180h86v265l2 33h-2q-94 -55 -184 -55z" />
    <glyph glyph-name="uni04CC" unicode="&#x4cc;" horiz-adv-x="492" 
d="M288 39h75v159l2 34h-2q-27 -17 -73.5 -29.5t-78.5 -12.5q-84 0 -122 42t-38 113v155h42v-155q0 -50 24.5 -82t93.5 -32q44 0 86 14.5t66 30.5v224h42v-500h-75v-120h-42v159z" />
    <glyph glyph-name="uni04CD" unicode="&#x4cd;" horiz-adv-x="851" 
d="M80 0l56 700h42l204 -440l34 -79h2q18 45 34 79l204 440h42l53 -660h88v-33l-60 -147h-40l49 140h-77l-43 534l-3 93h-2q-20 -59 -36 -93l-188 -399h-44l-187 399l-37 95h-2q0 -61 -3 -95l-43 -534h-43z" />
    <glyph glyph-name="uni04CE" unicode="&#x4ce;" horiz-adv-x="720" 
d="M68 0l40 500h40l169 -331l34 -73h2q17 40 34 73l170 331h40l37 -462h68v-33l-51 -125h-38l42 120h-60l-28 347l-1 86h-2q-10 -28 -33 -72l-157 -306h-43l-157 304l-33 74h-2q1 -62 -1 -86l-28 -347h-42z" />
    <glyph glyph-name="uni04CF" unicode="&#x4cf;" horiz-adv-x="216" 
d="M87 0v700h42v-700h-42z" />
    <glyph glyph-name="uni04D0" unicode="&#x4d0;" horiz-adv-x="624" 
d="M27 0l262 700h46l262 -700h-46l-91 242h-297l-90 -242h-46zM178 282h267l-106 284l-26 84h-2q-15 -54 -26 -84zM312 734q-48 0 -83 29.5t-35 79.5v18h42v-15q0 -34 22 -53t54 -19q31 0 54 19.5t23 53.5v14h41v-18q0 -50 -35 -79.5t-83 -29.5z" />
    <glyph glyph-name="uni04D1" unicode="&#x4d1;" horiz-adv-x="509" 
d="M42 133q0 35 13 63t32 45.5t49.5 30.5t55.5 19t60 9.5t54 4t46 0.5h33v17q0 149 -137 149q-80 0 -143 -48l-24 34q29 25 75 40t94 15q87 0 132 -48t45 -141v-323h-42v66l4 45h-2q-20 -52 -66.5 -87.5t-108.5 -35.5q-68 0 -119 37.5t-51 107.5zM86 136q0 -43 34 -76
t94 -33q77 0 124 65.5t47 146.5v27h-32q-31 0 -50.5 -0.5t-56 -4t-60 -12t-49 -22t-38.5 -37t-13 -54.5zM259 573q-48 0 -83 29.5t-35 79.5v18h42v-15q0 -34 22 -53t54 -19q31 0 54 19.5t23 53.5v14h41v-18q0 -50 -35 -79.5t-83 -29.5z" />
    <glyph glyph-name="uni04D2" unicode="&#x4d2;" horiz-adv-x="624" 
d="M27 0l262 700h46l262 -700h-46l-91 242h-297l-90 -242h-46zM178 282h267l-106 284l-26 84h-2q-15 -54 -26 -84zM358 788v73h46v-73h-46zM221 788v73h46v-73h-46z" />
    <glyph glyph-name="uni04D3" unicode="&#x4d3;" horiz-adv-x="509" 
d="M42 133q0 35 13 63t32 45.5t49.5 30.5t55.5 19t60 9.5t54 4t46 0.5h33v17q0 149 -137 149q-80 0 -143 -48l-24 34q29 25 75 40t94 15q87 0 132 -48t45 -141v-323h-42v66l4 45h-2q-20 -52 -66.5 -87.5t-108.5 -35.5q-68 0 -119 37.5t-51 107.5zM86 136q0 -43 34 -76
t94 -33q77 0 124 65.5t47 146.5v27h-32q-31 0 -50.5 -0.5t-56 -4t-60 -12t-49 -22t-38.5 -37t-13 -54.5zM297 627v73h46v-73h-46zM160 627v73h46v-73h-46z" />
    <glyph glyph-name="uni04D4" unicode="&#x4d4;" horiz-adv-x="823" 
d="M21 0l287 700h449v-40h-340v-287h279v-40h-279v-293h359v-40h-402v333h-171l-136 -333h-46zM220 373h154v287h-36z" />
    <glyph glyph-name="uni04D5" unicode="&#x4d5;" horiz-adv-x="870" 
d="M43 133q0 34 11 61t27.5 44t43.5 29.5t50.5 18.5t58.5 9.5t56.5 4t54.5 0.5h40v22q0 149 -141 149q-77 0 -139 -48l-24 34q29 26 74 40.5t91 14.5q144 0 172 -117h2q62 117 198 117q96 0 149 -64t53 -159q0 -12 -2 -28h-391q0 -110 56.5 -171t147.5 -61q92 0 155 63
l23 -35q-33 -31 -81.5 -50t-96.5 -19q-78 0 -138 40.5t-87 112.5h-2q-3 -15 -13.5 -36t-31 -49.5t-58.5 -48t-86 -19.5q-73 0 -122.5 38t-49.5 107zM431 300h345q-4 86 -50 129t-111 43q-72 0 -122 -44t-62 -128zM87 136q0 -45 34 -77t94 -32q77 0 123.5 65.5t46.5 146.5v22
h-69q-34 0 -59.5 -1.5t-60 -8.5t-56 -19.5t-37.5 -37t-16 -58.5z" />
    <glyph glyph-name="uni04D6" unicode="&#x4d6;" horiz-adv-x="556" 
d="M107 0v700h383v-40h-340v-287h279v-40h-279v-293h359v-40h-402zM303 734q-48 0 -83 29.5t-35 79.5v18h42v-15q0 -34 22 -53t54 -19q31 0 54 19.5t23 53.5v14h41v-18q0 -50 -35 -79.5t-83 -29.5z" />
    <glyph glyph-name="uni04D7" unicode="&#x4d7;" horiz-adv-x="549" 
d="M52 249q0 122 71 192.5t172 70.5q97 0 150.5 -65.5t53.5 -162.5q0 -9 -2 -27h-401q0 -105 61.5 -166.5t152.5 -61.5q92 0 155 63l23 -35q-33 -31 -81.5 -50t-96.5 -19q-109 0 -183.5 72.5t-74.5 188.5zM99 296h356q-4 87 -49 132t-112 45q-73 0 -127.5 -46.5
t-67.5 -130.5zM290 573q-48 0 -83 29.5t-35 79.5v18h42v-15q0 -34 22 -53t54 -19q31 0 54 19.5t23 53.5v14h41v-18q0 -50 -35 -79.5t-83 -29.5z" />
    <glyph glyph-name="uni04D8" unicode="&#x4d8;" horiz-adv-x="718" 
d="M59 343l1 28h551q0 132 -77 216t-196 84q-41 0 -80 -8t-65.5 -19.5t-47 -23.5t-30.5 -20l-10 -8l-26 32q4 4 11 9.5t31.5 21t52.5 27t72.5 21t92.5 9.5q140 0 228.5 -97t88.5 -260q0 -160 -82.5 -263.5t-225.5 -103.5q-132 0 -210.5 86.5t-78.5 268.5zM105 331
q0 -301 252 -301q110 0 181 82.5t71 218.5h-504z" />
    <glyph glyph-name="uni04D9" unicode="&#x4d9;" horiz-adv-x="551" 
d="M51 232l2 27h401q0 92 -56 152t-138 60q-30 0 -59.5 -6.5t-49.5 -15.5t-35.5 -18.5t-23.5 -16.5l-7 -6l-23 35q9 8 25.5 19.5t68.5 30.5t105 19q102 0 169.5 -72t67.5 -189q0 -126 -67 -194.5t-166 -68.5q-104 0 -159 66.5t-55 177.5zM95 220q7 -193 171 -193
q72 0 126 49t59 144h-356z" />
    <glyph glyph-name="uni04DA" unicode="&#x4da;" horiz-adv-x="718" 
d="M403 788v73h46v-73h-46zM266 788v73h46v-73h-46zM59 343l1 28h551q0 132 -77 216t-196 84q-41 0 -80 -8t-65.5 -19.5t-47 -23.5t-30.5 -20l-10 -8l-26 32q4 4 11 9.5t31.5 21t52.5 27t72.5 21t92.5 9.5q140 0 228.5 -97t88.5 -260q0 -160 -82.5 -263.5t-225.5 -103.5
q-132 0 -210.5 86.5t-78.5 268.5zM105 331q0 -301 252 -301q110 0 181 82.5t71 218.5h-504z" />
    <glyph glyph-name="uni04DB" unicode="&#x4db;" horiz-adv-x="551" 
d="M312 627v73h46v-73h-46zM175 627v73h46v-73h-46zM51 232l2 27h401q0 92 -56 152t-138 60q-30 0 -59.5 -6.5t-49.5 -15.5t-35.5 -18.5t-23.5 -16.5l-7 -6l-23 35q9 8 25.5 19.5t68.5 30.5t105 19q102 0 169.5 -72t67.5 -189q0 -126 -67 -194.5t-166 -68.5
q-104 0 -159 66.5t-55 177.5zM95 220q7 -193 171 -193q72 0 126 49t59 144h-356z" />
    <glyph glyph-name="uni04DC" unicode="&#x4dc;" horiz-adv-x="819" 
d="M456 788v73h46v-73h-46zM319 788v73h46v-73h-46zM26 0l215 368v2l-201 330h50l188 -312h110v312h43v-312h110l188 312h50l-201 -330v-2l215 -368h-50l-202 348h-110v-348h-43v348h-110l-202 -348h-50z" />
    <glyph glyph-name="uni04DD" unicode="&#x4dd;" horiz-adv-x="692" 
d="M391 627v73h46v-73h-46zM254 627v73h46v-73h-46zM23 0l176 255v2l-159 243h49l146 -224h90v224h42v-224h90l146 224h49l-159 -243v-2l176 -255h-53l-161 237h-88v-237h-42v237h-88l-161 -237h-53z" />
    <glyph glyph-name="uni04DE" unicode="&#x4de;" horiz-adv-x="530" 
d="M308 788v73h46v-73h-46zM171 788v73h46v-73h-46zM36 74l29 34q29 -34 77 -56t99 -22q80 0 132.5 45t52.5 119q0 70 -47.5 110.5t-118.5 40.5h-89v40h71q65 0 112 40.5t47 104.5q0 61 -38.5 100.5t-116.5 39.5q-95 0 -165 -60l-24 37q80 65 189 65q97 0 148.5 -49
t51.5 -130q0 -61 -31.5 -100.5t-77.5 -59.5v-2q61 -15 97.5 -61.5t36.5 -115.5q0 -92 -65.5 -149t-165.5 -57q-58 0 -114.5 23t-89.5 63z" />
    <glyph glyph-name="uni04DF" unicode="&#x4df;" horiz-adv-x="431" 
d="M259 627v73h46v-73h-46zM122 627v73h46v-73h-46zM34 60l27 32q57 -64 138 -64q54 0 95 28.5t41 82.5q0 49 -36 75t-103 26h-60v39h54q60 0 93 24.5t33 71.5q0 48 -32 72t-84 24q-72 0 -123 -47l-25 34q62 54 152 54q70 0 113.5 -34t43.5 -99q0 -86 -81 -115v-2
q46 -10 72.5 -41t26.5 -81q0 -72 -53 -112t-127 -40q-95 0 -165 72z" />
    <glyph glyph-name="uni04E0" unicode="&#x4e0;" horiz-adv-x="516" 
d="M62 89q32 -27 76.5 -42.5t87.5 -15.5q84 0 136.5 45.5t52.5 117.5q0 65 -32 101t-107 46q-28 4 -148 4v34l214 239l43 43l-1 2q-26 -2 -61 -2h-267v39h388v-30l-230 -257l-27 -26v-2q71 0 98 -4q175 -24 175 -181q0 -92 -64.5 -151t-169.5 -59q-101 0 -187 62z" />
    <glyph glyph-name="uni04E1" unicode="&#x4e1;" horiz-adv-x="473" 
d="M37 -111q32 -27 76.5 -42.5t87.5 -15.5q84 0 136.5 45.5t52.5 117.5q0 65 -32 101t-107 46q-28 4 -148 4v34l214 239l43 43l-1 2q-26 -2 -61 -2h-267v39h388v-30l-230 -257l-27 -26v-2q71 0 98 -4q175 -24 175 -181q0 -92 -64.5 -151t-169.5 -59q-101 0 -187 62z" />
    <glyph glyph-name="uni04E2" unicode="&#x4e2;" horiz-adv-x="750" 
d="M257 787v40h239v-40h-239zM107 0v700h43v-549l-5 -88h2q38 59 61 91l395 546h40v-700h-43v549l5 88h-2q-35 -56 -58 -88l-398 -549h-40z" />
    <glyph glyph-name="uni04E3" unicode="&#x4e3;" horiz-adv-x="584" 
d="M174 625v40h239v-40h-239zM87 0v500h42v-356l-3 -81h2l57 81l273 356h39v-500h-42v357l3 78h-2l-57 -78l-273 -357h-39z" />
    <glyph glyph-name="uni04E4" unicode="&#x4e4;" horiz-adv-x="750" 
d="M420 788v73h46v-73h-46zM283 788v73h46v-73h-46zM107 0v700h43v-549l-5 -88h2q38 59 61 91l395 546h40v-700h-43v549l5 88h-2q-35 -56 -58 -88l-398 -549h-40z" />
    <glyph glyph-name="uni04E5" unicode="&#x4e5;" horiz-adv-x="584" 
d="M343 627v73h46v-73h-46zM206 627v73h46v-73h-46zM87 0v500h42v-356l-3 -81h2l57 81l273 356h39v-500h-42v357l3 78h-2l-57 -78l-273 -357h-39z" />
    <glyph glyph-name="uni04E6" unicode="&#x4e6;" horiz-adv-x="826" 
d="M59 355q0 151 102 254t252 103t252 -103t102 -254q0 -155 -102 -261t-252 -106t-252 106t-102 261zM104 355q0 -138 88.5 -232t220.5 -94t220.5 94t88.5 232q0 135 -88.5 225.5t-220.5 90.5t-220.5 -90.5t-88.5 -225.5zM457 788v73h46v-73h-46zM320 788v73h46v-73h-46z
" />
    <glyph glyph-name="uni04E7" unicode="&#x4e7;" horiz-adv-x="620" 
d="M51 253q0 109 75.5 184t183.5 75t183.5 -75t75.5 -184q0 -111 -75.5 -188t-183.5 -77t-183.5 77t-75.5 188zM95 253q0 -95 62.5 -159.5t152.5 -64.5t152.5 64.5t62.5 159.5q0 92 -62.5 155t-152.5 63t-152.5 -63t-62.5 -155zM357 627v73h46v-73h-46zM220 627v73h46v-73
h-46z" />
    <glyph glyph-name="uni04E8" unicode="&#x4e8;" horiz-adv-x="826" 
d="M59 355q0 151 102 254t252 103t252 -103t102 -254q0 -155 -102 -261t-252 -106t-252 106t-102 261zM413 29q127 0 214 87.5t94 218.5h-617q7 -131 94.5 -218.5t214.5 -87.5zM413 671q-127 0 -214 -84t-95 -212h617q-7 127 -94 211.5t-214 84.5z" />
    <glyph glyph-name="uni04E9" unicode="&#x4e9;" horiz-adv-x="620" 
d="M51 253q0 109 75.5 184t183.5 75t183.5 -75t75.5 -184q0 -111 -75.5 -188t-183.5 -77t-183.5 77t-75.5 188zM310 29q84 0 145.5 58.5t68.5 145.5h-429q7 -88 68.5 -146t146.5 -58zM310 471q-85 0 -146.5 -57t-68.5 -142h429q-7 85 -68 142t-146 57z" />
    <glyph glyph-name="uni04EA" unicode="&#x4ea;" horiz-adv-x="826" 
d="M59 355q0 151 102 254t252 103t252 -103t102 -254q0 -155 -102 -261t-252 -106t-252 106t-102 261zM413 29q127 0 214 87.5t94 218.5h-617q7 -131 94.5 -218.5t214.5 -87.5zM413 671q-127 0 -214 -84t-95 -212h617q-7 127 -94 211.5t-214 84.5zM322 788v73h46v-73h-46z
M459 788v73h46v-73h-46z" />
    <glyph glyph-name="uni04EB" unicode="&#x4eb;" horiz-adv-x="620" 
d="M51 253q0 109 75.5 184t183.5 75t183.5 -75t75.5 -184q0 -111 -75.5 -188t-183.5 -77t-183.5 77t-75.5 188zM310 29q84 0 145.5 58.5t68.5 145.5h-429q7 -88 68.5 -146t146.5 -58zM310 471q-85 0 -146.5 -57t-68.5 -142h429q-7 85 -68 142t-146 57zM215 627v73h46v-73
h-46zM352 627v73h46v-73h-46z" />
    <glyph glyph-name="uni04EC" unicode="&#x4ec;" horiz-adv-x="717" 
d="M373 788v73h46v-73h-46zM236 788v73h46v-73h-46zM42 94l27 30q37 -41 103 -68t135 -27q124 0 210 86.5t94 215.5h-421v40h422q-6 130 -92 215t-212 85q-129 0 -222 -79l-26 32q44 42 111 65t136 23q150 0 250 -102t100 -255q0 -154 -100 -260.5t-250 -106.5
q-73 0 -144.5 27.5t-120.5 78.5z" />
    <glyph glyph-name="uni04ED" unicode="&#x4ed;" horiz-adv-x="539" 
d="M297 627v73h46v-73h-46zM160 627v73h46v-73h-46zM40 66l22 35q62 -72 169 -72q84 0 144 55.5t67 145.5h-275v39h275q-7 90 -67.5 146t-143.5 56q-89 0 -155 -64l-26 34q30 34 79 52.5t101 18.5q107 0 182 -73.5t75 -189.5t-74.5 -188.5t-183.5 -72.5q-117 0 -189 78z" />
    <glyph glyph-name="uni04EE" unicode="&#x4ee;" horiz-adv-x="576" 
d="M169 787v40h239v-40h-239zM90 28l23 34q49 -34 82 -34q35 0 54.5 26t41.5 84l-280 562h48l212 -426l40 -90h2q17 50 32 90l160 426h47l-235 -606q-42 -106 -122 -106q-48 0 -105 40z" />
    <glyph glyph-name="uni04EF" unicode="&#x4ef;" horiz-adv-x="517" 
d="M41 -146q28 -24 62 -24q60 0 98 90l36 83l-207 497h45l165 -399l18 -47h2q7 23 17 47l165 399h45l-257 -617q-39 -93 -127 -93q-21 0 -41.5 7t-29.5 14l-10 7zM139 625v40h239v-40h-239z" />
    <glyph glyph-name="uni04F0" unicode="&#x4f0;" horiz-adv-x="576" 
d="M334 788v73h46v-73h-46zM197 788v73h46v-73h-46zM90 28l23 34q49 -34 82 -34q35 0 54.5 26t41.5 84l-280 562h48l212 -426l40 -90h2q17 50 32 90l160 426h47l-235 -606q-42 -106 -122 -106q-48 0 -105 40z" />
    <glyph glyph-name="uni04F1" unicode="&#x4f1;" horiz-adv-x="517" 
d="M41 -146q28 -24 62 -24q60 0 98 90l36 83l-207 497h45l165 -399l18 -47h2q7 23 17 47l165 399h45l-257 -617q-39 -93 -127 -93q-21 0 -41.5 7t-29.5 14l-10 7zM304 627v73h46v-73h-46zM167 627v73h46v-73h-46z" />
    <glyph glyph-name="uni04F2" unicode="&#x4f2;" horiz-adv-x="576" 
d="M90 28l23 34q49 -34 82 -34q35 0 54.5 26t41.5 84l-280 562h48l212 -426l40 -90h2q17 50 32 90l160 426h47l-235 -606q-42 -106 -122 -106q-48 0 -105 40zM320 750l67 111h56l-79 -111h-44zM205 750l62 111h50l-65 -111h-47z" />
    <glyph glyph-name="uni04F3" unicode="&#x4f3;" horiz-adv-x="517" 
d="M41 -146q28 -24 62 -24q60 0 98 90l36 83l-207 497h45l165 -399l18 -47h2q7 23 17 47l165 399h45l-257 -617q-39 -93 -127 -93q-21 0 -41.5 7t-29.5 14l-10 7zM284 589l67 111h56l-79 -111h-44zM169 589l62 111h50l-65 -111h-47z" />
    <glyph glyph-name="uni04F4" unicode="&#x4f4;" horiz-adv-x="600" 
d="M329 788v73h46v-73h-46zM192 788v73h46v-73h-46zM266 283q-206 0 -206 193v224h43v-217q0 -80 38.5 -119.5t124.5 -39.5q51 0 102 18.5t82 40.5v317h43v-700h-43v305l2 33h-2q-94 -55 -184 -55z" />
    <glyph glyph-name="uni04F5" unicode="&#x4f5;" horiz-adv-x="484" 
d="M278 627v73h46v-73h-46zM141 627v73h46v-73h-46zM218 190q-167 0 -167 155v155h42v-155q0 -51 25 -82.5t100 -31.5q76 0 137 45v224h42v-500h-42v199l2 34h-2q-26 -18 -66 -30.5t-71 -12.5z" />
    <glyph glyph-name="uni04F6" unicode="&#x4f6;" horiz-adv-x="478" 
d="M107 0v700h353v-40h-310v-620h86v-180h-42v140h-87z" />
    <glyph glyph-name="uni04F7" unicode="&#x4f7;" horiz-adv-x="398" 
d="M87 0v500h284v-38h-242v-423h75v-159h-42v120h-75z" />
    <glyph glyph-name="uni04F8" unicode="&#x4f8;" horiz-adv-x="785" 
d="M439 788v73h46v-73h-46zM302 788v73h46v-73h-46zM635 0v700h43v-700h-43zM107 0v700h43v-300h170q89 0 145.5 -51t56.5 -150q0 -91 -54.5 -145t-140.5 -54h-220zM150 40h173q71 0 112.5 42t41.5 117q0 74 -43 117.5t-112 43.5h-172v-320z" />
    <glyph glyph-name="uni04F9" unicode="&#x4f9;" horiz-adv-x="634" 
d="M361 627v73h46v-73h-46zM224 627v73h46v-73h-46zM505 0v500h42v-500h-42zM87 0v500h42v-200h115q32 0 59.5 -7t53.5 -22.5t41 -46.5t15 -75q0 -68 -43.5 -108.5t-127.5 -40.5h-155zM129 39h113q127 0 127 110q0 112 -125 112h-115v-222z" />
    <glyph glyph-name="uni0524" unicode="&#x524;" horiz-adv-x="755" 
d="M107 0v700h520v-660h86v-180h-42v140h-87v660h-434v-660h-43z" />
    <glyph glyph-name="uni0525" unicode="&#x525;" horiz-adv-x="591" 
d="M87 0v500h401v-461h75v-159h-42v120h-75v461h-317v-461h-42z" />
    <glyph glyph-name="uni1E9E" unicode="&#x1e9e;" horiz-adv-x="656" 
d="M101 0v525q0 73 51 124t124 51h299v-30l-173 -242l-27 -36v-2h36q80 0 136.5 -57t56.5 -137q0 -81 -56.5 -138.5t-136.5 -57.5h-171v40h169q64 0 107 45.5t43 110.5q0 64 -42.5 109t-105.5 45h-93v32l156 220l44 58v2q-6 -2 -42 -2h-194q-60 0 -99 -39t-39 -96v-525h-43z
" />
    <glyph glyph-name="thinspace" unicode="&#x2009;" horiz-adv-x="10" 
 />
    <glyph glyph-name="endash" unicode="&#x2013;" horiz-adv-x="632" 
d="M78 263v40h476v-40h-476z" />
    <glyph glyph-name="emdash" unicode="&#x2014;" horiz-adv-x="832" 
d="M78 263v40h676v-40h-676z" />
    <glyph glyph-name="quoteleft" unicode="&#x2018;" horiz-adv-x="228" 
d="M74 557l48 151h39l-35 -151h-52z" />
    <glyph glyph-name="quoteright" unicode="&#x2019;" horiz-adv-x="224" 
d="M76 557l35 151h52l-48 -151h-39z" />
    <glyph glyph-name="quotesinglbase" unicode="&#x201a;" horiz-adv-x="244" 
d="M67 -90l35 151h52l-48 -151h-39z" />
    <glyph glyph-name="quotedblleft" unicode="&#x201c;" horiz-adv-x="328" 
d="M174 557l48 151h39l-35 -151h-52zM74 557l48 151h39l-35 -151h-52z" />
    <glyph glyph-name="quotedblright" unicode="&#x201d;" horiz-adv-x="324" 
d="M176 557l35 151h52l-48 -151h-39zM76 557l35 151h52l-48 -151h-39z" />
    <glyph glyph-name="quotedblbase" unicode="&#x201e;" horiz-adv-x="344" 
d="M167 -90l35 151h52l-48 -151h-39zM67 -90l35 151h52l-48 -151h-39z" />
    <glyph glyph-name="dagger" unicode="&#x2020;" horiz-adv-x="379" 
d="M166 -50v510h-114v40h114v200h42v-200h119v-40h-119v-510h-42z" />
    <glyph glyph-name="daggerdbl" unicode="&#x2021;" horiz-adv-x="403" 
d="M64 186v40h114v234h-114v40h114v200h42v-200h119v-40h-119v-234h119v-40h-119v-236h-42v236h-114z" />
    <glyph glyph-name="bullet" unicode="&#x2022;" horiz-adv-x="444" 
d="M222 159q-55 0 -93.5 38.5t-38.5 93.5t38.5 93.5t93.5 38.5t93.5 -38.5t38.5 -93.5t-38.5 -93.5t-93.5 -38.5z" />
    <glyph glyph-name="ellipsis" unicode="&#x2026;" horiz-adv-x="643" 
d="M504 0v63h61v-63h-61zM291 0v63h61v-63h-61zM78 0v63h61v-63h-61z" />
    <glyph glyph-name="perthousand" unicode="&#x2030;" horiz-adv-x="995" 
d="M190 451q-54 0 -92 38t-38 92t38 92.5t92 38.5t92.5 -38.5t38.5 -92.5t-38.5 -92t-92.5 -38zM58 0l531 700h52l-531 -700h-52zM190 491q37 0 62.5 26t25.5 64t-25.5 64.5t-62.5 26.5t-62 -26.5t-25 -64.5t25 -64t62 -26zM696 118q0 54 38 92.5t92 38.5t92.5 -38.5
t38.5 -92.5t-38.5 -92t-92.5 -38t-92 38t-38 92zM376 118q0 54 38 92.5t92 38.5t92.5 -38.5t38.5 -92.5t-38.5 -92t-92.5 -38t-92 38t-38 92zM739 118q0 -38 25 -64t62 -26t62.5 26t25.5 64t-25.5 64.5t-62.5 26.5t-62 -26.5t-25 -64.5zM419 118q0 -38 25 -64t62 -26
t62.5 26t25.5 64t-25.5 64.5t-62.5 26.5t-62 -26.5t-25 -64.5z" />
    <glyph glyph-name="guilsinglleft" unicode="&#x2039;" horiz-adv-x="334" 
d="M219 77l-164 205l164 206h53l-164 -206l164 -205h-53z" />
    <glyph glyph-name="guilsinglright" unicode="&#x203a;" horiz-adv-x="334" 
d="M62 77l164 205l-164 206h53l164 -206l-164 -205h-53z" />
    <glyph glyph-name="fraction" unicode="&#x2044;" horiz-adv-x="150" 
d="M-70 0h-44l336 700h43z" />
    <glyph glyph-name="zerosuperior" unicode="&#x2070;" 
d="M188 413q-148 0 -148 227t148 227t148 -227t-148 -227zM188 449q109 0 109 191t-109 191t-109 -191t109 -191z" />
    <glyph glyph-name="foursuperior" unicode="&#x2074;" 
d="M240 423v121h-215v26l222 287h31v-277h68v-36h-68v-121h-38zM80 580h160v147l3 65h-2q-17 -27 -35 -50l-126 -160v-2z" />
    <glyph glyph-name="fivesuperior" unicode="&#x2075;" 
d="M175 413q-82 0 -129 70l32 21q14 -25 41 -40t56 -15q47 0 79.5 31t32.5 77q0 44 -33 76t-79 32q-44 0 -81 -27l-26 10l26 209h206v-36h-174l-10 -91l-7 -43h2q30 14 65 14q64 0 107 -42t43 -102t-44 -102t-107 -42z" />
    <glyph glyph-name="sixsuperior" unicode="&#x2076;" 
d="M198 413q-71 0 -111.5 56.5t-40.5 142.5q0 43 10.5 86t31.5 82t58.5 63t85.5 24q43 0 83 -20l-19 -32q-28 16 -65 16q-60 0 -98 -52t-47 -126h2q17 21 48.5 34.5t61.5 13.5q60 0 99 -38.5t39 -101.5q0 -70 -39.5 -109t-98.5 -39zM198 449q46 0 72.5 32t26.5 80
q0 47 -28 75.5t-72 28.5q-43 0 -76.5 -25t-33.5 -53q0 -48 31.5 -93t79.5 -45z" />
    <glyph glyph-name="sevensuperior" unicode="&#x2077;" 
d="M76 423l174 333l37 65v2q-20 -2 -55 -2h-178v36h279v-26l-214 -408h-43z" />
    <glyph glyph-name="eightsuperior" unicode="&#x2078;" 
d="M188 413q-59 0 -103 35.5t-44 97.5q0 30 16.5 58t31.5 40.5t29 20.5q-55 36 -55 93q0 51 38.5 80t91.5 29t92 -29.5t39 -82.5q0 -29 -14.5 -58.5t-25.5 -41.5t-20 -20q67 -40 67 -99q0 -51 -41.5 -87t-101.5 -36zM233 651q52 48 52 104q0 36 -27.5 56t-65.5 20
q-37 0 -63.5 -19t-26.5 -54q0 -12 3.5 -22.5t12 -19.5t16 -15.5t22 -14.5t23.5 -12t27.5 -11.5t26.5 -11.5zM188 449q40 0 72 25t32 61q0 18 -8 32.5t-25 26t-31.5 19t-40 18.5t-39.5 18q-68 -43 -68 -103q0 -44 32 -70.5t76 -26.5z" />
    <glyph glyph-name="ninesuperior" unicode="&#x2079;" 
d="M61 433l19 32q26 -16 65 -16q60 0 98 52t47 126h-2q-17 -21 -48.5 -34.5t-61.5 -13.5q-60 0 -99 38.5t-39 101.5q0 70 39.5 109t98.5 39q71 0 111.5 -56.5t40.5 -142.5q0 -43 -10.5 -86t-31.5 -82t-58.5 -63t-85.5 -24q-46 0 -83 20zM179 615q43 0 76.5 25t33.5 53
q0 48 -31.5 93t-79.5 45q-46 0 -72.5 -32t-26.5 -80q0 -47 28 -75.5t72 -28.5z" />
    <glyph glyph-name="zeroinferior" unicode="&#x2080;" 
d="M188 -167q-148 0 -148 227t148 227t148 -227t-148 -227zM188 -131q109 0 109 191t-109 191t-109 -191t109 -191z" />
    <glyph glyph-name="oneinferior" unicode="&#x2081;" 
d="M83 -157v36h96v325l1 22h-1q-4 -8 -23 -27l-44 -43l-26 27l93 94h38v-398h93v-36h-227z" />
    <glyph glyph-name="twoinferior" unicode="&#x2082;" 
d="M54 -157q-2 18 -2 27q0 38 16.5 69.5t41 51.5t53 40.5l53 37.5t41 41.5t16.5 53.5q0 36 -25.5 61.5t-65.5 25.5q-53 0 -94 -50l-24 26q18 25 50.5 42.5t67.5 17.5q62 0 96 -35.5t34 -87.5q0 -41 -22.5 -73.5t-54.5 -54.5l-64.5 -42.5t-55.5 -49.5t-24 -65h229v-36h-266z
" />
    <glyph glyph-name="threeinferior" unicode="&#x2083;" 
d="M179 -168q-40 0 -77.5 16.5t-60.5 48.5l28 26q15 -22 45 -38.5t66 -16.5q39 0 71 29.5t32 71.5q0 43 -32.5 69.5t-74.5 26.5h-32l-11 24l108 127l25 25v2q-18 -3 -38 -3h-164v36h255v-26l-128 -150q51 -4 91 -35t40 -96q0 -57 -42.5 -97t-100.5 -40z" />
    <glyph glyph-name="fourinferior" unicode="&#x2084;" 
d="M240 -157v121h-215v26l222 287h31v-277h68v-36h-68v-121h-38zM80 0h160v147l3 65h-2q-17 -27 -35 -50l-126 -160v-2z" />
    <glyph glyph-name="fiveinferior" unicode="&#x2085;" 
d="M176 -167q-82 0 -129 70l32 21q14 -25 41 -40t56 -15q47 0 79.5 31t32.5 77q0 44 -33 76t-79 32q-44 0 -81 -27l-26 10l26 209h206v-36h-174l-10 -91l-7 -43h2q30 14 65 14q64 0 107 -42t43 -102t-44 -102t-107 -42z" />
    <glyph glyph-name="sixinferior" unicode="&#x2086;" 
d="M198 -167q-71 0 -111.5 56.5t-40.5 142.5q0 43 10.5 86t31.5 82t58.5 63t85.5 24q43 0 83 -20l-19 -32q-28 16 -65 16q-60 0 -98 -52t-47 -126h2q17 21 48.5 34.5t61.5 13.5q60 0 99 -38.5t39 -101.5q0 -70 -39.5 -109t-98.5 -39zM198 -131q46 0 72.5 32t26.5 80
q0 47 -28 75.5t-72 28.5q-43 0 -76.5 -25t-33.5 -53q0 -48 31.5 -93t79.5 -45z" />
    <glyph glyph-name="seveninferior" unicode="&#x2087;" 
d="M76 -158l174 333l37 65v2q-20 -2 -55 -2h-178v36h279v-26l-214 -408h-43z" />
    <glyph glyph-name="eightinferior" unicode="&#x2088;" 
d="M188 -166q-59 0 -103 35.5t-44 97.5q0 30 16.5 58t31.5 40.5t29 20.5q-55 36 -55 93q0 51 38.5 80t91.5 29t92 -29.5t39 -82.5q0 -29 -14.5 -58.5t-25.5 -41.5t-20 -20q67 -40 67 -99q0 -51 -41.5 -87t-101.5 -36zM233 72q52 48 52 104q0 36 -27.5 56t-65.5 20
q-37 0 -63.5 -19t-26.5 -54q0 -12 3.5 -22.5t12 -19.5t16 -15.5t22 -14.5t23.5 -12t27.5 -11.5t26.5 -11.5zM188 -130q40 0 72 25t32 61q0 18 -8 32.5t-25 26t-31.5 19t-40 18.5t-39.5 18q-68 -43 -68 -103q0 -44 32 -70.5t76 -26.5z" />
    <glyph glyph-name="nineinferior" unicode="&#x2089;" 
d="M61 -147l19 32q26 -16 65 -16q60 0 98 52t47 126h-2q-17 -21 -48.5 -34.5t-61.5 -13.5q-60 0 -99 38.5t-39 101.5q0 70 39.5 109t98.5 39q71 0 111.5 -56.5t40.5 -142.5q0 -43 -10.5 -86t-31.5 -82t-58.5 -63t-85.5 -24q-46 0 -83 20zM179 35q43 0 76.5 25t33.5 53
q0 48 -31.5 93t-79.5 45q-46 0 -72.5 -32t-26.5 -80q0 -47 28 -75.5t72 -28.5z" />
    <glyph glyph-name="Euro" unicode="&#x20ac;" horiz-adv-x="560" 
d="M27 273v40h54q-2 14 -2 42.5t3 46.5h-55v40h62q28 119 119.5 194.5t213.5 75.5q49 0 89 -11l-10 -42q-36 11 -79 11q-106 0 -183 -62.5t-104 -165.5h328l-8 -40h-328q-7 -39 -2 -89h314l-7 -40h-301q23 -108 102 -175.5t189 -67.5q49 0 88 13l12 -41q-42 -14 -100 -14
q-126 0 -219 79.5t-117 205.5h-59z" />
    <glyph glyph-name="numero" unicode="&#x2116;" horiz-adv-x="1015" 
d="M100 0v700h40l399 -549l57 -88h2q-5 53 -5 88v549h43v-700h-40l-399 549l-57 88h-2q5 -53 5 -88v-549h-43zM715 480q0 51 35.5 86.5t86.5 35.5t87 -35.5t36 -86.5q0 -53 -36 -89t-87 -36t-86.5 36t-35.5 89zM755 480q0 -37 24 -62t58 -25q35 0 59 25t24 62q0 36 -24 59.5
t-59 23.5q-34 0 -58 -23.5t-24 -59.5zM724 243v37h226v-37h-226z" />
    <glyph glyph-name="trademark" unicode="&#x2122;" horiz-adv-x="970" 
d="M467 264l35 436h35l126 -270l14 -40h2q5 20 14 40l126 270h35l35 -436h-38l-28 328l1 28h-2l-127 -274h-34l-127 274h-2l1 -28l-28 -328h-38zM226 264v398h-160v38h360v-38h-161v-398h-39z" />
    <glyph glyph-name="minus" unicode="&#x2212;" horiz-adv-x="560" 
d="M32 263v40h496v-40h-496z" />
    <glyph glyph-name="infinity" unicode="&#x221e;" horiz-adv-x="460" 
d="M230 184q-68 0 -116.5 48.5t-48.5 116.5t48.5 116t116.5 48t116 -48t48 -116t-48 -116.5t-116 -48.5z" />
    <glyph glyph-name="approxequal" unicode="&#x2248;" horiz-adv-x="560" 
d="M65 321l-25 30q64 66 141 66q50 0 107.5 -35t90.5 -35q60 0 116 56l25 -30q-64 -66 -141 -66q-50 0 -107.5 35t-90.5 35q-60 0 -116 -56zM65 161l-25 30q64 66 141 66q50 0 107.5 -35t90.5 -35q60 0 116 56l25 -30q-64 -66 -141 -66q-50 0 -107.5 35t-90.5 35
q-60 0 -116 -56z" />
    <glyph glyph-name="notequal" unicode="&#x2260;" horiz-adv-x="560" 
d="M109 92l68 91h-126v40h156l91 120h-247v40h277l90 119l33 -25l-71 -94h127v-40h-157l-91 -120h248v-40h-278l-87 -116z" />
    <glyph glyph-name="lessequal" unicode="&#x2264;" horiz-adv-x="560" 
d="M54 265v36l439 197v-48l-377 -166v-2l377 -166v-48zM54 -113h439v-40h-439v40z" />
    <glyph glyph-name="greaterequal" unicode="&#x2265;" horiz-adv-x="560" 
d="M67 68v48l377 166v2l-377 166v48l439 -197v-36zM66 -113h439v-40h-439v40z" />
    <glyph glyph-name="commaaccent" unicode="&#xf6c3;" horiz-adv-x="335" 
d="M142 -66h48q6 -26 6 -47q0 -37 -22 -87h-39q18 47 18 78q0 27 -11 56z" />
    <glyph glyph-name="cyrbreve" unicode="&#xf6d4;" horiz-adv-x="276" 
d="M138 734q-48 0 -83 29.5t-35 79.5v18h42v-15q0 -34 22 -53t54 -19q31 0 54 19.5t23 53.5v14h41v-18q0 -50 -35 -79.5t-83 -29.5z" />
    <glyph glyph-name="apple" unicode="&#xf8ff;" horiz-adv-x="1130" 
d="M168 -5v152l-126 72v278l126 71v151l265 142l134 -71l132 71l265 -142v-151l124 -71v-278l-124 -72v-152l-265 -141l-132 71l-134 -71zM208 30l238 -126l121 66l118 -66l238 126v139l114 64v249l-114 66v136l-238 126l-118 -64l-121 64l-238 -126v-136l-114 -66v-249
l114 -64v-139zM242 64v121l-99 60v225l99 58v123l215 114l110 -59l107 59l214 -114v-123l100 -58v-225l-100 -60v-121l-214 -114l-107 58l-110 -58zM447 91h43v228h228v40h-228v192h199q17 0 23 -6.5t6 -22.5v-42h42v54q0 30 -13 43.5t-45 13.5h-320v-40h65v-460z" />
    <glyph glyph-name="zero.tnum" horiz-adv-x="560" 
d="M280 -12q-236 0 -236 362t236 362t236 -362t-236 -362zM280 30q54 0 92.5 24t59.5 69t30 100t9 127q0 320 -191 320t-191 -320q0 -72 9 -127t30 -100t59.5 -69t92.5 -24z" />
    <glyph glyph-name="one.tnum" horiz-adv-x="560" 
d="M112 0v40h159v570l1 35h-2q-7 -13 -37 -43l-83 -83l-30 29l151 152h43v-660h155v-40h-357z" />
    <glyph glyph-name="two.tnum" horiz-adv-x="560" 
d="M66 0q-3 20 -3 37q0 49 20.5 91.5t53.5 73.5t73 59.5l79.5 56t72.5 56t53.5 66t20.5 80.5q0 65 -44.5 107.5t-118.5 42.5q-51 0 -96.5 -27.5t-73.5 -72.5l-32 22q30 53 85 86.5t118 33.5q98 0 152.5 -56t54.5 -136q0 -56 -27.5 -104t-69 -80l-89.5 -66.5l-89.5 -64.5
t-69 -73t-27.5 -92h383v-40h-426z" />
    <glyph glyph-name="three.tnum" horiz-adv-x="560" 
d="M55 85l32 32q33 -37 83.5 -62t104.5 -25q70 0 122.5 48.5t52.5 123.5q0 78 -55.5 122.5t-131.5 44.5h-48l-12 30l196 229l31 32v2q-19 -2 -54 -2h-287v40h401v-30l-226 -261q36 0 72.5 -9.5t74 -31.5t61 -65t23.5 -101q0 -89 -65.5 -151.5t-156.5 -62.5q-60 0 -117.5 26
t-100.5 71z" />
    <glyph glyph-name="four.tnum" horiz-adv-x="560" 
d="M24 200v30l363 470h40v-460h104v-40h-104v-200h-43v200h-360zM84 240h300v328l3 63h-2q-17 -25 -35 -48l-266 -341v-2z" />
    <glyph glyph-name="five.tnum" horiz-adv-x="560" 
d="M63 89l35 27q56 -86 162 -86q82 0 138 52.5t56 130.5q0 79 -56 132t-138 53q-78 0 -136 -42l-32 11l40 333h325v-40h-287l-25 -209l-7 -43h2q49 32 120 32q100 0 169.5 -66t69.5 -161q0 -94 -70 -159.5t-169 -65.5q-60 0 -112.5 26.5t-84.5 74.5z" />
    <glyph glyph-name="six.tnum" horiz-adv-x="560" 
d="M54 314q0 68 17.5 135.5t51.5 127.5t94 97.5t137 37.5q66 0 123 -28l-21 -39q-44 25 -105 25q-76 0 -133.5 -49.5t-85.5 -120.5t-33 -152h2q29 44 82.5 70t115.5 26q94 0 154.5 -61t60.5 -165q0 -106 -62.5 -168t-152.5 -62q-112 0 -178.5 94t-66.5 232zM304 30
q74 0 119.5 53.5t45.5 136.5q0 84 -47.5 133t-124.5 49q-75 0 -134.5 -43t-59.5 -106q0 -28 12.5 -64.5t35.5 -72.5t63.5 -61t89.5 -25z" />
    <glyph glyph-name="seven.tnum" horiz-adv-x="560" 
d="M134 0l292 595l37 65v2q-20 -2 -55 -2h-340v40h443v-30l-332 -670h-45z" />
    <glyph glyph-name="eight.tnum" horiz-adv-x="560" 
d="M48 195q0 42 15 79.5t38 62.5t39.5 38t31.5 22q-90 55 -90 142q0 73 54.5 123t151.5 50q96 0 152 -49t56 -127q0 -45 -21 -91.5t-39 -69t-35 -38.5q104 -58 104 -150q0 -83 -65.5 -141t-159.5 -58q-92 0 -162 56.5t-70 150.5zM361 356q90 85 90 177q0 63 -45 100t-118 37
q-74 0 -117.5 -37t-43.5 -92q0 -30 12.5 -53.5t41 -43t50.5 -31t66.5 -30t63.5 -27.5zM93 198q0 -74 56 -121t129 -47q71 0 126.5 44.5t55.5 109.5q0 31 -14 56t-43 44t-54.5 31.5t-69 30.5t-66.5 29q-14 -7 -30.5 -19.5t-39 -34.5t-36.5 -54.5t-14 -68.5z" />
    <glyph glyph-name="nine.tnum" horiz-adv-x="560" 
d="M82 16l21 39q44 -25 103 -25q77 0 135 49.5t86 120t33 152.5h-2q-29 -44 -82.5 -70t-115.5 -26q-94 0 -154.5 61t-60.5 162q0 109 62 171t153 62q113 0 179 -94t66 -233q0 -68 -17.5 -135t-51.5 -127t-94.5 -97.5t-137.5 -37.5q-66 0 -122 28zM262 298q78 0 136 44.5
t58 94.5q0 81 -56 157t-139 76q-79 0 -125 -53t-46 -138q0 -83 47.5 -132t124.5 -49z" />
    <glyph glyph-name="hyphen.case" horiz-adv-x="432" 
d="M78 329v40h276v-40h-276z" />
    <glyph glyph-name="parenleft.case" horiz-adv-x="264" 
d="M172 -65q-110 193 -110 430q0 208 110 390h44q-113 -190 -113 -391q0 -231 113 -429h-44z" />
    <glyph glyph-name="parenright.case" horiz-adv-x="264" 
d="M48 -65q113 198 113 429q0 201 -113 391h44q110 -182 110 -390q0 -238 -110 -430h-44z" />
    <glyph glyph-name="bracketleft.case" horiz-adv-x="265" 
d="M98 -65v820h108v-40h-65v-740h65v-40h-108z" />
    <glyph glyph-name="bracketright.case" horiz-adv-x="265" 
d="M59 -25h65v740h-65v40h108v-820h-108v40z" />
    <glyph glyph-name="braceleft.case" horiz-adv-x="326" 
d="M132 118v94q0 46 -21.5 78t-63.5 41v40q41 9 63 40.5t22 78.5v81q0 59 16 99.5t41 56.5t43 21.5t36 5.5h9v-39h-6q-13 0 -25.5 -4t-30.5 -17t-29 -44.5t-11 -77.5v-93q0 -42 -20.5 -76t-58.5 -51v-2q79 -32 79 -127v-106q0 -46 11 -77.5t29 -44.5t30.5 -17t25.5 -4h6v-39
q-3 -1 -9 -1q-13 0 -26.5 2.5t-34.5 13.5t-36.5 29t-27 54.5t-11.5 84.5z" />
    <glyph glyph-name="braceright.case" horiz-adv-x="326" 
d="M49 -26h6q13 0 25.5 4t30.5 17t29 44.5t11 77.5v106q0 95 79 127v2q-34 14 -56.5 48t-22.5 79v93q0 46 -11 77.5t-29 44.5t-30.5 17t-25.5 4h-6v39h9q18 0 36 -5.5t43 -21.5t41 -56.5t16 -99.5v-81q0 -46 22 -78t63 -41v-40q-41 -8 -63 -40.5t-22 -78.5v-94
q0 -48 -11.5 -84.5t-27 -54.5t-36.5 -29t-34.5 -13.5t-26.5 -2.5l-9 1v39z" />
    <glyph glyph-name="at.case" horiz-adv-x="762" 
d="M63 350q0 151 102 258t244 107q120 0 176 -51t56 -126v-344h70v-40h-265q-80 0 -136.5 57t-56.5 137q0 81 56.5 138.5t136.5 57.5h150q-3 57 -46 94t-135 37q-129 0 -218 -94.5t-89 -230.5t88.5 -229.5t218.5 -93.5v-42q-146 0 -249 106.5t-103 258.5zM298 348
q0 -64 44.5 -109t108.5 -45h145v310h-143q-65 0 -110 -46t-45 -110z" />
    <glyph glyph-name="guillemotleft.case" horiz-adv-x="495" 
d="M379 137l-164 205l164 206h53l-164 -206l164 -205h-53zM219 137l-164 205l164 206h53l-164 -206l164 -205h-53z" />
    <glyph glyph-name="guillemotright.case" horiz-adv-x="495" 
d="M223 137l164 205l-164 206h53l164 -206l-164 -205h-53zM63 137l164 205l-164 206h53l164 -206l-164 -205h-53z" />
    <glyph glyph-name="guilsinglleft.case" horiz-adv-x="335" 
d="M219 137l-164 205l164 206h53l-164 -206l164 -205h-53z" />
    <glyph glyph-name="guilsinglright.case" horiz-adv-x="335" 
d="M63 137l164 205l-164 206h53l164 -206l-164 -205h-53z" />
    <glyph glyph-name="endash.case" horiz-adv-x="632" 
d="M78 323v40h476v-40h-476z" />
    <glyph glyph-name="emdash.case" horiz-adv-x="832" 
d="M78 323v40h676v-40h-676z" />
    <glyph glyph-name="periodcentered.case" horiz-adv-x="213" 
d="M78 317v59h57v-59h-57z" />
    <glyph glyph-name="questiondown.case" horiz-adv-x="435" 
d="M273 525v-44q0 -45 -18.5 -81.5t-44.5 -61.5l-52.5 -49.5t-45 -57t-18.5 -72.5q0 -55 41 -92t105 -37q70 0 127 42l23 -34q-27 -22 -68 -36t-81 -14q-85 0 -138.5 49t-53.5 123q0 39 13.5 71.5t33.5 53.5l43.5 44l43.5 42t33.5 48t13.5 62v44h43zM281 700v-61h-59v61h59z
" />
    <glyph glyph-name="exclamdown.case" horiz-adv-x="248" 
d="M146 525v-525h-43v525h43zM153 700v-61h-59v61h59z" />
    <glyph glyph-name="bullet.case" horiz-adv-x="442" 
d="M221 219q-55 0 -93.5 38.5t-38.5 93.5t38.5 93.5t93.5 38.5t93.5 -38.5t38.5 -93.5t-38.5 -93.5t-93.5 -38.5z" />
    <glyph glyph-name="zero.p_osf" horiz-adv-x="584" 
d="M62 268q0 115 61 199.5t169 84.5t169 -84.5t61 -199.5q0 -114 -60.5 -197t-169.5 -83t-169.5 83t-60.5 197zM106 270q0 -98 49 -169.5t137 -71.5t137 71.5t49 169.5t-49 169.5t-137 71.5t-137 -71.5t-49 -169.5z" />
    <glyph glyph-name="one.p_osf" horiz-adv-x="455" 
d="M75 0v39h159v409l1 48h-2q-16 -12 -39 -26l-117 -71l-20 31l177 110h42v-501h140v-39h-341z" />
    <glyph glyph-name="two.p_osf" horiz-adv-x="530" 
d="M68 0v32q186 126 260.5 202t74.5 150q0 63 -42.5 95t-108.5 32q-84 0 -163 -79l-27 30q30 36 83 63t111 27q94 0 142.5 -50t48.5 -113q0 -85 -70 -164.5t-235 -185.5v-2q19 2 54 2h277v-39h-405z" />
    <glyph glyph-name="three.p_osf" horiz-adv-x="525" 
d="M46 -37l32 29q68 -79 170 -79q69 0 121.5 44t52.5 116q0 74 -55 113.5t-133 39.5h-47l-12 32l192 213l31 30v2q-19 -2 -54 -2h-255v39h372v-28l-226 -245q36 0 72 -8.5t74 -28t61.5 -60.5t23.5 -97q0 -90 -64.5 -145.5t-155.5 -55.5q-121 0 -200 91z" />
    <glyph glyph-name="four.p_osf" horiz-adv-x="579" 
d="M38 41v29l348 470h38v-460h113v-39h-113v-157h-42v157h-344zM96 80h286v329l3 63h-2q-17 -31 -35 -55z" />
    <glyph glyph-name="five.p_osf" horiz-adv-x="531" 
d="M53 -24l35 24q25 -36 67.5 -56t88.5 -20q78 0 134.5 45.5t56.5 124.5q0 77 -55.5 121t-130.5 44q-34 0 -68 -9.5t-51 -19.5l-16 -9l-31 10l40 309h314v-39h-277l-24 -189l-7 -40h2q51 28 123 28q92 0 158.5 -53.5t66.5 -151.5q0 -96 -67 -154t-167 -58q-57 0 -109 24.5
t-83 68.5z" />
    <glyph glyph-name="six.p_osf" horiz-adv-x="585" 
d="M67 286q0 65 17.5 129.5t51.5 122.5t94 94t137 36q65 0 122 -26l-21 -38q-44 23 -103 23q-114 0 -180.5 -92t-74.5 -217h2q29 46 82.5 71t116.5 25q94 0 154.5 -56.5t60.5 -150.5q0 -103 -62 -161t-153 -58q-112 0 -178 85.5t-66 212.5zM115 242q0 -75 56 -144t139 -69
q80 0 126 49.5t46 128.5q0 76 -48 121t-125 45q-78 0 -136 -42t-58 -89z" />
    <glyph glyph-name="seven.p_osf" horiz-adv-x="500" 
d="M110 -116l280 557l34 60v2q-20 -2 -55 -2h-325v39h429v-28l-317 -628h-46z" />
    <glyph glyph-name="eight.p_osf" horiz-adv-x="580" 
d="M64 187q0 37 15 71t38.5 57t40 35.5t31.5 20.5q-93 53 -93 137q0 66 53 113.5t147 47.5t149 -46t55 -120q0 -34 -12 -67t-30.5 -57t-31 -38t-22.5 -22q107 -57 107 -144q0 -77 -64.5 -132t-156.5 -55t-159 53.5t-67 145.5zM365 338q91 75 91 165q0 57 -45 91t-115 34
t-113 -34.5t-43 -85.5q0 -23 10.5 -43t24 -33.5t40 -28t45 -22.5t53.5 -22zM108 187q0 -72 54.5 -115t127.5 -43q69 0 123 41.5t54 103.5q0 28 -13 50.5t-41.5 40.5t-52 29.5t-67 28.5t-64.5 27q-13 -7 -28 -17t-39 -30.5t-39 -51t-15 -64.5z" />
    <glyph glyph-name="nine.p_osf" horiz-adv-x="568" 
d="M110 -64q41 -23 103 -23q114 0 180.5 92t74.5 217h-2q-29 -46 -82.5 -71t-116.5 -25q-94 0 -154.5 56.5t-60.5 150.5q0 103 62 161t153 58q112 0 178 -85.5t66 -212.5q0 -65 -17.5 -129.5t-51.5 -122.5t-94 -94t-137 -36q-67 0 -122 26zM269 167q78 0 136 42t58 89
q0 75 -56 144t-139 69q-80 0 -126 -49.5t-46 -128.5q0 -76 48 -121t125 -45z" />
    <glyph glyph-name="zero.t_osf" horiz-adv-x="560" 
d="M50 268q0 115 61 199.5t169 84.5t169 -84.5t61 -199.5q0 -114 -60.5 -197t-169.5 -83t-169.5 83t-60.5 197zM94 270q0 -98 49 -169.5t137 -71.5t137 71.5t49 169.5t-49 169.5t-137 71.5t-137 -71.5t-49 -169.5z" />
    <glyph glyph-name="one.t_osf" horiz-adv-x="560" 
d="M127 0v39h159v409l1 48h-2q-16 -12 -39 -26l-117 -71l-20 31l177 110h42v-501h140v-39h-341z" />
    <glyph glyph-name="two.t_osf" horiz-adv-x="560" 
d="M83 0v32q186 126 260.5 202t74.5 150q0 63 -42.5 95t-108.5 32q-84 0 -163 -79l-27 30q30 36 83 63t111 27q94 0 142.5 -50t48.5 -113q0 -85 -70 -164.5t-235 -185.5v-2q19 2 54 2h277v-39h-405z" />
    <glyph glyph-name="three.t_osf" horiz-adv-x="560" 
d="M63 -37l32 29q68 -79 170 -79q69 0 121.5 44t52.5 116q0 74 -55 113.5t-133 39.5h-47l-12 32l192 213l31 30v2q-19 -2 -54 -2h-255v39h372v-28l-226 -245q36 0 72 -8.5t74 -28t61.5 -60.5t23.5 -97q0 -90 -64.5 -145.5t-155.5 -55.5q-121 0 -200 91z" />
    <glyph glyph-name="four.t_osf" horiz-adv-x="560" 
d="M28 41v29l348 470h38v-460h113v-39h-113v-157h-42v157h-344zM86 80h286v329l3 63h-2q-17 -31 -35 -55z" />
    <glyph glyph-name="five.t_osf" horiz-adv-x="560" 
d="M67 -24l35 24q25 -36 67.5 -56t88.5 -20q78 0 134.5 45.5t56.5 124.5q0 77 -55.5 121t-130.5 44q-34 0 -68 -9.5t-51 -19.5l-16 -9l-31 10l40 309h314v-39h-277l-24 -189l-7 -40h2q51 28 123 28q92 0 158.5 -53.5t66.5 -151.5q0 -96 -67 -154t-167 -58q-57 0 -109 24.5
t-83 68.5z" />
    <glyph glyph-name="six.t_osf" horiz-adv-x="560" 
d="M54 286q0 65 17.5 129.5t51.5 122.5t94 94t137 36q65 0 122 -26l-21 -38q-44 23 -103 23q-114 0 -180.5 -92t-74.5 -217h2q29 46 82.5 71t116.5 25q94 0 154.5 -56.5t60.5 -150.5q0 -103 -62 -161t-153 -58q-112 0 -178 85.5t-66 212.5zM102 242q0 -75 56 -144t139 -69
q80 0 126 49.5t46 128.5q0 76 -48 121t-125 45q-78 0 -136 -42t-58 -89z" />
    <glyph glyph-name="seven.t_osf" horiz-adv-x="560" 
d="M140 -116l280 557l34 60v2q-20 -2 -55 -2h-325v39h429v-28l-317 -628h-46z" />
    <glyph glyph-name="eight.t_osf" horiz-adv-x="560" 
d="M54 187q0 37 15 71t38.5 57t40 35.5t31.5 20.5q-93 53 -93 137q0 66 53 113.5t147 47.5t149 -46t55 -120q0 -34 -12 -67t-30.5 -57t-31 -38t-22.5 -22q107 -57 107 -144q0 -77 -64.5 -132t-156.5 -55t-159 53.5t-67 145.5zM355 338q91 75 91 165q0 57 -45 91t-115 34
t-113 -34.5t-43 -85.5q0 -23 10.5 -43t24 -33.5t40 -28t45 -22.5t53.5 -22zM98 187q0 -72 54.5 -115t127.5 -43q69 0 123 41.5t54 103.5q0 28 -13 50.5t-41.5 40.5t-52 29.5t-67 28.5t-64.5 27q-13 -7 -28 -17t-39 -30.5t-39 -51t-15 -64.5z" />
    <glyph glyph-name="nine.t_osf" horiz-adv-x="560" 
d="M106 -64q41 -23 103 -23q114 0 180.5 92t74.5 217h-2q-29 -46 -82.5 -71t-116.5 -25q-94 0 -154.5 56.5t-60.5 150.5q0 103 62 161t153 58q112 0 178 -85.5t66 -212.5q0 -65 -17.5 -129.5t-51.5 -122.5t-94 -94t-137 -36q-67 0 -122 26zM265 167q78 0 136 42t58 89
q0 75 -56 144t-139 69q-80 0 -126 -49.5t-46 -128.5q0 -76 48 -121t125 -45z" />
    <glyph glyph-name="dollar.osf" horiz-adv-x="497" 
d="M49 86l33 29q28 -36 77 -61t101 -25q57 0 96.5 30t39.5 83q0 40 -32.5 68t-79.5 45.5l-93.5 36.5t-79 53.5t-32.5 85.5q0 68 45.5 107.5t115.5 45.5v84h43v-84q94 -9 142 -60l-27 -33q-51 53 -142 53q-56 0 -94.5 -27t-38.5 -82q0 -41 32.5 -69t79 -45.5l93.5 -37
t79.5 -54.5t32.5 -87q0 -65 -47.5 -107.5t-121.5 -45.5v-93h-43v94q-51 5 -100 31t-79 65z" />
    <glyph glyph-name="cent.osf" horiz-adv-x="552" 
d="M271 -25v83q-95 9 -157.5 74.5t-62.5 165.5t62.5 165t157.5 74v87h43v-86q106 -7 170 -77l-23 -35q-26 33 -71 52.5t-91 19.5q-85 0 -144.5 -55.5t-59.5 -144.5t59.5 -144.5t144.5 -55.5q98 0 162 72l22 -35q-28 -33 -75.5 -54.5t-93.5 -23.5v-82h-43z" />
    <glyph glyph-name="sterling.osf" horiz-adv-x="582" 
d="M55 0v39h66v209h-46v39h46v121q0 75 56.5 126t144.5 51q90 0 157 -51l-29 -33q-24 19 -60 31t-69 12q-74 0 -116 -40.5t-42 -99.5v-117h243v-39h-243v-209h351v-39h-459z" />
    <glyph glyph-name="yen.osf" horiz-adv-x="585" 
d="M104 157v40h168v32l-30 48h-138v40h114l-159 258h49l141 -232l43 -76h2q22 42 43 76l141 232h49l-158 -258h111v-40h-136l-29 -48v-32h165v-40h-165v-157h-43v157h-168z" />
    <glyph glyph-name="florin.osf" horiz-adv-x="470" 
d="M-40 -84q27 -5 62 -5q19 0 36.5 5t39 18.5t36.5 45t19 76.5l24 275h-96v38h99l10 115q5 58 25.5 98t49.5 57t52.5 23.5t47.5 6.5q19 0 39 -1.5t31 -3.5l11 -2v-39q-42 7 -82 7q-19 0 -36.5 -5t-39 -18.5t-36.5 -45t-19 -76.5l-11 -116h133v-38h-136l-24 -274
q-5 -58 -25.5 -98t-49.5 -57.5t-52 -23.5t-47 -6l-61 5v39z" />
    <glyph glyph-name="Euro.osf" horiz-adv-x="609" 
d="M57 208v40h65q-5 40 -1 73h-64v40h70q22 97 99.5 160.5t204.5 63.5q47 0 92 -12l-11 -41q-40 11 -81 11q-104 0 -169.5 -51t-88.5 -131h301l-9 -40h-301q-6 -36 1 -73h288l-9 -40h-270q22 -79 88 -128.5t169 -49.5q48 0 88 13l12 -41q-47 -14 -100 -14q-121 0 -199 62
t-103 158h-72z" />
    <glyph glyph-name="zero.numerator" 
d="M188 256q-148 0 -148 227t148 227t148 -227t-148 -227zM188 292q109 0 109 191t-109 191t-109 -191t109 -191z" />
    <glyph glyph-name="one.numerator" 
d="M83 266v36h96v325l1 22h-1q-4 -8 -23 -27l-44 -43l-26 27l93 94h38v-398h93v-36h-227z" />
    <glyph glyph-name="two.numerator" 
d="M54 266q-2 18 -2 27q0 38 16.5 69.5t41 51.5t53 40.5l53 37.5t41 41.5t16.5 53.5q0 36 -25.5 61.5t-65.5 25.5q-53 0 -94 -50l-24 26q18 25 50.5 42.5t67.5 17.5q62 0 96 -35.5t34 -87.5q0 -41 -22.5 -73.5t-54.5 -54.5l-64.5 -42.5t-55.5 -49.5t-24 -65h229v-36h-266z
" />
    <glyph glyph-name="three.numerator" 
d="M179 256q-40 0 -77.5 16.5t-60.5 48.5l28 26q15 -22 45 -38.5t66 -16.5q39 0 71 29.5t32 71.5q0 43 -32.5 69.5t-74.5 26.5h-32l-11 24l108 127l25 25v2q-18 -3 -38 -3h-164v36h255v-26l-128 -150q51 -4 91 -35t40 -96q0 -57 -42.5 -97t-100.5 -40z" />
    <glyph glyph-name="four.numerator" 
d="M240 266v121h-215v26l222 287h31v-277h68v-36h-68v-121h-38zM80 423h160v147l3 65h-2q-17 -27 -35 -50l-126 -160v-2z" />
    <glyph glyph-name="five.numerator" 
d="M176 256q-82 0 -129 70l32 21q14 -25 41 -40t56 -15q47 0 79.5 31t32.5 77q0 44 -33 76t-79 32q-44 0 -81 -27l-26 10l26 209h206v-36h-174l-10 -91l-7 -43h2q30 14 65 14q64 0 107 -42t43 -102t-44 -102t-107 -42z" />
    <glyph glyph-name="six.numerator" 
d="M198 256q-71 0 -111.5 56.5t-40.5 142.5q0 43 10.5 86t31.5 82t58.5 63t85.5 24q43 0 83 -20l-19 -32q-28 16 -65 16q-60 0 -98 -52t-47 -126h2q17 21 48.5 34.5t61.5 13.5q60 0 99 -38.5t39 -101.5q0 -70 -39.5 -109t-98.5 -39zM198 292q46 0 72.5 32t26.5 80
q0 47 -28 75.5t-72 28.5q-43 0 -76.5 -25t-33.5 -53q0 -48 31.5 -93t79.5 -45z" />
    <glyph glyph-name="seven.numerator" 
d="M76 266l174 333l37 65v2q-20 -2 -55 -2h-178v36h279v-26l-214 -408h-43z" />
    <glyph glyph-name="eight.numerator" 
d="M188 255q-59 0 -103 35.5t-44 97.5q0 30 16.5 58t31.5 40.5t29 20.5q-55 36 -55 93q0 51 38.5 80t91.5 29t92 -29.5t39 -82.5q0 -29 -14.5 -58.5t-25.5 -41.5t-20 -20q67 -40 67 -99q0 -51 -41.5 -87t-101.5 -36zM233 493q52 48 52 104q0 36 -27.5 56t-65.5 20
q-37 0 -63.5 -19t-26.5 -54q0 -12 3.5 -22.5t12 -19.5t16 -15.5t22 -14.5t23.5 -12t27.5 -11.5t26.5 -11.5zM188 291q40 0 72 25t32 61q0 18 -8 32.5t-25 26t-31.5 19t-40 18.5t-39.5 18q-68 -43 -68 -103q0 -44 32 -70.5t76 -26.5z" />
    <glyph glyph-name="nine.numerator" 
d="M61 276l19 32q26 -16 65 -16q60 0 98 52t47 126h-2q-17 -21 -48.5 -34.5t-61.5 -13.5q-60 0 -99 38.5t-39 101.5q0 70 39.5 109t98.5 39q71 0 111.5 -56.5t40.5 -142.5q0 -43 -10.5 -86t-31.5 -82t-58.5 -63t-85.5 -24q-46 0 -83 20zM179 458q43 0 76.5 25t33.5 53
q0 48 -31.5 93t-79.5 45q-46 0 -72.5 -32t-26.5 -80q0 -47 28 -75.5t72 -28.5z" />
    <glyph glyph-name="zero.denominator" 
d="M188 -10q-148 0 -148 227t148 227t148 -227t-148 -227zM188 26q109 0 109 191t-109 191t-109 -191t109 -191z" />
    <glyph glyph-name="one.denominator" 
d="M83 0v36h96v325l1 22h-1q-4 -8 -23 -27l-44 -43l-26 27l93 94h38v-398h93v-36h-227z" />
    <glyph glyph-name="two.denominator" 
d="M54 0q-2 18 -2 27q0 38 16.5 69.5t41 51.5t53 40.5l53 37.5t41 41.5t16.5 53.5q0 36 -25.5 61.5t-65.5 25.5q-53 0 -94 -50l-24 26q18 25 50.5 42.5t67.5 17.5q62 0 96 -35.5t34 -87.5q0 -41 -22.5 -73.5t-54.5 -54.5l-64.5 -42.5t-55.5 -49.5t-24 -65h229v-36h-266z" />
    <glyph glyph-name="three.denominator" 
d="M179 -10q-40 0 -77.5 16.5t-60.5 48.5l28 26q15 -22 45 -38.5t66 -16.5q39 0 71 29.5t32 71.5q0 43 -32.5 69.5t-74.5 26.5h-32l-11 24l108 127l25 25v2q-18 -3 -38 -3h-164v36h255v-26l-128 -150q51 -4 91 -35t40 -96q0 -57 -42.5 -97t-100.5 -40z" />
    <glyph glyph-name="four.denominator" 
d="M240 0v121h-215v26l222 287h31v-277h68v-36h-68v-121h-38zM80 157h160v147l3 65h-2q-17 -27 -35 -50l-126 -160v-2z" />
    <glyph glyph-name="five.denominator" 
d="M175 -10q-82 0 -129 70l32 21q14 -25 41 -40t56 -15q47 0 79.5 31t32.5 77q0 44 -33 76t-79 32q-44 0 -81 -27l-26 10l26 209h206v-36h-174l-10 -91l-7 -43h2q30 14 65 14q64 0 107 -42t43 -102t-44 -102t-107 -42z" />
    <glyph glyph-name="six.denominator" 
d="M198 -10q-71 0 -111.5 56.5t-40.5 142.5q0 43 10.5 86t31.5 82t58.5 63t85.5 24q43 0 83 -20l-19 -32q-28 16 -65 16q-60 0 -98 -52t-47 -126h2q17 21 48.5 34.5t61.5 13.5q60 0 99 -38.5t39 -101.5q0 -70 -39.5 -109t-98.5 -39zM198 26q46 0 72.5 32t26.5 80
q0 47 -28 75.5t-72 28.5q-43 0 -76.5 -25t-33.5 -53q0 -48 31.5 -93t79.5 -45z" />
    <glyph glyph-name="seven.denominator" 
d="M76 0l174 333l37 65v2q-20 -2 -55 -2h-178v36h279v-26l-214 -408h-43z" />
    <glyph glyph-name="eight.denominator" 
d="M188 -10q-59 0 -103 35.5t-44 97.5q0 30 16.5 58t31.5 40.5t29 20.5q-55 36 -55 93q0 51 38.5 80t91.5 29t92 -29.5t39 -82.5q0 -29 -14.5 -58.5t-25.5 -41.5t-20 -20q67 -40 67 -99q0 -51 -41.5 -87t-101.5 -36zM233 228q52 48 52 104q0 36 -27.5 56t-65.5 20
q-37 0 -63.5 -19t-26.5 -54q0 -12 3.5 -22.5t12 -19.5t16 -15.5t22 -14.5t23.5 -12t27.5 -11.5t26.5 -11.5zM188 26q40 0 72 25t32 61q0 18 -8 32.5t-25 26t-31.5 19t-40 18.5t-39.5 18q-68 -43 -68 -103q0 -44 32 -70.5t76 -26.5z" />
    <glyph glyph-name="nine.denominator" 
d="M61 10l19 32q26 -16 65 -16q60 0 98 52t47 126h-2q-17 -21 -48.5 -34.5t-61.5 -13.5q-60 0 -99 38.5t-39 101.5q0 70 39.5 109t98.5 39q71 0 111.5 -56.5t40.5 -142.5q0 -43 -10.5 -86t-31.5 -82t-58.5 -63t-85.5 -24q-46 0 -83 20zM179 192q43 0 76.5 25t33.5 53
q0 48 -31.5 93t-79.5 45q-46 0 -72.5 -32t-26.5 -80q0 -47 28 -75.5t72 -28.5z" />
    <glyph glyph-name="uni0433.BUL" horiz-adv-x="430" 
d="M47 111q0 39 20.5 69t51.5 47.5t67.5 35.5l67.5 33t51.5 39.5t20.5 54.5q0 41 -30.5 61t-77.5 20q-38 0 -70.5 -11.5t-46.5 -23.5l-14 -12l-25 34q6 6 17.5 15t51.5 24t84 15q70 0 112.5 -30t42.5 -90q0 -47 -28.5 -81t-70 -54l-82.5 -38.5t-69.5 -44.5t-28.5 -61
q0 -41 33 -62.5t82 -21.5q28 0 54 6.5t43.5 15.5t31 18.5t19.5 16.5l7 6l27 -32q-2 -3 -7 -8t-22 -17t-36 -21.5t-50.5 -17.5t-65.5 -8q-71 0 -115.5 32.5t-44.5 90.5z" />
    <glyph glyph-name="uni0434.BUL" horiz-adv-x="571" 
d="M118 -134q65 -35 134 -35q85 0 137.5 42.5t52.5 129.5v58l4 41h-2q-50 -102 -168 -102q-98 0 -160 71t-62 187q0 117 58.5 185.5t156.5 68.5q58 0 105.5 -24.5t68.5 -73.5h2q-3 7 -3 19v67h42v-497q0 -108 -65.5 -160.5t-163.5 -52.5q-81 0 -157 39zM98 258
q0 -100 50 -158.5t131 -58.5q73 0 118.5 51.5t45.5 165.5q0 213 -174 213q-81 0 -126 -56t-45 -157z" />
    <glyph glyph-name="uni0436.BUL" horiz-adv-x="692" 
d="M23 0l176 255v2l-159 243h49l146 -224h90v424h42v-424h90l146 224h49l-159 -243v-2l176 -255h-53l-161 237h-88v-237h-42v237h-88l-161 -237h-53z" />
    <glyph glyph-name="uni0438.BUL" horiz-adv-x="580" 
d="M81 183v317h42v-302q0 -30 2 -51.5t9 -45t20 -38.5t36.5 -24.5t55.5 -9.5q90 0 147.5 67.5t57.5 159.5v244h42v-500h-42v88l4 41h-2q-17 -48 -72 -94.5t-135 -46.5q-89 0 -127 48t-38 147z" />
    <glyph glyph-name="uni0439.BUL" horiz-adv-x="580" 
d="M81 183v317h42v-302q0 -30 2 -51.5t9 -45t20 -38.5t36.5 -24.5t55.5 -9.5q90 0 147.5 67.5t57.5 159.5v244h42v-500h-42v88l4 41h-2q-17 -48 -72 -94.5t-135 -46.5q-89 0 -127 48t-38 147zM287 573q-48 0 -83 29.5t-35 79.5v18h42v-15q0 -34 22 -53t54 -19q31 0 54 19.5
t23 53.5v14h41v-18q0 -50 -35 -79.5t-83 -29.5z" />
    <glyph glyph-name="uni043A.BUL" horiz-adv-x="472" 
d="M87 0v700h42v-397h89l162 197h55l-181 -215v-2l198 -283h-53l-181 264h-89v-264h-42z" />
    <glyph glyph-name="uni043B.BUL" horiz-adv-x="496" 
d="M31 0l197 500h40l196 -500h-44l-154 392l-17 54h-2q-8 -30 -17 -54l-154 -392h-45z" />
    <glyph glyph-name="uni043F.BUL" horiz-adv-x="586" 
d="M87 0v500h42v-88l-4 -41h2q17 48 73 94.5t139 46.5q92 0 128.5 -49.5t36.5 -145.5v-317h-42v302q0 30 -2 51.5t-9 45t-20 38.5t-36.5 24.5t-55.5 9.5q-87 0 -148.5 -63.5t-61.5 -158.5v-249h-42z" />
    <glyph glyph-name="uni0442.BUL" horiz-adv-x="918" 
d="M87 0v500h42v-88l-4 -41h2q19 56 76.5 98.5t115.5 42.5q74 0 112 -34t46 -102h2q22 55 75 95.5t115 40.5q92 0 129.5 -49.5t37.5 -145.5v-317h-42v302q0 82 -26 126.5t-99 44.5q-78 0 -132 -69t-54 -155v-249h-42v302q0 30 -2 51.5t-9.5 45.5t-20 39t-35.5 25t-55 10
q-79 0 -134.5 -69t-55.5 -155v-249h-42z" />
    <glyph glyph-name="uni0446.BUL" horiz-adv-x="596" 
d="M81 183v317h42v-302q0 -30 2 -51.5t9 -45t20 -38.5t36.5 -24.5t55.5 -9.5q90 0 147.5 67.5t57.5 159.5v244h42v-461h76v-159h-42v120h-76v88l4 41h-2q-17 -48 -72 -94.5t-135 -46.5q-89 0 -127 48t-38 147z" />
    <glyph glyph-name="uni0448.BUL" horiz-adv-x="917" 
d="M830 500v-500h-42v88l4 41h-2q-19 -56 -76.5 -98.5t-115.5 -42.5q-74 0 -112 34t-46 102h-2q-22 -55 -75 -95.5t-115 -40.5q-92 0 -129.5 49.5t-37.5 145.5v317h42v-302q0 -82 26 -126.5t99 -44.5q78 0 132 69t54 155v249h42v-302q0 -30 2 -51.5t9.5 -45.5t20 -39
t35.5 -25t55 -10q79 0 134.5 69t55.5 155v249h42z" />
    <glyph glyph-name="uni0449.BUL" horiz-adv-x="933" 
d="M830 500v-461h76v-159h-42v120h-76v88l4 41h-2q-19 -56 -76.5 -98.5t-115.5 -42.5q-74 0 -112 34t-46 102h-2q-22 -55 -75 -95.5t-115 -40.5q-92 0 -129.5 49.5t-37.5 145.5v317h42v-302q0 -82 26 -126.5t99 -44.5q78 0 132 69t54 155v249h42v-302q0 -30 2 -51.5
t9.5 -45.5t20 -39t35.5 -25t55 -10q79 0 134.5 69t55.5 155v249h42z" />
    <glyph glyph-name="uni044A.BUL" horiz-adv-x="559" 
d="M148 174v288h-117v38h159v-151q0 -43 -2 -55h2q20 32 60.5 52.5t90.5 20.5q78 0 127 -47.5t49 -143.5q0 -77 -49.5 -132.5t-139.5 -55.5t-135 54.5t-45 131.5zM190 174q0 -64 37 -105t101 -41t104 41t40 107q0 78 -37 114.5t-94 36.5q-70 0 -110.5 -41.5t-40.5 -111.5z
" />
    <glyph glyph-name="uni044C.BUL" horiz-adv-x="492" 
d="M81 174v326h42v-151q0 -43 -2 -55h2q20 32 60.5 52.5t90.5 20.5q78 0 127 -47.5t49 -143.5q0 -77 -49.5 -132.5t-139.5 -55.5t-135 54.5t-45 131.5zM123 174q0 -64 37 -105t101 -41t104 41t40 107q0 78 -36.5 114.5t-94.5 36.5q-70 0 -110.5 -41.5t-40.5 -111.5z" />
    <glyph glyph-name="uni044E.BUL" horiz-adv-x="785" 
d="M87 0v700h42v-431h107q6 103 78 173t171 70q103 0 176 -75t73 -184q0 -111 -73 -188t-176 -77q-98 0 -169 69.5t-79 172.5h-108v-230h-42zM280 253q0 -95 60 -159.5t145 -64.5t145 64.5t60 159.5q0 92 -60 155t-145 63t-145 -63t-60 -155z" />
    <glyph glyph-name="uni0432.BUL" horiz-adv-x="572" 
d="M79 237v196q0 118 59.5 198.5t169.5 80.5q61 0 107.5 -33.5t46.5 -90.5q0 -106 -141 -165v-2q31 -1 63.5 -11.5t64.5 -31.5t52 -60.5t20 -90.5q0 -103 -61.5 -171t-166.5 -68q-95 0 -154.5 62t-59.5 187zM118 325h2q23 48 91 81l83 40q70 36 98 67t28 73q0 41 -35.5 63.5
t-78.5 22.5q-50 0 -88 -20.5t-59 -55.5t-31 -76t-10 -87v-108zM121 218q0 -90 49 -140t123 -50q78 0 131 52t53 145q0 82 -54 122t-123 40t-124 -44.5t-55 -124.5z" />
    <glyph glyph-name="uni0437.BUL" horiz-adv-x="429" 
d="M45 -130q58 -40 121 -40q79 0 128 46.5t49 122.5q0 77 -52 118t-142 41h-45v38h45q70 0 117 40t47 107q0 59 -36 94t-94 35q-71 0 -130 -54l-23 32q69 62 157 62q81 0 125 -46.5t46 -111.5q2 -55 -27 -101t-80 -70v-2q69 -20 103 -67.5t34 -112.5q0 -90 -60 -150.5
t-158 -60.5q-84 0 -145 43z" />
    <glyph glyph-name="uni0414.ALT" horiz-adv-x="690" 
d="M18 40h72l232 660h46l232 -660h72v-180h-43v140h-568v-140h-43v180zM136 40h418l-183 520l-25 85h-2q-15 -55 -25 -85z" />
    <glyph glyph-name="uni041B.ALT" horiz-adv-x="606" 
d="M28 0l252 700h46l252 -700h-46l-203 560l-25 85h-2q-14 -55 -25 -85l-203 -560h-46z" />
    <glyph glyph-name="uni0434.ALT" horiz-adv-x="564" 
d="M27 39h53l182 461h40l180 -461h55v-159h-42v120h-426v-120h-42v159zM125 39h313l-138 353l-17 54h-2q-8 -30 -17 -54z" />
    <glyph glyph-name="uni043B.ALT" horiz-adv-x="496" 
d="M31 0l197 500h40l196 -500h-44l-154 392l-17 54h-2q-8 -30 -17 -54l-154 -392h-45z" />
    <glyph glyph-name="uni0409.ALT" horiz-adv-x="836" 
d="M24 0l303 700h111v-310h148q95 0 153.5 -51.5t58.5 -143.5q0 -89 -59.5 -142t-146.5 -53h-197v660h-38l-286 -660h-47zM438 40h150q73 0 119 40.5t46 114.5q0 72 -46.5 113.5t-118.5 41.5h-150v-310z" />
    <glyph glyph-name="uni0459.ALT" horiz-adv-x="682" 
d="M30 0l217 500h113v-200h115q32 0 59.5 -7t53.5 -22.5t41 -46.5t15 -75q0 -68 -43.5 -108.5t-127.5 -40.5h-155v461h-43l-200 -461h-45zM360 39h113q127 0 127 110q0 112 -125 112h-115v-222z" />
    <glyph glyph-name="uni04C5.ALT" horiz-adv-x="651" 
d="M28 0l252 700h46l237 -660h84v-33l-60 -147h-40l49 140h-64l-203 560l-25 85h-2q-14 -55 -25 -85l-203 -560h-46z" />
    <glyph glyph-name="uni04C6.ALT" horiz-adv-x="537" 
d="M31 0l197 500h40l181 -462h78v-33l-51 -125h-38l42 120h-60l-154 392l-17 54h-2q-8 -30 -17 -54l-154 -392h-45z" />
    </font>
</defs>
</svg>
